<ttFont>
    <TTGlyph name="A" xMin="11" yMin="-95" xMax="915" yMax="589">
      <contour>
        <pt x="697" y="-25" on="1"/>
        <pt x="666" y="-25" on="0"/>
        <pt x="638" y="30" on="0"/>
        <pt x="638" y="115" on="0"/>
        <pt x="656" y="189" on="1"/>
        <pt x="621" y="192" on="0"/>
        <pt x="537" y="203" on="1"/>
        <pt x="398" y="31" on="0"/>
        <pt x="306" y="-36" on="1"/>
        <pt x="227" y="-95" on="0"/>
        <pt x="142" y="-95" on="1"/>
        <pt x="88" y="-95" on="0"/>
        <pt x="11" y="-41" on="0"/>
        <pt x="11" y="12" on="1"/>
        <pt x="11" y="22" on="0"/>
        <pt x="21" y="39" on="0"/>
        <pt x="31" y="31" on="0"/>
        <pt x="31" y="12" on="1"/>
        <pt x="31" y="-22" on="0"/>
        <pt x="84" y="-56" on="0"/>
        <pt x="122" y="-56" on="1"/>
        <pt x="204" y="-56" on="0"/>
        <pt x="363" y="51" on="0"/>
        <pt x="500" y="207" on="1"/>
        <pt x="353" y="225" on="0"/>
        <pt x="306" y="225" on="1"/>
        <pt x="179" y="225" on="0"/>
        <pt x="149" y="142" on="1"/>
        <pt x="145" y="131" on="0"/>
        <pt x="145" y="112" on="0"/>
        <pt x="153" y="97" on="0"/>
        <pt x="148" y="88" on="0"/>
        <pt x="136" y="89" on="0"/>
        <pt x="132" y="95" on="1"/>
        <pt x="121" y="114" on="0"/>
        <pt x="121" y="132" on="1"/>
        <pt x="121" y="194" on="0"/>
        <pt x="166" y="253" on="0"/>
        <pt x="196" y="261" on="1"/>
        <pt x="232" y="271" on="0"/>
        <pt x="328" y="271" on="0"/>
        <pt x="522" y="233" on="1"/>
        <pt x="576" y="295" on="0"/>
        <pt x="796" y="570" on="0"/>
        <pt x="796" y="572" on="1"/>
        <pt x="797" y="572" on="1"/>
        <pt x="798" y="573" on="0"/>
        <pt x="802" y="575" on="1"/>
        <pt x="826" y="589" on="0"/>
        <pt x="854" y="589" on="1"/>
        <pt x="864" y="589" on="0"/>
        <pt x="864" y="579" on="1"/>
        <pt x="864" y="578" on="0"/>
        <pt x="862" y="575" on="0"/>
        <pt x="860" y="570" on="0"/>
        <pt x="859" y="568" on="1"/>
        <pt x="763" y="409" on="0"/>
        <pt x="710" y="210" on="1"/>
        <pt x="707" y="203" on="1"/>
        <pt x="732" y="202" on="1"/>
        <pt x="740" y="201" on="0"/>
        <pt x="781" y="201" on="0"/>
        <pt x="827" y="220" on="0"/>
        <pt x="840" y="242" on="0"/>
        <pt x="850" y="230" on="0"/>
        <pt x="846" y="223" on="1"/>
        <pt x="835" y="203" on="0"/>
        <pt x="807" y="194" on="1"/>
        <pt x="783" y="184" on="0"/>
        <pt x="736" y="184" on="0"/>
        <pt x="729" y="184" on="1"/>
        <pt x="702" y="185" on="1"/>
        <pt x="683" y="98" on="0"/>
        <pt x="683" y="-5" on="0"/>
        <pt x="711" y="-5" on="1"/>
        <pt x="738" y="-5" on="0"/>
        <pt x="852" y="81" on="0"/>
        <pt x="902" y="149" on="1"/>
        <pt x="905" y="153" on="0"/>
        <pt x="915" y="149" on="0"/>
        <pt x="915" y="143" on="0"/>
        <pt x="912" y="134" on="0"/>
        <pt x="898" y="116" on="1"/>
        <pt x="856" y="60" on="0"/>
        <pt x="795" y="10" on="1"/>
        <pt x="751" y="-25" on="0"/>
      </contour>
      <contour>
        <pt x="752" y="478" on="1"/>
        <pt x="753" y="480" on="0"/>
        <pt x="756" y="487" on="0"/>
        <pt x="757" y="489" on="1"/>
        <pt x="632" y="318" on="0"/>
        <pt x="556" y="225" on="1"/>
        <pt x="661" y="208" on="1"/>
        <pt x="689" y="317" on="0"/>
      </contour>
    </TTGlyph>
    <TTGlyph name="AE" xMin="-1" yMin="-83" xMax="854" yMax="549">
      <contour>
        <pt x="737" y="411" on="1"/>
        <pt x="737" y="478" on="0"/>
        <pt x="780" y="515" on="1"/>
        <pt x="720" y="513" on="0"/>
        <pt x="602" y="495" on="0"/>
        <pt x="579" y="482" on="1"/>
        <pt x="563" y="473" on="0"/>
        <pt x="467" y="305" on="0"/>
        <pt x="437" y="244" on="1"/>
        <pt x="521" y="243" on="0"/>
        <pt x="645" y="243" on="0"/>
        <pt x="659" y="239" on="0"/>
        <pt x="654" y="224" on="0"/>
        <pt x="607" y="221" on="1"/>
        <pt x="604" y="221" on="0"/>
        <pt x="602" y="221" on="1"/>
        <pt x="591" y="220" on="1"/>
        <pt x="494" y="215" on="0"/>
        <pt x="425" y="215" on="1"/>
        <pt x="406" y="162" on="0"/>
        <pt x="406" y="94" on="0"/>
        <pt x="408" y="76" on="1"/>
        <pt x="413" y="41" on="0"/>
        <pt x="468" y="-3" on="0"/>
        <pt x="516" y="-3" on="1"/>
        <pt x="603" y="-3" on="0"/>
        <pt x="788" y="77" on="0"/>
        <pt x="842" y="140" on="1"/>
        <pt x="849" y="148" on="0"/>
        <pt x="853" y="137" on="1"/>
        <pt x="854" y="134" on="0"/>
        <pt x="854" y="127" on="0"/>
        <pt x="851" y="124" on="1"/>
        <pt x="799" y="61" on="0"/>
        <pt x="605" y="-36" on="0"/>
        <pt x="487" y="-36" on="1"/>
        <pt x="439" y="-36" on="0"/>
        <pt x="408" y="-20" on="1"/>
        <pt x="351" y="9" on="0"/>
        <pt x="351" y="86" on="1"/>
        <pt x="351" y="142" on="0"/>
        <pt x="379" y="214" on="1"/>
        <pt x="311" y="214" on="0"/>
        <pt x="296" y="213" on="1"/>
        <pt x="125" y="213" on="1"/>
        <pt x="89" y="154" on="0"/>
        <pt x="31" y="-19" on="0"/>
        <pt x="27" y="-75" on="1"/>
        <pt x="23" y="-83" on="0"/>
        <pt x="22" y="-83" on="1"/>
        <pt x="17" y="-83" on="0"/>
        <pt x="10" y="-74" on="1"/>
        <pt x="0" y="-61" on="0"/>
        <pt x="0" y="4" on="0"/>
        <pt x="53" y="160" on="0"/>
        <pt x="84" y="209" on="1"/>
        <pt x="65" y="209" on="1"/>
        <pt x="45" y="209" on="0"/>
        <pt x="44" y="238" on="0"/>
        <pt x="65" y="243" on="1"/>
        <pt x="76" y="245" on="1"/>
        <pt x="88" y="245" on="0"/>
        <pt x="106" y="248" on="1"/>
        <pt x="156" y="324" on="0"/>
        <pt x="260" y="428" on="1"/>
        <pt x="311" y="479" on="0"/>
        <pt x="423" y="549" on="0"/>
        <pt x="465" y="549" on="1"/>
        <pt x="479" y="549" on="0"/>
        <pt x="521" y="537" on="0"/>
        <pt x="525" y="525" on="1"/>
        <pt x="573" y="538" on="0"/>
        <pt x="750" y="538" on="0"/>
        <pt x="805" y="534" on="1"/>
        <pt x="810" y="535" on="0"/>
        <pt x="811" y="535" on="1"/>
        <pt x="827" y="538" on="0"/>
        <pt x="845" y="522" on="0"/>
        <pt x="834" y="509" on="1"/>
        <pt x="833" y="508" on="0"/>
        <pt x="803" y="486" on="0"/>
        <pt x="794" y="477" on="1"/>
        <pt x="753" y="438" on="0"/>
        <pt x="753" y="408" on="1"/>
        <pt x="753" y="396" on="0"/>
        <pt x="764" y="377" on="0"/>
        <pt x="751" y="374" on="0"/>
        <pt x="744" y="382" on="1"/>
        <pt x="737" y="387" on="0"/>
      </contour>
      <contour>
        <pt x="190" y="245" on="1"/>
        <pt x="391" y="244" on="1"/>
        <pt x="402" y="268" on="0"/>
        <pt x="458" y="365" on="0"/>
        <pt x="474" y="404" on="1"/>
        <pt x="492" y="449" on="0"/>
        <pt x="492" y="520" on="0"/>
        <pt x="470" y="533" on="1"/>
        <pt x="307" y="487" on="0"/>
        <pt x="141" y="245" on="1"/>
      </contour>
    </TTGlyph>
    <TTGlyph name="AEacute" xMin="-1" yMin="-83" xMax="854" yMax="729">
      <contour>
        <pt x="737" y="411" on="1"/>
        <pt x="737" y="478" on="0"/>
        <pt x="780" y="515" on="1"/>
        <pt x="720" y="513" on="0"/>
        <pt x="602" y="495" on="0"/>
        <pt x="579" y="482" on="1"/>
        <pt x="563" y="473" on="0"/>
        <pt x="467" y="305" on="0"/>
        <pt x="437" y="244" on="1"/>
        <pt x="521" y="243" on="0"/>
        <pt x="645" y="243" on="0"/>
        <pt x="659" y="239" on="0"/>
        <pt x="654" y="224" on="0"/>
        <pt x="607" y="221" on="1"/>
        <pt x="604" y="221" on="0"/>
        <pt x="602" y="221" on="1"/>
        <pt x="591" y="220" on="1"/>
        <pt x="494" y="215" on="0"/>
        <pt x="425" y="215" on="1"/>
        <pt x="406" y="162" on="0"/>
        <pt x="406" y="94" on="0"/>
        <pt x="408" y="76" on="1"/>
        <pt x="413" y="41" on="0"/>
        <pt x="468" y="-3" on="0"/>
        <pt x="516" y="-3" on="1"/>
        <pt x="603" y="-3" on="0"/>
        <pt x="788" y="77" on="0"/>
        <pt x="842" y="140" on="1"/>
        <pt x="849" y="148" on="0"/>
        <pt x="853" y="137" on="1"/>
        <pt x="854" y="134" on="0"/>
        <pt x="854" y="127" on="0"/>
        <pt x="851" y="124" on="1"/>
        <pt x="799" y="61" on="0"/>
        <pt x="605" y="-36" on="0"/>
        <pt x="487" y="-36" on="1"/>
        <pt x="439" y="-36" on="0"/>
        <pt x="408" y="-20" on="1"/>
        <pt x="351" y="9" on="0"/>
        <pt x="351" y="86" on="1"/>
        <pt x="351" y="142" on="0"/>
        <pt x="379" y="214" on="1"/>
        <pt x="311" y="214" on="0"/>
        <pt x="296" y="213" on="1"/>
        <pt x="125" y="213" on="1"/>
        <pt x="89" y="154" on="0"/>
        <pt x="31" y="-19" on="0"/>
        <pt x="27" y="-75" on="1"/>
        <pt x="23" y="-83" on="0"/>
        <pt x="22" y="-83" on="1"/>
        <pt x="17" y="-83" on="0"/>
        <pt x="10" y="-74" on="1"/>
        <pt x="0" y="-61" on="0"/>
        <pt x="0" y="4" on="0"/>
        <pt x="53" y="160" on="0"/>
        <pt x="84" y="209" on="1"/>
        <pt x="65" y="209" on="1"/>
        <pt x="44" y="208" on="0"/>
        <pt x="44" y="224" on="1"/>
        <pt x="44" y="243" on="0"/>
        <pt x="76" y="245" on="1"/>
        <pt x="88" y="245" on="0"/>
        <pt x="106" y="248" on="1"/>
        <pt x="156" y="324" on="0"/>
        <pt x="260" y="428" on="1"/>
        <pt x="311" y="479" on="0"/>
        <pt x="423" y="549" on="0"/>
        <pt x="465" y="549" on="1"/>
        <pt x="479" y="549" on="0"/>
        <pt x="521" y="537" on="0"/>
        <pt x="525" y="525" on="1"/>
        <pt x="573" y="538" on="0"/>
        <pt x="750" y="538" on="0"/>
        <pt x="805" y="534" on="1"/>
        <pt x="810" y="535" on="0"/>
        <pt x="811" y="535" on="1"/>
        <pt x="827" y="538" on="0"/>
        <pt x="845" y="522" on="0"/>
        <pt x="834" y="509" on="1"/>
        <pt x="833" y="508" on="0"/>
        <pt x="803" y="486" on="0"/>
        <pt x="794" y="477" on="1"/>
        <pt x="753" y="438" on="0"/>
        <pt x="753" y="408" on="1"/>
        <pt x="753" y="396" on="0"/>
        <pt x="764" y="377" on="0"/>
        <pt x="751" y="374" on="0"/>
        <pt x="744" y="382" on="1"/>
        <pt x="737" y="387" on="0"/>
      </contour>
      <contour>
        <pt x="470" y="533" on="1"/>
        <pt x="307" y="487" on="0"/>
        <pt x="141" y="245" on="1"/>
        <pt x="190" y="245" on="1"/>
        <pt x="246" y="244" on="0"/>
        <pt x="391" y="244" on="1"/>
        <pt x="402" y="268" on="0"/>
        <pt x="458" y="365" on="0"/>
        <pt x="474" y="404" on="1"/>
        <pt x="492" y="449" on="0"/>
        <pt x="492" y="520" on="0"/>
      </contour>
      <contour>
        <pt x="607" y="729" on="1"/>
        <pt x="626" y="723" on="1"/>
        <pt x="638" y="716" on="0"/>
        <pt x="638" y="705" on="1"/>
        <pt x="638" y="696" on="0"/>
        <pt x="631" y="689" on="1"/>
        <pt x="615" y="676" on="0"/>
        <pt x="484" y="614" on="0"/>
        <pt x="464" y="613" on="0"/>
        <pt x="464" y="620" on="0"/>
        <pt x="468" y="625" on="0"/>
        <pt x="490" y="641" on="0"/>
        <pt x="517" y="659" on="0"/>
        <pt x="530" y="669" on="0"/>
        <pt x="548" y="682" on="1"/>
        <pt x="582" y="707" on="0"/>
        <pt x="597" y="727" on="1"/>
        <pt x="603" y="729" on="0"/>
      </contour>
    </TTGlyph>
    <TTGlyph name="Aacute" xMin="11" yMin="-95" xMax="1025" yMax="772">
      <contour>
        <pt x="697" y="-25" on="1"/>
        <pt x="666" y="-25" on="0"/>
        <pt x="638" y="30" on="0"/>
        <pt x="638" y="115" on="0"/>
        <pt x="656" y="189" on="1"/>
        <pt x="621" y="192" on="0"/>
        <pt x="537" y="203" on="1"/>
        <pt x="398" y="31" on="0"/>
        <pt x="306" y="-36" on="1"/>
        <pt x="227" y="-95" on="0"/>
        <pt x="142" y="-95" on="1"/>
        <pt x="88" y="-95" on="0"/>
        <pt x="11" y="-41" on="0"/>
        <pt x="11" y="12" on="1"/>
        <pt x="11" y="22" on="0"/>
        <pt x="21" y="39" on="0"/>
        <pt x="31" y="31" on="0"/>
        <pt x="31" y="12" on="1"/>
        <pt x="31" y="-22" on="0"/>
        <pt x="84" y="-56" on="0"/>
        <pt x="122" y="-56" on="1"/>
        <pt x="204" y="-56" on="0"/>
        <pt x="363" y="51" on="0"/>
        <pt x="500" y="207" on="1"/>
        <pt x="353" y="225" on="0"/>
        <pt x="306" y="225" on="1"/>
        <pt x="179" y="225" on="0"/>
        <pt x="149" y="142" on="1"/>
        <pt x="145" y="131" on="0"/>
        <pt x="145" y="112" on="0"/>
        <pt x="153" y="97" on="0"/>
        <pt x="148" y="88" on="0"/>
        <pt x="136" y="89" on="0"/>
        <pt x="132" y="95" on="1"/>
        <pt x="121" y="114" on="0"/>
        <pt x="121" y="132" on="1"/>
        <pt x="121" y="194" on="0"/>
        <pt x="166" y="253" on="0"/>
        <pt x="196" y="261" on="1"/>
        <pt x="232" y="271" on="0"/>
        <pt x="328" y="271" on="0"/>
        <pt x="522" y="233" on="1"/>
        <pt x="576" y="295" on="0"/>
        <pt x="795" y="569" on="1"/>
        <pt x="798" y="573" on="0"/>
        <pt x="802" y="575" on="1"/>
        <pt x="826" y="589" on="0"/>
        <pt x="854" y="589" on="1"/>
        <pt x="864" y="589" on="0"/>
        <pt x="864" y="579" on="1"/>
        <pt x="864" y="578" on="0"/>
        <pt x="862" y="575" on="0"/>
        <pt x="860" y="570" on="0"/>
        <pt x="859" y="568" on="1"/>
        <pt x="763" y="409" on="0"/>
        <pt x="710" y="210" on="1"/>
        <pt x="707" y="203" on="1"/>
        <pt x="732" y="202" on="1"/>
        <pt x="740" y="201" on="0"/>
        <pt x="781" y="201" on="0"/>
        <pt x="827" y="220" on="0"/>
        <pt x="840" y="242" on="0"/>
        <pt x="850" y="230" on="0"/>
        <pt x="846" y="223" on="1"/>
        <pt x="835" y="203" on="0"/>
        <pt x="807" y="194" on="1"/>
        <pt x="783" y="184" on="0"/>
        <pt x="736" y="184" on="0"/>
        <pt x="729" y="184" on="1"/>
        <pt x="702" y="185" on="1"/>
        <pt x="683" y="98" on="0"/>
        <pt x="683" y="-5" on="0"/>
        <pt x="711" y="-5" on="1"/>
        <pt x="738" y="-5" on="0"/>
        <pt x="852" y="81" on="0"/>
        <pt x="902" y="149" on="1"/>
        <pt x="905" y="153" on="0"/>
        <pt x="917" y="148" on="0"/>
        <pt x="912" y="134" on="0"/>
        <pt x="898" y="116" on="1"/>
        <pt x="856" y="60" on="0"/>
        <pt x="795" y="10" on="1"/>
        <pt x="751" y="-25" on="0"/>
      </contour>
      <contour>
        <pt x="752" y="478" on="1"/>
        <pt x="753" y="480" on="0"/>
        <pt x="756" y="487" on="0"/>
        <pt x="757" y="489" on="1"/>
        <pt x="632" y="318" on="0"/>
        <pt x="556" y="225" on="1"/>
        <pt x="661" y="208" on="1"/>
        <pt x="689" y="317" on="0"/>
      </contour>
      <contour>
        <pt x="1003" y="720" on="0"/>
        <pt x="872" y="658" on="0"/>
        <pt x="850" y="657" on="0"/>
        <pt x="850" y="663" on="0"/>
        <pt x="855" y="669" on="0"/>
        <pt x="866" y="676" on="1"/>
        <pt x="896" y="695" on="0"/>
        <pt x="919" y="715" on="0"/>
        <pt x="936" y="726" on="1"/>
        <pt x="972" y="752" on="0"/>
        <pt x="985" y="770" on="1"/>
        <pt x="993" y="772" on="0"/>
        <pt x="1000" y="772" on="0"/>
        <pt x="1014" y="767" on="1"/>
        <pt x="1025" y="760" on="0"/>
        <pt x="1025" y="748" on="1"/>
        <pt x="1025" y="739" on="0"/>
        <pt x="1019" y="733" on="1"/>
      </contour>
    </TTGlyph>
    <TTGlyph name="Abreve" xMin="11" yMin="-95" xMax="1037" yMax="777">
      <contour>
        <pt x="697" y="-25" on="1"/>
        <pt x="666" y="-25" on="0"/>
        <pt x="638" y="30" on="0"/>
        <pt x="638" y="115" on="0"/>
        <pt x="656" y="189" on="1"/>
        <pt x="621" y="192" on="0"/>
        <pt x="537" y="203" on="1"/>
        <pt x="398" y="31" on="0"/>
        <pt x="306" y="-36" on="1"/>
        <pt x="227" y="-95" on="0"/>
        <pt x="142" y="-95" on="1"/>
        <pt x="88" y="-95" on="0"/>
        <pt x="11" y="-41" on="0"/>
        <pt x="11" y="12" on="1"/>
        <pt x="11" y="22" on="0"/>
        <pt x="21" y="39" on="0"/>
        <pt x="31" y="31" on="0"/>
        <pt x="31" y="12" on="1"/>
        <pt x="31" y="-22" on="0"/>
        <pt x="84" y="-56" on="0"/>
        <pt x="122" y="-56" on="1"/>
        <pt x="204" y="-56" on="0"/>
        <pt x="363" y="51" on="0"/>
        <pt x="500" y="207" on="1"/>
        <pt x="353" y="225" on="0"/>
        <pt x="306" y="225" on="1"/>
        <pt x="179" y="225" on="0"/>
        <pt x="149" y="142" on="1"/>
        <pt x="145" y="131" on="0"/>
        <pt x="145" y="112" on="0"/>
        <pt x="153" y="97" on="0"/>
        <pt x="148" y="88" on="0"/>
        <pt x="136" y="89" on="0"/>
        <pt x="132" y="95" on="1"/>
        <pt x="121" y="114" on="0"/>
        <pt x="121" y="132" on="1"/>
        <pt x="121" y="194" on="0"/>
        <pt x="166" y="253" on="0"/>
        <pt x="196" y="261" on="1"/>
        <pt x="232" y="271" on="0"/>
        <pt x="328" y="271" on="0"/>
        <pt x="522" y="233" on="1"/>
        <pt x="576" y="295" on="0"/>
        <pt x="795" y="569" on="1"/>
        <pt x="798" y="573" on="0"/>
        <pt x="802" y="575" on="1"/>
        <pt x="826" y="589" on="0"/>
        <pt x="854" y="589" on="1"/>
        <pt x="864" y="589" on="0"/>
        <pt x="864" y="579" on="1"/>
        <pt x="864" y="578" on="0"/>
        <pt x="862" y="575" on="0"/>
        <pt x="860" y="570" on="0"/>
        <pt x="859" y="568" on="1"/>
        <pt x="763" y="409" on="0"/>
        <pt x="710" y="210" on="1"/>
        <pt x="707" y="203" on="1"/>
        <pt x="732" y="202" on="1"/>
        <pt x="740" y="201" on="0"/>
        <pt x="781" y="201" on="0"/>
        <pt x="827" y="220" on="0"/>
        <pt x="840" y="242" on="0"/>
        <pt x="850" y="230" on="0"/>
        <pt x="846" y="223" on="1"/>
        <pt x="835" y="203" on="0"/>
        <pt x="807" y="194" on="1"/>
        <pt x="783" y="184" on="0"/>
        <pt x="736" y="184" on="0"/>
        <pt x="729" y="184" on="1"/>
        <pt x="702" y="185" on="1"/>
        <pt x="683" y="98" on="0"/>
        <pt x="683" y="-5" on="0"/>
        <pt x="711" y="-5" on="1"/>
        <pt x="738" y="-5" on="0"/>
        <pt x="852" y="81" on="0"/>
        <pt x="902" y="149" on="1"/>
        <pt x="905" y="153" on="0"/>
        <pt x="917" y="148" on="0"/>
        <pt x="912" y="134" on="0"/>
        <pt x="898" y="116" on="1"/>
        <pt x="856" y="60" on="0"/>
        <pt x="795" y="10" on="1"/>
        <pt x="751" y="-25" on="0"/>
      </contour>
      <contour>
        <pt x="752" y="478" on="1"/>
        <pt x="753" y="480" on="0"/>
        <pt x="756" y="487" on="0"/>
        <pt x="757" y="489" on="1"/>
        <pt x="632" y="318" on="0"/>
        <pt x="556" y="225" on="1"/>
        <pt x="661" y="208" on="1"/>
        <pt x="689" y="317" on="0"/>
      </contour>
      <contour>
        <pt x="947" y="657" on="1"/>
        <pt x="909" y="639" on="0"/>
        <pt x="850" y="639" on="0"/>
        <pt x="826" y="650" on="1"/>
        <pt x="778" y="672" on="0"/>
        <pt x="778" y="730" on="1"/>
        <pt x="778" y="766" on="0"/>
        <pt x="800" y="776" on="0"/>
        <pt x="815" y="766" on="0"/>
        <pt x="815" y="755" on="1"/>
        <pt x="815" y="702" on="0"/>
        <pt x="856" y="679" on="1"/>
        <pt x="877" y="667" on="0"/>
        <pt x="923" y="667" on="0"/>
        <pt x="950" y="680" on="1"/>
        <pt x="1002" y="705" on="0"/>
        <pt x="1024" y="773" on="1"/>
        <pt x="1025" y="777" on="0"/>
        <pt x="1028" y="777" on="0"/>
        <pt x="1031" y="774" on="1"/>
        <pt x="1037" y="772" on="0"/>
        <pt x="1037" y="763" on="1"/>
        <pt x="1020" y="691" on="0"/>
      </contour>
    </TTGlyph>
    <TTGlyph name="Acircumflex" xMin="11" yMin="-95" xMax="976" yMax="743">
      <contour>
        <pt x="704" y="185" on="1"/>
        <pt x="683" y="106" on="0"/>
        <pt x="683" y="-5" on="0"/>
        <pt x="738" y="-5" on="0"/>
        <pt x="791" y="35" on="1"/>
        <pt x="852" y="81" on="0"/>
        <pt x="902" y="149" on="1"/>
        <pt x="905" y="153" on="0"/>
        <pt x="917" y="148" on="0"/>
        <pt x="908" y="123" on="0"/>
        <pt x="856" y="67" on="1"/>
        <pt x="827" y="36" on="0"/>
        <pt x="751" y="-25" on="0"/>
        <pt x="697" y="-25" on="1"/>
        <pt x="666" y="-25" on="0"/>
        <pt x="638" y="31" on="0"/>
        <pt x="638" y="115" on="0"/>
        <pt x="656" y="189" on="1"/>
        <pt x="581" y="196" on="0"/>
        <pt x="537" y="202" on="1"/>
        <pt x="397" y="30" on="0"/>
        <pt x="306" y="-36" on="1"/>
        <pt x="227" y="-95" on="0"/>
        <pt x="142" y="-95" on="1"/>
        <pt x="88" y="-95" on="0"/>
        <pt x="11" y="-41" on="0"/>
        <pt x="11" y="12" on="1"/>
        <pt x="11" y="22" on="0"/>
        <pt x="21" y="39" on="0"/>
        <pt x="31" y="31" on="0"/>
        <pt x="31" y="12" on="1"/>
        <pt x="31" y="-22" on="0"/>
        <pt x="84" y="-56" on="0"/>
        <pt x="122" y="-56" on="1"/>
        <pt x="204" y="-56" on="0"/>
        <pt x="363" y="51" on="0"/>
        <pt x="500" y="207" on="1"/>
        <pt x="409" y="218" on="0"/>
        <pt x="318" y="225" on="0"/>
        <pt x="306" y="225" on="1"/>
        <pt x="179" y="225" on="0"/>
        <pt x="149" y="142" on="1"/>
        <pt x="145" y="131" on="0"/>
        <pt x="145" y="112" on="0"/>
        <pt x="153" y="97" on="0"/>
        <pt x="148" y="88" on="0"/>
        <pt x="136" y="89" on="0"/>
        <pt x="132" y="95" on="1"/>
        <pt x="121" y="114" on="0"/>
        <pt x="121" y="150" on="0"/>
        <pt x="122" y="157" on="1"/>
        <pt x="130" y="243" on="0"/>
        <pt x="199" y="262" on="1"/>
        <pt x="232" y="271" on="0"/>
        <pt x="275" y="271" on="1"/>
        <pt x="328" y="271" on="0"/>
        <pt x="522" y="233" on="1"/>
        <pt x="576" y="295" on="0"/>
        <pt x="795" y="569" on="1"/>
        <pt x="798" y="573" on="0"/>
        <pt x="802" y="575" on="1"/>
        <pt x="826" y="589" on="0"/>
        <pt x="854" y="589" on="1"/>
        <pt x="864" y="589" on="0"/>
        <pt x="864" y="579" on="1"/>
        <pt x="864" y="578" on="0"/>
        <pt x="862" y="575" on="0"/>
        <pt x="860" y="570" on="0"/>
        <pt x="859" y="568" on="1"/>
        <pt x="763" y="409" on="0"/>
        <pt x="710" y="210" on="1"/>
        <pt x="707" y="203" on="1"/>
        <pt x="712" y="203" on="0"/>
        <pt x="728" y="202" on="0"/>
        <pt x="740" y="201" on="0"/>
        <pt x="781" y="201" on="0"/>
        <pt x="827" y="220" on="0"/>
        <pt x="839" y="241" on="0"/>
        <pt x="851" y="231" on="0"/>
        <pt x="846" y="223" on="1"/>
        <pt x="835" y="203" on="0"/>
        <pt x="807" y="194" on="1"/>
        <pt x="783" y="184" on="0"/>
        <pt x="736" y="184" on="0"/>
        <pt x="729" y="184" on="1"/>
      </contour>
      <contour>
        <pt x="757" y="489" on="1"/>
        <pt x="632" y="318" on="0"/>
        <pt x="556" y="225" on="1"/>
        <pt x="661" y="208" on="1"/>
        <pt x="689" y="317" on="0"/>
        <pt x="752" y="478" on="1"/>
      </contour>
      <contour>
        <pt x="904" y="738" on="0"/>
        <pt x="956" y="675" on="0"/>
        <pt x="976" y="644" on="0"/>
        <pt x="976" y="631" on="0"/>
        <pt x="967" y="631" on="0"/>
        <pt x="961" y="636" on="1"/>
        <pt x="885" y="702" on="0"/>
        <pt x="879" y="708" on="1"/>
        <pt x="860" y="697" on="0"/>
        <pt x="800" y="648" on="0"/>
        <pt x="789" y="640" on="1"/>
        <pt x="770" y="630" on="0"/>
        <pt x="770" y="637" on="1"/>
        <pt x="770" y="647" on="0"/>
        <pt x="782" y="657" on="0"/>
        <pt x="810" y="682" on="1"/>
        <pt x="877" y="743" on="0"/>
        <pt x="891" y="743" on="1"/>
      </contour>
    </TTGlyph>
    <TTGlyph name="Adieresis" xMin="11" yMin="-95" xMax="974" yMax="715">
      <contour>
        <pt x="704" y="185" on="1"/>
        <pt x="683" y="106" on="0"/>
        <pt x="683" y="-5" on="0"/>
        <pt x="738" y="-5" on="0"/>
        <pt x="791" y="35" on="1"/>
        <pt x="852" y="81" on="0"/>
        <pt x="902" y="149" on="1"/>
        <pt x="905" y="153" on="0"/>
        <pt x="917" y="148" on="0"/>
        <pt x="908" y="123" on="0"/>
        <pt x="856" y="67" on="1"/>
        <pt x="827" y="36" on="0"/>
        <pt x="751" y="-25" on="0"/>
        <pt x="697" y="-25" on="1"/>
        <pt x="666" y="-25" on="0"/>
        <pt x="638" y="31" on="0"/>
        <pt x="638" y="115" on="0"/>
        <pt x="656" y="189" on="1"/>
        <pt x="581" y="196" on="0"/>
        <pt x="537" y="202" on="1"/>
        <pt x="397" y="30" on="0"/>
        <pt x="306" y="-36" on="1"/>
        <pt x="227" y="-95" on="0"/>
        <pt x="142" y="-95" on="1"/>
        <pt x="88" y="-95" on="0"/>
        <pt x="11" y="-41" on="0"/>
        <pt x="11" y="12" on="1"/>
        <pt x="11" y="22" on="0"/>
        <pt x="21" y="39" on="0"/>
        <pt x="31" y="31" on="0"/>
        <pt x="31" y="12" on="1"/>
        <pt x="31" y="-22" on="0"/>
        <pt x="84" y="-56" on="0"/>
        <pt x="122" y="-56" on="1"/>
        <pt x="204" y="-56" on="0"/>
        <pt x="363" y="51" on="0"/>
        <pt x="500" y="207" on="1"/>
        <pt x="409" y="218" on="0"/>
        <pt x="318" y="225" on="0"/>
        <pt x="306" y="225" on="1"/>
        <pt x="179" y="225" on="0"/>
        <pt x="149" y="142" on="1"/>
        <pt x="145" y="131" on="0"/>
        <pt x="145" y="112" on="0"/>
        <pt x="153" y="97" on="0"/>
        <pt x="148" y="88" on="0"/>
        <pt x="136" y="89" on="0"/>
        <pt x="132" y="95" on="1"/>
        <pt x="121" y="114" on="0"/>
        <pt x="121" y="150" on="0"/>
        <pt x="122" y="157" on="1"/>
        <pt x="130" y="243" on="0"/>
        <pt x="199" y="262" on="1"/>
        <pt x="232" y="271" on="0"/>
        <pt x="275" y="271" on="1"/>
        <pt x="328" y="271" on="0"/>
        <pt x="522" y="233" on="1"/>
        <pt x="576" y="295" on="0"/>
        <pt x="795" y="569" on="1"/>
        <pt x="796" y="571" on="0"/>
        <pt x="796" y="572" on="1"/>
        <pt x="797" y="572" on="1"/>
        <pt x="825" y="589" on="0"/>
        <pt x="854" y="589" on="1"/>
        <pt x="864" y="589" on="0"/>
        <pt x="864" y="579" on="1"/>
        <pt x="864" y="578" on="0"/>
        <pt x="862" y="575" on="0"/>
        <pt x="860" y="570" on="0"/>
        <pt x="859" y="568" on="1"/>
        <pt x="763" y="409" on="0"/>
        <pt x="710" y="210" on="1"/>
        <pt x="707" y="203" on="1"/>
        <pt x="712" y="203" on="0"/>
        <pt x="728" y="202" on="0"/>
        <pt x="740" y="201" on="0"/>
        <pt x="781" y="201" on="0"/>
        <pt x="827" y="220" on="0"/>
        <pt x="839" y="241" on="0"/>
        <pt x="851" y="231" on="0"/>
        <pt x="846" y="223" on="1"/>
        <pt x="835" y="203" on="0"/>
        <pt x="807" y="194" on="1"/>
        <pt x="783" y="184" on="0"/>
        <pt x="736" y="184" on="0"/>
        <pt x="729" y="184" on="1"/>
      </contour>
      <contour>
        <pt x="757" y="489" on="1"/>
        <pt x="632" y="318" on="0"/>
        <pt x="556" y="225" on="1"/>
        <pt x="661" y="208" on="1"/>
        <pt x="689" y="317" on="0"/>
        <pt x="752" y="478" on="1"/>
      </contour>
      <contour>
        <pt x="815" y="714" on="1"/>
        <pt x="809" y="687" on="1"/>
        <pt x="809" y="679" on="0"/>
        <pt x="788" y="648" on="0"/>
        <pt x="782" y="648" on="1"/>
        <pt x="749" y="648" on="0"/>
        <pt x="749" y="664" on="1"/>
        <pt x="749" y="666" on="0"/>
        <pt x="805" y="711" on="0"/>
        <pt x="812" y="715" on="0"/>
        <pt x="815" y="715" on="0"/>
      </contour>
      <contour>
        <pt x="973" y="713" on="1"/>
        <pt x="967" y="687" on="1"/>
        <pt x="967" y="679" on="0"/>
        <pt x="947" y="648" on="0"/>
        <pt x="941" y="648" on="1"/>
        <pt x="907" y="648" on="0"/>
        <pt x="907" y="664" on="1"/>
        <pt x="907" y="666" on="0"/>
        <pt x="968" y="714" on="0"/>
        <pt x="973" y="714" on="0"/>
      </contour>
    </TTGlyph>
    <TTGlyph name="Agrave" xMin="11" yMin="-95" xMax="934" yMax="759">
      <contour>
        <pt x="704" y="185" on="1"/>
        <pt x="683" y="106" on="0"/>
        <pt x="683" y="-5" on="0"/>
        <pt x="738" y="-5" on="0"/>
        <pt x="791" y="35" on="1"/>
        <pt x="852" y="81" on="0"/>
        <pt x="902" y="149" on="1"/>
        <pt x="905" y="153" on="0"/>
        <pt x="917" y="148" on="0"/>
        <pt x="908" y="123" on="0"/>
        <pt x="856" y="67" on="1"/>
        <pt x="827" y="36" on="0"/>
        <pt x="751" y="-25" on="0"/>
        <pt x="697" y="-25" on="1"/>
        <pt x="666" y="-25" on="0"/>
        <pt x="638" y="31" on="0"/>
        <pt x="638" y="115" on="0"/>
        <pt x="656" y="189" on="1"/>
        <pt x="581" y="196" on="0"/>
        <pt x="537" y="202" on="1"/>
        <pt x="397" y="30" on="0"/>
        <pt x="306" y="-36" on="1"/>
        <pt x="227" y="-95" on="0"/>
        <pt x="142" y="-95" on="1"/>
        <pt x="88" y="-95" on="0"/>
        <pt x="11" y="-41" on="0"/>
        <pt x="11" y="12" on="1"/>
        <pt x="11" y="22" on="0"/>
        <pt x="21" y="39" on="0"/>
        <pt x="31" y="31" on="0"/>
        <pt x="31" y="12" on="1"/>
        <pt x="31" y="-22" on="0"/>
        <pt x="84" y="-56" on="0"/>
        <pt x="122" y="-56" on="1"/>
        <pt x="204" y="-56" on="0"/>
        <pt x="363" y="51" on="0"/>
        <pt x="500" y="207" on="1"/>
        <pt x="409" y="218" on="0"/>
        <pt x="318" y="225" on="0"/>
        <pt x="306" y="225" on="1"/>
        <pt x="179" y="225" on="0"/>
        <pt x="149" y="142" on="1"/>
        <pt x="145" y="131" on="0"/>
        <pt x="145" y="112" on="0"/>
        <pt x="153" y="97" on="0"/>
        <pt x="148" y="88" on="0"/>
        <pt x="136" y="89" on="0"/>
        <pt x="132" y="95" on="1"/>
        <pt x="121" y="114" on="0"/>
        <pt x="121" y="150" on="0"/>
        <pt x="122" y="157" on="1"/>
        <pt x="130" y="243" on="0"/>
        <pt x="199" y="262" on="1"/>
        <pt x="232" y="271" on="0"/>
        <pt x="275" y="271" on="1"/>
        <pt x="328" y="271" on="0"/>
        <pt x="522" y="233" on="1"/>
        <pt x="576" y="295" on="0"/>
        <pt x="795" y="569" on="1"/>
        <pt x="798" y="573" on="0"/>
        <pt x="802" y="575" on="1"/>
        <pt x="826" y="589" on="0"/>
        <pt x="854" y="589" on="1"/>
        <pt x="864" y="589" on="0"/>
        <pt x="864" y="579" on="1"/>
        <pt x="864" y="578" on="0"/>
        <pt x="862" y="575" on="0"/>
        <pt x="860" y="570" on="0"/>
        <pt x="859" y="568" on="1"/>
        <pt x="763" y="409" on="0"/>
        <pt x="710" y="210" on="1"/>
        <pt x="707" y="203" on="1"/>
        <pt x="712" y="203" on="0"/>
        <pt x="728" y="202" on="0"/>
        <pt x="740" y="201" on="0"/>
        <pt x="781" y="201" on="0"/>
        <pt x="827" y="220" on="0"/>
        <pt x="839" y="241" on="0"/>
        <pt x="851" y="231" on="0"/>
        <pt x="846" y="223" on="1"/>
        <pt x="835" y="203" on="0"/>
        <pt x="807" y="194" on="1"/>
        <pt x="783" y="184" on="0"/>
        <pt x="736" y="184" on="0"/>
        <pt x="729" y="184" on="1"/>
      </contour>
      <contour>
        <pt x="757" y="489" on="1"/>
        <pt x="632" y="318" on="0"/>
        <pt x="556" y="225" on="1"/>
        <pt x="661" y="208" on="1"/>
        <pt x="689" y="317" on="0"/>
        <pt x="752" y="478" on="1"/>
      </contour>
      <contour>
        <pt x="929" y="658" on="1"/>
        <pt x="934" y="656" on="0"/>
        <pt x="934" y="647" on="0"/>
        <pt x="915" y="647" on="0"/>
        <pt x="826" y="688" on="0"/>
        <pt x="805" y="699" on="1"/>
        <pt x="756" y="725" on="0"/>
        <pt x="756" y="743" on="1"/>
        <pt x="756" y="752" on="0"/>
        <pt x="770" y="757" on="1"/>
        <pt x="773" y="758" on="0"/>
        <pt x="777" y="758" on="1"/>
        <pt x="794" y="758" on="0"/>
        <pt x="861" y="708" on="0"/>
      </contour>
    </TTGlyph>
    <TTGlyph name="Amacron" xMin="11" yMin="-95" xMax="984" yMax="692">
      <contour>
        <pt x="697" y="-25" on="1"/>
        <pt x="666" y="-25" on="0"/>
        <pt x="638" y="30" on="0"/>
        <pt x="638" y="115" on="0"/>
        <pt x="656" y="189" on="1"/>
        <pt x="621" y="192" on="0"/>
        <pt x="537" y="203" on="1"/>
        <pt x="398" y="31" on="0"/>
        <pt x="306" y="-36" on="1"/>
        <pt x="227" y="-95" on="0"/>
        <pt x="142" y="-95" on="1"/>
        <pt x="88" y="-95" on="0"/>
        <pt x="11" y="-41" on="0"/>
        <pt x="11" y="12" on="1"/>
        <pt x="11" y="22" on="0"/>
        <pt x="21" y="39" on="0"/>
        <pt x="31" y="31" on="0"/>
        <pt x="31" y="12" on="1"/>
        <pt x="31" y="-22" on="0"/>
        <pt x="84" y="-56" on="0"/>
        <pt x="122" y="-56" on="1"/>
        <pt x="204" y="-56" on="0"/>
        <pt x="363" y="51" on="0"/>
        <pt x="500" y="207" on="1"/>
        <pt x="353" y="225" on="0"/>
        <pt x="306" y="225" on="1"/>
        <pt x="179" y="225" on="0"/>
        <pt x="149" y="142" on="1"/>
        <pt x="145" y="131" on="0"/>
        <pt x="145" y="112" on="0"/>
        <pt x="153" y="97" on="0"/>
        <pt x="148" y="88" on="0"/>
        <pt x="136" y="89" on="0"/>
        <pt x="132" y="95" on="1"/>
        <pt x="121" y="114" on="0"/>
        <pt x="121" y="132" on="1"/>
        <pt x="121" y="194" on="0"/>
        <pt x="166" y="253" on="0"/>
        <pt x="196" y="261" on="1"/>
        <pt x="232" y="271" on="0"/>
        <pt x="328" y="271" on="0"/>
        <pt x="522" y="233" on="1"/>
        <pt x="576" y="295" on="0"/>
        <pt x="796" y="570" on="0"/>
        <pt x="796" y="572" on="1"/>
        <pt x="797" y="572" on="1"/>
        <pt x="798" y="573" on="0"/>
        <pt x="802" y="575" on="1"/>
        <pt x="826" y="589" on="0"/>
        <pt x="854" y="589" on="1"/>
        <pt x="864" y="589" on="0"/>
        <pt x="864" y="579" on="1"/>
        <pt x="864" y="578" on="0"/>
        <pt x="862" y="575" on="0"/>
        <pt x="860" y="570" on="0"/>
        <pt x="859" y="568" on="1"/>
        <pt x="763" y="409" on="0"/>
        <pt x="710" y="210" on="1"/>
        <pt x="707" y="203" on="1"/>
        <pt x="732" y="202" on="1"/>
        <pt x="740" y="201" on="0"/>
        <pt x="781" y="201" on="0"/>
        <pt x="827" y="220" on="0"/>
        <pt x="840" y="242" on="0"/>
        <pt x="850" y="230" on="0"/>
        <pt x="846" y="223" on="1"/>
        <pt x="835" y="203" on="0"/>
        <pt x="807" y="194" on="1"/>
        <pt x="783" y="184" on="0"/>
        <pt x="736" y="184" on="0"/>
        <pt x="729" y="184" on="1"/>
        <pt x="702" y="185" on="1"/>
        <pt x="683" y="98" on="0"/>
        <pt x="683" y="-5" on="0"/>
        <pt x="711" y="-5" on="1"/>
        <pt x="738" y="-5" on="0"/>
        <pt x="852" y="81" on="0"/>
        <pt x="902" y="149" on="1"/>
        <pt x="905" y="153" on="0"/>
        <pt x="917" y="148" on="0"/>
        <pt x="912" y="134" on="0"/>
        <pt x="898" y="116" on="1"/>
        <pt x="856" y="60" on="0"/>
        <pt x="795" y="10" on="1"/>
        <pt x="751" y="-25" on="0"/>
      </contour>
      <contour>
        <pt x="752" y="478" on="1"/>
        <pt x="753" y="480" on="0"/>
        <pt x="756" y="487" on="0"/>
        <pt x="757" y="489" on="1"/>
        <pt x="632" y="318" on="0"/>
        <pt x="556" y="225" on="1"/>
        <pt x="661" y="208" on="1"/>
        <pt x="689" y="317" on="0"/>
      </contour>
      <contour>
        <pt x="780" y="690" on="1"/>
        <pt x="929" y="692" on="1"/>
        <pt x="980" y="692" on="0"/>
        <pt x="984" y="679" on="1"/>
        <pt x="984" y="672" on="0"/>
        <pt x="972" y="669" on="1"/>
        <pt x="908" y="657" on="0"/>
        <pt x="771" y="654" on="1"/>
        <pt x="769" y="654" on="0"/>
        <pt x="767" y="654" on="1"/>
        <pt x="748" y="654" on="0"/>
        <pt x="748" y="664" on="1"/>
        <pt x="748" y="678" on="0"/>
        <pt x="770" y="688" on="1"/>
        <pt x="776" y="690" on="0"/>
      </contour>
    </TTGlyph>
    <TTGlyph name="Aogonek" xMin="11" yMin="-318" xMax="915" yMax="589">
      <contour>
        <pt x="681" y="-22" on="1"/>
        <pt x="637" y="-7" on="0"/>
        <pt x="637" y="75" on="1"/>
        <pt x="637" y="114" on="0"/>
        <pt x="656" y="189" on="1"/>
        <pt x="621" y="192" on="0"/>
        <pt x="537" y="203" on="1"/>
        <pt x="398" y="31" on="0"/>
        <pt x="306" y="-36" on="1"/>
        <pt x="227" y="-95" on="0"/>
        <pt x="142" y="-95" on="1"/>
        <pt x="88" y="-95" on="0"/>
        <pt x="11" y="-41" on="0"/>
        <pt x="11" y="12" on="1"/>
        <pt x="11" y="22" on="0"/>
        <pt x="21" y="39" on="0"/>
        <pt x="31" y="31" on="0"/>
        <pt x="31" y="12" on="1"/>
        <pt x="31" y="-22" on="0"/>
        <pt x="84" y="-56" on="0"/>
        <pt x="122" y="-56" on="1"/>
        <pt x="204" y="-56" on="0"/>
        <pt x="363" y="51" on="0"/>
        <pt x="500" y="207" on="1"/>
        <pt x="353" y="225" on="0"/>
        <pt x="306" y="225" on="1"/>
        <pt x="179" y="225" on="0"/>
        <pt x="149" y="142" on="1"/>
        <pt x="145" y="131" on="0"/>
        <pt x="145" y="112" on="0"/>
        <pt x="153" y="97" on="0"/>
        <pt x="148" y="88" on="0"/>
        <pt x="136" y="89" on="0"/>
        <pt x="132" y="95" on="1"/>
        <pt x="121" y="114" on="0"/>
        <pt x="121" y="132" on="1"/>
        <pt x="121" y="194" on="0"/>
        <pt x="166" y="253" on="0"/>
        <pt x="196" y="261" on="1"/>
        <pt x="232" y="271" on="0"/>
        <pt x="328" y="271" on="0"/>
        <pt x="522" y="233" on="1"/>
        <pt x="576" y="295" on="0"/>
        <pt x="795" y="569" on="1"/>
        <pt x="798" y="573" on="0"/>
        <pt x="802" y="575" on="1"/>
        <pt x="826" y="589" on="0"/>
        <pt x="854" y="589" on="1"/>
        <pt x="864" y="589" on="0"/>
        <pt x="864" y="579" on="1"/>
        <pt x="864" y="578" on="0"/>
        <pt x="862" y="575" on="0"/>
        <pt x="860" y="570" on="0"/>
        <pt x="859" y="568" on="1"/>
        <pt x="763" y="409" on="0"/>
        <pt x="710" y="210" on="1"/>
        <pt x="707" y="203" on="1"/>
        <pt x="732" y="202" on="1"/>
        <pt x="740" y="201" on="0"/>
        <pt x="781" y="201" on="0"/>
        <pt x="827" y="220" on="0"/>
        <pt x="840" y="242" on="0"/>
        <pt x="850" y="230" on="0"/>
        <pt x="846" y="223" on="1"/>
        <pt x="835" y="203" on="0"/>
        <pt x="807" y="194" on="1"/>
        <pt x="783" y="184" on="0"/>
        <pt x="736" y="184" on="0"/>
        <pt x="729" y="184" on="1"/>
        <pt x="702" y="185" on="1"/>
        <pt x="683" y="98" on="0"/>
        <pt x="683" y="-5" on="0"/>
        <pt x="711" y="-5" on="1"/>
        <pt x="738" y="-5" on="0"/>
        <pt x="852" y="81" on="0"/>
        <pt x="902" y="149" on="1"/>
        <pt x="905" y="153" on="0"/>
        <pt x="915" y="149" on="0"/>
        <pt x="915" y="143" on="0"/>
        <pt x="912" y="134" on="0"/>
        <pt x="898" y="116" on="1"/>
        <pt x="856" y="60" on="0"/>
        <pt x="795" y="10" on="1"/>
        <pt x="757" y="-19" on="0"/>
        <pt x="712" y="-23" on="1"/>
        <pt x="693" y="-42" on="0"/>
        <pt x="595" y="-106" on="0"/>
        <pt x="534" y="-161" on="0"/>
        <pt x="481" y="-246" on="0"/>
        <pt x="481" y="-284" on="0"/>
        <pt x="489" y="-295" on="1"/>
        <pt x="502" y="-308" on="0"/>
        <pt x="548" y="-281" on="0"/>
        <pt x="579" y="-259" on="0"/>
        <pt x="616" y="-229" on="0"/>
        <pt x="630" y="-217" on="1"/>
        <pt x="665" y="-186" on="0"/>
        <pt x="671" y="-181" on="1"/>
        <pt x="686" y="-167" on="0"/>
        <pt x="695" y="-181" on="0"/>
        <pt x="684" y="-193" on="1"/>
        <pt x="672" y="-208" on="1"/>
        <pt x="626" y="-266" on="0"/>
        <pt x="592" y="-290" on="1"/>
        <pt x="552" y="-318" on="0"/>
        <pt x="477" y="-318" on="0"/>
        <pt x="452" y="-285" on="1"/>
        <pt x="438" y="-265" on="0"/>
        <pt x="438" y="-225" on="0"/>
        <pt x="448" y="-206" on="1"/>
        <pt x="468" y="-163" on="0"/>
        <pt x="519" y="-128" on="1"/>
        <pt x="551" y="-105" on="0"/>
        <pt x="669" y="-30" on="0"/>
      </contour>
      <contour>
        <pt x="752" y="478" on="1"/>
        <pt x="753" y="480" on="0"/>
        <pt x="756" y="487" on="0"/>
        <pt x="757" y="489" on="1"/>
        <pt x="632" y="318" on="0"/>
        <pt x="556" y="225" on="1"/>
        <pt x="661" y="208" on="1"/>
        <pt x="689" y="317" on="0"/>
      </contour>
    </TTGlyph>
    <TTGlyph name="Aring" xMin="11" yMin="-95" xMax="950" yMax="715">
      <contour>
        <pt x="704" y="185" on="1"/>
        <pt x="683" y="106" on="0"/>
        <pt x="683" y="-5" on="0"/>
        <pt x="738" y="-5" on="0"/>
        <pt x="791" y="35" on="1"/>
        <pt x="852" y="81" on="0"/>
        <pt x="902" y="149" on="1"/>
        <pt x="905" y="153" on="0"/>
        <pt x="917" y="148" on="0"/>
        <pt x="908" y="123" on="0"/>
        <pt x="856" y="67" on="1"/>
        <pt x="827" y="36" on="0"/>
        <pt x="751" y="-25" on="0"/>
        <pt x="697" y="-25" on="1"/>
        <pt x="666" y="-25" on="0"/>
        <pt x="638" y="31" on="0"/>
        <pt x="638" y="115" on="0"/>
        <pt x="656" y="189" on="1"/>
        <pt x="581" y="196" on="0"/>
        <pt x="537" y="202" on="1"/>
        <pt x="397" y="30" on="0"/>
        <pt x="306" y="-36" on="1"/>
        <pt x="227" y="-95" on="0"/>
        <pt x="142" y="-95" on="1"/>
        <pt x="88" y="-95" on="0"/>
        <pt x="11" y="-41" on="0"/>
        <pt x="11" y="12" on="1"/>
        <pt x="11" y="22" on="0"/>
        <pt x="21" y="39" on="0"/>
        <pt x="31" y="31" on="0"/>
        <pt x="31" y="12" on="1"/>
        <pt x="31" y="-22" on="0"/>
        <pt x="84" y="-56" on="0"/>
        <pt x="122" y="-56" on="1"/>
        <pt x="204" y="-56" on="0"/>
        <pt x="363" y="51" on="0"/>
        <pt x="500" y="207" on="1"/>
        <pt x="409" y="218" on="0"/>
        <pt x="318" y="225" on="0"/>
        <pt x="306" y="225" on="1"/>
        <pt x="179" y="225" on="0"/>
        <pt x="149" y="142" on="1"/>
        <pt x="145" y="131" on="0"/>
        <pt x="145" y="112" on="0"/>
        <pt x="153" y="97" on="0"/>
        <pt x="148" y="88" on="0"/>
        <pt x="136" y="89" on="0"/>
        <pt x="132" y="95" on="1"/>
        <pt x="121" y="114" on="0"/>
        <pt x="121" y="150" on="0"/>
        <pt x="122" y="157" on="1"/>
        <pt x="130" y="243" on="0"/>
        <pt x="199" y="262" on="1"/>
        <pt x="232" y="271" on="0"/>
        <pt x="275" y="271" on="1"/>
        <pt x="328" y="271" on="0"/>
        <pt x="522" y="233" on="1"/>
        <pt x="576" y="295" on="0"/>
        <pt x="795" y="569" on="1"/>
        <pt x="796" y="571" on="0"/>
        <pt x="796" y="572" on="1"/>
        <pt x="797" y="572" on="1"/>
        <pt x="825" y="589" on="0"/>
        <pt x="854" y="589" on="1"/>
        <pt x="864" y="589" on="0"/>
        <pt x="864" y="579" on="1"/>
        <pt x="864" y="578" on="0"/>
        <pt x="862" y="575" on="0"/>
        <pt x="860" y="570" on="0"/>
        <pt x="859" y="568" on="1"/>
        <pt x="763" y="409" on="0"/>
        <pt x="710" y="210" on="1"/>
        <pt x="707" y="203" on="1"/>
        <pt x="712" y="203" on="0"/>
        <pt x="728" y="202" on="0"/>
        <pt x="740" y="201" on="0"/>
        <pt x="781" y="201" on="0"/>
        <pt x="827" y="220" on="0"/>
        <pt x="839" y="241" on="0"/>
        <pt x="851" y="231" on="0"/>
        <pt x="846" y="223" on="1"/>
        <pt x="835" y="203" on="0"/>
        <pt x="807" y="194" on="1"/>
        <pt x="783" y="184" on="0"/>
        <pt x="736" y="184" on="0"/>
        <pt x="729" y="184" on="1"/>
      </contour>
      <contour>
        <pt x="950" y="673" on="1"/>
        <pt x="950" y="636" on="0"/>
        <pt x="906" y="604" on="1"/>
        <pt x="884" y="590" on="0"/>
        <pt x="844" y="590" on="0"/>
        <pt x="827" y="597" on="1"/>
        <pt x="795" y="609" on="0"/>
        <pt x="795" y="639" on="1"/>
        <pt x="795" y="644" on="0"/>
        <pt x="796" y="649" on="1"/>
        <pt x="803" y="680" on="0"/>
        <pt x="835" y="700" on="1"/>
        <pt x="853" y="715" on="0"/>
        <pt x="885" y="715" on="1"/>
        <pt x="950" y="715" on="0"/>
      </contour>
      <contour>
        <pt x="757" y="489" on="1"/>
        <pt x="632" y="318" on="0"/>
        <pt x="556" y="225" on="1"/>
        <pt x="661" y="208" on="1"/>
        <pt x="689" y="317" on="0"/>
        <pt x="752" y="478" on="1"/>
      </contour>
      <contour>
        <pt x="922" y="652" on="1"/>
        <pt x="927" y="658" on="0"/>
        <pt x="927" y="666" on="1"/>
        <pt x="927" y="703" on="0"/>
        <pt x="892" y="703" on="1"/>
        <pt x="866" y="703" on="0"/>
        <pt x="820" y="652" on="0"/>
        <pt x="822" y="630" on="1"/>
        <pt x="826" y="604" on="0"/>
        <pt x="859" y="604" on="1"/>
        <pt x="881" y="604" on="0"/>
        <pt x="916" y="635" on="0"/>
      </contour>
    </TTGlyph>
    <TTGlyph name="Atilde" xMin="11" yMin="-95" xMax="998" yMax="722">
      <contour>
        <pt x="704" y="185" on="1"/>
        <pt x="683" y="106" on="0"/>
        <pt x="683" y="-5" on="0"/>
        <pt x="738" y="-5" on="0"/>
        <pt x="791" y="35" on="1"/>
        <pt x="852" y="81" on="0"/>
        <pt x="902" y="149" on="1"/>
        <pt x="905" y="153" on="0"/>
        <pt x="917" y="148" on="0"/>
        <pt x="908" y="123" on="0"/>
        <pt x="856" y="67" on="1"/>
        <pt x="827" y="36" on="0"/>
        <pt x="751" y="-25" on="0"/>
        <pt x="697" y="-25" on="1"/>
        <pt x="666" y="-25" on="0"/>
        <pt x="638" y="31" on="0"/>
        <pt x="638" y="115" on="0"/>
        <pt x="656" y="189" on="1"/>
        <pt x="581" y="196" on="0"/>
        <pt x="537" y="202" on="1"/>
        <pt x="397" y="30" on="0"/>
        <pt x="306" y="-36" on="1"/>
        <pt x="227" y="-95" on="0"/>
        <pt x="142" y="-95" on="1"/>
        <pt x="88" y="-95" on="0"/>
        <pt x="11" y="-41" on="0"/>
        <pt x="11" y="12" on="1"/>
        <pt x="11" y="22" on="0"/>
        <pt x="21" y="39" on="0"/>
        <pt x="31" y="31" on="0"/>
        <pt x="31" y="12" on="1"/>
        <pt x="31" y="-22" on="0"/>
        <pt x="84" y="-56" on="0"/>
        <pt x="122" y="-56" on="1"/>
        <pt x="204" y="-56" on="0"/>
        <pt x="363" y="51" on="0"/>
        <pt x="500" y="207" on="1"/>
        <pt x="409" y="218" on="0"/>
        <pt x="318" y="225" on="0"/>
        <pt x="306" y="225" on="1"/>
        <pt x="179" y="225" on="0"/>
        <pt x="149" y="142" on="1"/>
        <pt x="145" y="131" on="0"/>
        <pt x="145" y="112" on="0"/>
        <pt x="153" y="97" on="0"/>
        <pt x="148" y="88" on="0"/>
        <pt x="136" y="89" on="0"/>
        <pt x="132" y="95" on="1"/>
        <pt x="121" y="114" on="0"/>
        <pt x="121" y="150" on="0"/>
        <pt x="122" y="157" on="1"/>
        <pt x="130" y="243" on="0"/>
        <pt x="199" y="262" on="1"/>
        <pt x="232" y="271" on="0"/>
        <pt x="275" y="271" on="1"/>
        <pt x="328" y="271" on="0"/>
        <pt x="522" y="233" on="1"/>
        <pt x="576" y="295" on="0"/>
        <pt x="795" y="569" on="1"/>
        <pt x="796" y="571" on="0"/>
        <pt x="796" y="572" on="1"/>
        <pt x="797" y="572" on="1"/>
        <pt x="825" y="589" on="0"/>
        <pt x="854" y="589" on="1"/>
        <pt x="864" y="589" on="0"/>
        <pt x="864" y="579" on="1"/>
        <pt x="864" y="578" on="0"/>
        <pt x="862" y="575" on="0"/>
        <pt x="860" y="570" on="0"/>
        <pt x="859" y="568" on="1"/>
        <pt x="763" y="409" on="0"/>
        <pt x="710" y="210" on="1"/>
        <pt x="707" y="203" on="1"/>
        <pt x="712" y="203" on="0"/>
        <pt x="728" y="202" on="0"/>
        <pt x="740" y="201" on="0"/>
        <pt x="781" y="201" on="0"/>
        <pt x="827" y="220" on="0"/>
        <pt x="839" y="241" on="0"/>
        <pt x="851" y="231" on="0"/>
        <pt x="846" y="223" on="1"/>
        <pt x="835" y="203" on="0"/>
        <pt x="807" y="194" on="1"/>
        <pt x="783" y="184" on="0"/>
        <pt x="736" y="184" on="0"/>
        <pt x="729" y="184" on="1"/>
      </contour>
      <contour>
        <pt x="757" y="489" on="1"/>
        <pt x="632" y="318" on="0"/>
        <pt x="556" y="225" on="1"/>
        <pt x="661" y="208" on="1"/>
        <pt x="689" y="317" on="0"/>
        <pt x="752" y="478" on="1"/>
      </contour>
      <contour>
        <pt x="958" y="658" on="1"/>
        <pt x="940" y="646" on="0"/>
        <pt x="914" y="646" on="0"/>
        <pt x="896" y="652" on="0"/>
        <pt x="857" y="669" on="0"/>
        <pt x="849" y="672" on="1"/>
        <pt x="805" y="685" on="0"/>
        <pt x="794" y="678" on="1"/>
        <pt x="762" y="671" on="0"/>
        <pt x="744" y="643" on="1"/>
        <pt x="742" y="640" on="0"/>
        <pt x="735" y="640" on="0"/>
        <pt x="729" y="644" on="0"/>
        <pt x="729" y="646" on="0"/>
        <pt x="749" y="675" on="0"/>
        <pt x="773" y="704" on="0"/>
        <pt x="808" y="722" on="0"/>
        <pt x="822" y="722" on="1"/>
        <pt x="839" y="719" on="1"/>
        <pt x="847" y="716" on="0"/>
        <pt x="876" y="701" on="1"/>
        <pt x="918" y="679" on="0"/>
        <pt x="969" y="679" on="0"/>
        <pt x="980" y="712" on="1"/>
        <pt x="984" y="718" on="0"/>
        <pt x="997" y="712" on="0"/>
        <pt x="997" y="710" on="1"/>
        <pt x="997" y="687" on="0"/>
      </contour>
    </TTGlyph>
    <TTGlyph name="B" xMin="15" yMin="-73" xMax="731" yMax="592">
      <contour>
        <pt x="17" y="339" on="1"/>
        <pt x="15" y="355" on="1"/>
        <pt x="19" y="397" on="0"/>
        <pt x="108" y="479" on="0"/>
        <pt x="244" y="553" on="0"/>
        <pt x="392" y="578" on="1"/>
        <pt x="476" y="591" on="0"/>
        <pt x="589" y="591" on="0"/>
        <pt x="675" y="572" on="0"/>
        <pt x="731" y="516" on="0"/>
        <pt x="731" y="439" on="0"/>
        <pt x="666" y="371" on="0"/>
        <pt x="617" y="353" on="1"/>
        <pt x="522" y="318" on="0"/>
        <pt x="435" y="314" on="1"/>
        <pt x="478" y="288" on="0"/>
        <pt x="534" y="249" on="0"/>
        <pt x="598" y="185" on="0"/>
        <pt x="616" y="139" on="0"/>
        <pt x="616" y="121" on="1"/>
        <pt x="616" y="62" on="0"/>
        <pt x="571" y="8" on="1"/>
        <pt x="541" y="-29" on="0"/>
        <pt x="434" y="-73" on="0"/>
        <pt x="374" y="-73" on="1"/>
        <pt x="246" y="-73" on="0"/>
        <pt x="234" y="17" on="1"/>
        <pt x="232" y="19" on="0"/>
        <pt x="232" y="23" on="1"/>
        <pt x="194" y="-38" on="0"/>
        <pt x="169" y="-38" on="1"/>
        <pt x="162" y="-38" on="0"/>
        <pt x="131" y="-31" on="0"/>
        <pt x="130" y="-23" on="0"/>
        <pt x="130" y="3" on="0"/>
        <pt x="168" y="102" on="0"/>
        <pt x="192" y="150" on="1"/>
        <pt x="239" y="240" on="0"/>
        <pt x="285" y="324" on="1"/>
        <pt x="293" y="342" on="0"/>
        <pt x="293" y="360" on="0"/>
        <pt x="292" y="365" on="1"/>
        <pt x="296" y="393" on="0"/>
        <pt x="385" y="484" on="0"/>
        <pt x="421" y="484" on="1"/>
        <pt x="433" y="484" on="0"/>
        <pt x="473" y="466" on="0"/>
        <pt x="477" y="450" on="1"/>
        <pt x="478" y="443" on="0"/>
        <pt x="477" y="440" on="0"/>
        <pt x="467" y="444" on="0"/>
        <pt x="466" y="444" on="1"/>
        <pt x="434" y="444" on="0"/>
        <pt x="345" y="349" on="0"/>
        <pt x="304" y="280" on="1"/>
        <pt x="219" y="140" on="0"/>
        <pt x="182" y="50" on="1"/>
        <pt x="174" y="30" on="0"/>
        <pt x="174" y="19" on="1"/>
        <pt x="174" y="4" on="0"/>
        <pt x="200" y="4" on="0"/>
        <pt x="244" y="59" on="0"/>
        <pt x="262" y="58" on="0"/>
        <pt x="273" y="48" on="0"/>
        <pt x="277" y="37" on="0"/>
        <pt x="279" y="17" on="0"/>
        <pt x="280" y="14" on="1"/>
        <pt x="296" y="-57" on="0"/>
        <pt x="381" y="-57" on="1"/>
        <pt x="383" y="-57" on="0"/>
        <pt x="385" y="-57" on="1"/>
        <pt x="454" y="-57" on="0"/>
        <pt x="503" y="-25" on="1"/>
        <pt x="557" y="11" on="0"/>
        <pt x="557" y="118" on="0"/>
        <pt x="507" y="177" on="1"/>
        <pt x="491" y="195" on="0"/>
        <pt x="460" y="222" on="1"/>
        <pt x="394" y="279" on="0"/>
        <pt x="390" y="311" on="0"/>
        <pt x="421" y="332" on="0"/>
        <pt x="434" y="332" on="1"/>
        <pt x="483" y="332" on="0"/>
        <pt x="568" y="367" on="1"/>
        <pt x="693" y="418" on="0"/>
        <pt x="702" y="480" on="1"/>
        <pt x="702" y="484" on="0"/>
        <pt x="702" y="486" on="1"/>
        <pt x="702" y="504" on="0"/>
        <pt x="686" y="520" on="1"/>
        <pt x="659" y="549" on="0"/>
        <pt x="572" y="549" on="1"/>
        <pt x="453" y="549" on="0"/>
        <pt x="295" y="506" on="1"/>
        <pt x="199" y="480" on="0"/>
        <pt x="126" y="432" on="1"/>
        <pt x="46" y="379" on="0"/>
        <pt x="46" y="319" on="1"/>
        <pt x="46" y="306" on="0"/>
        <pt x="62" y="281" on="0"/>
        <pt x="83" y="270" on="0"/>
        <pt x="117" y="257" on="0"/>
        <pt x="132" y="250" on="0"/>
        <pt x="127" y="240" on="0"/>
        <pt x="115" y="242" on="1"/>
        <pt x="82" y="244" on="0"/>
        <pt x="16" y="295" on="0"/>
        <pt x="16" y="329" on="1"/>
        <pt x="16" y="334" on="0"/>
      </contour>
    </TTGlyph>
    <TTGlyph name="C" xMin="20" yMin="-59" xMax="608" yMax="586">
      <contour>
        <pt x="558" y="504" on="1"/>
        <pt x="558" y="560" on="0"/>
        <pt x="499" y="560" on="1"/>
        <pt x="448" y="560" on="0"/>
        <pt x="285" y="464" on="0"/>
        <pt x="113" y="267" on="0"/>
        <pt x="79" y="159" on="1"/>
        <pt x="65" y="116" on="0"/>
        <pt x="65" y="43" on="0"/>
        <pt x="86" y="16" on="1"/>
        <pt x="123" y="-32" on="0"/>
        <pt x="207" y="-33" on="1"/>
        <pt x="213" y="-33" on="0"/>
        <pt x="218" y="-33" on="1"/>
        <pt x="311" y="-33" on="0"/>
        <pt x="527" y="62" on="0"/>
        <pt x="592" y="154" on="1"/>
        <pt x="597" y="161" on="0"/>
        <pt x="608" y="153" on="0"/>
        <pt x="608" y="147" on="0"/>
        <pt x="606" y="145" on="1"/>
        <pt x="532" y="44" on="0"/>
        <pt x="316" y="-58" on="0"/>
        <pt x="215" y="-58" on="1"/>
        <pt x="109" y="-58" on="0"/>
        <pt x="55" y="2" on="1"/>
        <pt x="20" y="41" on="0"/>
        <pt x="20" y="104" on="1"/>
        <pt x="20" y="210" on="0"/>
        <pt x="100" y="332" on="1"/>
        <pt x="209" y="498" on="0"/>
        <pt x="364" y="562" on="1"/>
        <pt x="424" y="586" on="0"/>
        <pt x="479" y="586" on="1"/>
        <pt x="547" y="586" on="0"/>
        <pt x="576" y="554" on="1"/>
        <pt x="595" y="532" on="0"/>
        <pt x="595" y="503" on="1"/>
        <pt x="595" y="448" on="0"/>
        <pt x="479" y="332" on="0"/>
        <pt x="338" y="263" on="0"/>
        <pt x="286" y="258" on="1"/>
        <pt x="265" y="256" on="0"/>
        <pt x="266" y="269" on="1"/>
        <pt x="267" y="287" on="0"/>
        <pt x="291" y="289" on="1"/>
        <pt x="371" y="296" on="0"/>
        <pt x="505" y="379" on="0"/>
        <pt x="541" y="448" on="1"/>
        <pt x="558" y="475" on="0"/>
      </contour>
    </TTGlyph>
    <TTGlyph name="Cacute" xMin="20" yMin="-59" xMax="629" yMax="754">
      <contour>
        <pt x="558" y="504" on="1"/>
        <pt x="558" y="560" on="0"/>
        <pt x="499" y="560" on="1"/>
        <pt x="448" y="560" on="0"/>
        <pt x="285" y="464" on="0"/>
        <pt x="113" y="267" on="0"/>
        <pt x="79" y="159" on="1"/>
        <pt x="65" y="116" on="0"/>
        <pt x="65" y="43" on="0"/>
        <pt x="86" y="16" on="1"/>
        <pt x="123" y="-32" on="0"/>
        <pt x="207" y="-33" on="1"/>
        <pt x="213" y="-33" on="0"/>
        <pt x="218" y="-33" on="1"/>
        <pt x="311" y="-33" on="0"/>
        <pt x="527" y="62" on="0"/>
        <pt x="592" y="154" on="1"/>
        <pt x="597" y="161" on="0"/>
        <pt x="610" y="151" on="0"/>
        <pt x="606" y="145" on="1"/>
        <pt x="532" y="44" on="0"/>
        <pt x="316" y="-58" on="0"/>
        <pt x="215" y="-58" on="1"/>
        <pt x="109" y="-58" on="0"/>
        <pt x="55" y="2" on="1"/>
        <pt x="20" y="41" on="0"/>
        <pt x="20" y="104" on="1"/>
        <pt x="20" y="210" on="0"/>
        <pt x="100" y="332" on="1"/>
        <pt x="209" y="498" on="0"/>
        <pt x="364" y="562" on="1"/>
        <pt x="424" y="586" on="0"/>
        <pt x="479" y="586" on="1"/>
        <pt x="547" y="586" on="0"/>
        <pt x="576" y="554" on="1"/>
        <pt x="595" y="532" on="0"/>
        <pt x="595" y="503" on="1"/>
        <pt x="595" y="448" on="0"/>
        <pt x="479" y="332" on="0"/>
        <pt x="338" y="263" on="0"/>
        <pt x="286" y="258" on="1"/>
        <pt x="265" y="256" on="0"/>
        <pt x="266" y="269" on="1"/>
        <pt x="267" y="287" on="0"/>
        <pt x="291" y="289" on="1"/>
        <pt x="371" y="296" on="0"/>
        <pt x="505" y="379" on="0"/>
        <pt x="541" y="448" on="1"/>
        <pt x="558" y="475" on="0"/>
      </contour>
      <contour>
        <pt x="598" y="754" on="1"/>
        <pt x="617" y="748" on="1"/>
        <pt x="629" y="741" on="0"/>
        <pt x="629" y="730" on="1"/>
        <pt x="629" y="717" on="0"/>
        <pt x="622" y="714" on="1"/>
        <pt x="606" y="701" on="0"/>
        <pt x="475" y="639" on="0"/>
        <pt x="454" y="638" on="0"/>
        <pt x="454" y="644" on="0"/>
        <pt x="459" y="650" on="0"/>
        <pt x="481" y="666" on="0"/>
        <pt x="510" y="685" on="0"/>
        <pt x="523" y="695" on="0"/>
        <pt x="540" y="708" on="1"/>
        <pt x="578" y="736" on="0"/>
        <pt x="589" y="752" on="1"/>
        <pt x="595" y="754" on="0"/>
      </contour>
    </TTGlyph>
    <TTGlyph name="Ccaron" xMin="20" yMin="-59" xMax="629" yMax="750">
      <contour>
        <pt x="558" y="504" on="1"/>
        <pt x="558" y="560" on="0"/>
        <pt x="499" y="560" on="1"/>
        <pt x="448" y="560" on="0"/>
        <pt x="285" y="464" on="0"/>
        <pt x="113" y="267" on="0"/>
        <pt x="79" y="159" on="1"/>
        <pt x="65" y="116" on="0"/>
        <pt x="65" y="43" on="0"/>
        <pt x="86" y="16" on="1"/>
        <pt x="123" y="-32" on="0"/>
        <pt x="207" y="-33" on="1"/>
        <pt x="213" y="-33" on="0"/>
        <pt x="218" y="-33" on="1"/>
        <pt x="311" y="-33" on="0"/>
        <pt x="527" y="62" on="0"/>
        <pt x="592" y="154" on="1"/>
        <pt x="597" y="161" on="0"/>
        <pt x="610" y="151" on="0"/>
        <pt x="606" y="145" on="1"/>
        <pt x="532" y="44" on="0"/>
        <pt x="316" y="-58" on="0"/>
        <pt x="215" y="-58" on="1"/>
        <pt x="109" y="-58" on="0"/>
        <pt x="55" y="2" on="1"/>
        <pt x="20" y="41" on="0"/>
        <pt x="20" y="104" on="1"/>
        <pt x="20" y="210" on="0"/>
        <pt x="100" y="332" on="1"/>
        <pt x="209" y="498" on="0"/>
        <pt x="364" y="562" on="1"/>
        <pt x="424" y="586" on="0"/>
        <pt x="479" y="586" on="1"/>
        <pt x="547" y="586" on="0"/>
        <pt x="576" y="554" on="1"/>
        <pt x="595" y="532" on="0"/>
        <pt x="595" y="503" on="1"/>
        <pt x="595" y="448" on="0"/>
        <pt x="479" y="332" on="0"/>
        <pt x="338" y="263" on="0"/>
        <pt x="286" y="258" on="1"/>
        <pt x="265" y="256" on="0"/>
        <pt x="266" y="269" on="1"/>
        <pt x="267" y="287" on="0"/>
        <pt x="291" y="289" on="1"/>
        <pt x="371" y="296" on="0"/>
        <pt x="505" y="379" on="0"/>
        <pt x="541" y="448" on="1"/>
        <pt x="558" y="475" on="0"/>
      </contour>
      <contour>
        <pt x="426" y="729" on="1"/>
        <pt x="422" y="736" on="0"/>
        <pt x="422" y="749" on="0"/>
        <pt x="431" y="749" on="0"/>
        <pt x="439" y="742" on="0"/>
        <pt x="460" y="725" on="1"/>
        <pt x="509" y="684" on="0"/>
        <pt x="520" y="673" on="1"/>
        <pt x="536" y="683" on="0"/>
        <pt x="565" y="706" on="1"/>
        <pt x="628" y="756" on="0"/>
        <pt x="629" y="743" on="1"/>
        <pt x="629" y="734" on="0"/>
        <pt x="615" y="723" on="0"/>
        <pt x="588" y="698" on="1"/>
        <pt x="522" y="637" on="0"/>
        <pt x="507" y="637" on="1"/>
        <pt x="485" y="645" on="0"/>
      </contour>
    </TTGlyph>
    <TTGlyph name="Ccedilla" xMin="-4" yMin="-314" xMax="608" yMax="586">
      <contour>
        <pt x="558" y="504" on="1"/>
        <pt x="558" y="560" on="0"/>
        <pt x="499" y="560" on="1"/>
        <pt x="448" y="560" on="0"/>
        <pt x="285" y="464" on="0"/>
        <pt x="113" y="267" on="0"/>
        <pt x="79" y="159" on="1"/>
        <pt x="65" y="116" on="0"/>
        <pt x="65" y="43" on="0"/>
        <pt x="86" y="16" on="1"/>
        <pt x="123" y="-32" on="0"/>
        <pt x="207" y="-33" on="1"/>
        <pt x="213" y="-33" on="0"/>
        <pt x="218" y="-33" on="1"/>
        <pt x="311" y="-33" on="0"/>
        <pt x="527" y="62" on="0"/>
        <pt x="592" y="154" on="1"/>
        <pt x="597" y="161" on="0"/>
        <pt x="608" y="153" on="0"/>
        <pt x="608" y="147" on="0"/>
        <pt x="606" y="145" on="1"/>
        <pt x="532" y="44" on="0"/>
        <pt x="316" y="-58" on="0"/>
        <pt x="215" y="-58" on="1"/>
        <pt x="211" y="-58" on="0"/>
        <pt x="207" y="-58" on="1"/>
        <pt x="194" y="-58" on="1"/>
        <pt x="187" y="-69" on="0"/>
        <pt x="150" y="-117" on="0"/>
        <pt x="147" y="-122" on="1"/>
        <pt x="168" y="-118" on="0"/>
        <pt x="218" y="-118" on="0"/>
        <pt x="240" y="-131" on="1"/>
        <pt x="274" y="-151" on="0"/>
        <pt x="274" y="-225" on="0"/>
        <pt x="239" y="-256" on="1"/>
        <pt x="176" y="-313" on="0"/>
        <pt x="94" y="-313" on="1"/>
        <pt x="66" y="-312" on="1"/>
        <pt x="20" y="-305" on="0"/>
        <pt x="1" y="-273" on="1"/>
        <pt x="-3" y="-264" on="0"/>
        <pt x="-3" y="-253" on="0"/>
        <pt x="10" y="-258" on="0"/>
        <pt x="15" y="-266" on="1"/>
        <pt x="35" y="-296" on="0"/>
        <pt x="83" y="-296" on="1"/>
        <pt x="150" y="-296" on="0"/>
        <pt x="200" y="-245" on="1"/>
        <pt x="227" y="-218" on="0"/>
        <pt x="227" y="-164" on="0"/>
        <pt x="197" y="-141" on="0"/>
        <pt x="179" y="-141" on="1"/>
        <pt x="123" y="-149" on="1"/>
        <pt x="114" y="-149" on="0"/>
        <pt x="114" y="-146" on="1"/>
        <pt x="114" y="-140" on="0"/>
        <pt x="145" y="-97" on="0"/>
        <pt x="165" y="-55" on="1"/>
        <pt x="84" y="-41" on="0"/>
        <pt x="45" y="17" on="1"/>
        <pt x="21" y="53" on="0"/>
        <pt x="21" y="96" on="1"/>
        <pt x="21" y="211" on="0"/>
        <pt x="100" y="332" on="1"/>
        <pt x="209" y="498" on="0"/>
        <pt x="364" y="562" on="1"/>
        <pt x="424" y="586" on="0"/>
        <pt x="479" y="586" on="1"/>
        <pt x="547" y="586" on="0"/>
        <pt x="576" y="554" on="1"/>
        <pt x="595" y="532" on="0"/>
        <pt x="595" y="503" on="1"/>
        <pt x="595" y="448" on="0"/>
        <pt x="479" y="332" on="0"/>
        <pt x="338" y="263" on="0"/>
        <pt x="286" y="258" on="1"/>
        <pt x="265" y="256" on="0"/>
        <pt x="266" y="269" on="1"/>
        <pt x="267" y="287" on="0"/>
        <pt x="291" y="289" on="1"/>
        <pt x="371" y="296" on="0"/>
        <pt x="505" y="379" on="0"/>
        <pt x="541" y="448" on="1"/>
        <pt x="558" y="475" on="0"/>
      </contour>
    </TTGlyph>
    <TTGlyph name="Ccircumflex" xMin="20" yMin="-59" xMax="619" yMax="729">
      <contour>
        <pt x="558" y="504" on="1"/>
        <pt x="558" y="560" on="0"/>
        <pt x="499" y="560" on="1"/>
        <pt x="448" y="560" on="0"/>
        <pt x="285" y="464" on="0"/>
        <pt x="113" y="267" on="0"/>
        <pt x="79" y="159" on="1"/>
        <pt x="65" y="116" on="0"/>
        <pt x="65" y="43" on="0"/>
        <pt x="86" y="16" on="1"/>
        <pt x="123" y="-32" on="0"/>
        <pt x="207" y="-33" on="1"/>
        <pt x="213" y="-33" on="0"/>
        <pt x="218" y="-33" on="1"/>
        <pt x="311" y="-33" on="0"/>
        <pt x="527" y="62" on="0"/>
        <pt x="592" y="154" on="1"/>
        <pt x="597" y="161" on="0"/>
        <pt x="610" y="151" on="0"/>
        <pt x="606" y="145" on="1"/>
        <pt x="532" y="44" on="0"/>
        <pt x="316" y="-58" on="0"/>
        <pt x="215" y="-58" on="1"/>
        <pt x="109" y="-58" on="0"/>
        <pt x="55" y="2" on="1"/>
        <pt x="20" y="41" on="0"/>
        <pt x="20" y="104" on="1"/>
        <pt x="20" y="210" on="0"/>
        <pt x="100" y="332" on="1"/>
        <pt x="209" y="498" on="0"/>
        <pt x="364" y="562" on="1"/>
        <pt x="424" y="586" on="0"/>
        <pt x="479" y="586" on="1"/>
        <pt x="547" y="586" on="0"/>
        <pt x="576" y="554" on="1"/>
        <pt x="595" y="532" on="0"/>
        <pt x="595" y="503" on="1"/>
        <pt x="595" y="448" on="0"/>
        <pt x="479" y="332" on="0"/>
        <pt x="338" y="263" on="0"/>
        <pt x="286" y="258" on="1"/>
        <pt x="265" y="256" on="0"/>
        <pt x="266" y="269" on="1"/>
        <pt x="267" y="287" on="0"/>
        <pt x="291" y="289" on="1"/>
        <pt x="371" y="296" on="0"/>
        <pt x="505" y="379" on="0"/>
        <pt x="541" y="448" on="1"/>
        <pt x="558" y="475" on="0"/>
      </contour>
      <contour>
        <pt x="614" y="637" on="1"/>
        <pt x="618" y="630" on="0"/>
        <pt x="618" y="617" on="0"/>
        <pt x="610" y="617" on="0"/>
        <pt x="599" y="627" on="0"/>
        <pt x="527" y="688" on="0"/>
        <pt x="521" y="694" on="1"/>
        <pt x="504" y="683" on="0"/>
        <pt x="474" y="660" on="1"/>
        <pt x="411" y="609" on="0"/>
        <pt x="411" y="624" on="1"/>
        <pt x="411" y="633" on="0"/>
        <pt x="422" y="642" on="1"/>
        <pt x="427" y="646" on="0"/>
        <pt x="452" y="669" on="1"/>
        <pt x="519" y="729" on="0"/>
        <pt x="534" y="729" on="1"/>
        <pt x="559" y="719" on="0"/>
      </contour>
    </TTGlyph>
    <TTGlyph name="Cdotaccent" xMin="20" yMin="-59" xMax="608" yMax="735">
      <contour>
        <pt x="558" y="504" on="1"/>
        <pt x="558" y="560" on="0"/>
        <pt x="499" y="560" on="1"/>
        <pt x="448" y="560" on="0"/>
        <pt x="285" y="464" on="0"/>
        <pt x="113" y="267" on="0"/>
        <pt x="79" y="159" on="1"/>
        <pt x="65" y="116" on="0"/>
        <pt x="65" y="43" on="0"/>
        <pt x="86" y="16" on="1"/>
        <pt x="123" y="-32" on="0"/>
        <pt x="207" y="-33" on="1"/>
        <pt x="213" y="-33" on="0"/>
        <pt x="218" y="-33" on="1"/>
        <pt x="311" y="-33" on="0"/>
        <pt x="527" y="62" on="0"/>
        <pt x="592" y="154" on="1"/>
        <pt x="597" y="161" on="0"/>
        <pt x="608" y="153" on="0"/>
        <pt x="608" y="147" on="0"/>
        <pt x="606" y="145" on="1"/>
        <pt x="532" y="44" on="0"/>
        <pt x="316" y="-58" on="0"/>
        <pt x="215" y="-58" on="1"/>
        <pt x="109" y="-58" on="0"/>
        <pt x="55" y="2" on="1"/>
        <pt x="20" y="41" on="0"/>
        <pt x="20" y="104" on="1"/>
        <pt x="20" y="210" on="0"/>
        <pt x="100" y="332" on="1"/>
        <pt x="209" y="498" on="0"/>
        <pt x="364" y="562" on="1"/>
        <pt x="424" y="586" on="0"/>
        <pt x="479" y="586" on="1"/>
        <pt x="547" y="586" on="0"/>
        <pt x="576" y="554" on="1"/>
        <pt x="595" y="532" on="0"/>
        <pt x="595" y="503" on="1"/>
        <pt x="595" y="448" on="0"/>
        <pt x="479" y="332" on="0"/>
        <pt x="338" y="263" on="0"/>
        <pt x="286" y="258" on="1"/>
        <pt x="265" y="256" on="0"/>
        <pt x="266" y="269" on="1"/>
        <pt x="267" y="287" on="0"/>
        <pt x="291" y="289" on="1"/>
        <pt x="371" y="296" on="0"/>
        <pt x="505" y="379" on="0"/>
        <pt x="541" y="448" on="1"/>
        <pt x="558" y="475" on="0"/>
      </contour>
      <contour>
        <pt x="557" y="734" on="0"/>
        <pt x="575" y="734" on="0"/>
        <pt x="575" y="722" on="1"/>
        <pt x="575" y="702" on="1"/>
        <pt x="575" y="692" on="0"/>
        <pt x="546" y="649" on="0"/>
        <pt x="537" y="649" on="1"/>
        <pt x="491" y="649" on="0"/>
        <pt x="491" y="673" on="1"/>
        <pt x="491" y="676" on="0"/>
        <pt x="529" y="712" on="0"/>
        <pt x="536" y="718" on="1"/>
      </contour>
    </TTGlyph>
    <TTGlyph name="D" xMin="79" yMin="-55" xMax="907" yMax="573">
      <contour>
        <pt x="81" y="309" on="1"/>
        <pt x="79" y="325" on="1"/>
        <pt x="79" y="395" on="0"/>
        <pt x="140" y="450" on="1"/>
        <pt x="249" y="547" on="0"/>
        <pt x="492" y="570" on="1"/>
        <pt x="529" y="573" on="0"/>
        <pt x="628" y="573" on="0"/>
        <pt x="780" y="544" on="0"/>
        <pt x="829" y="505" on="1"/>
        <pt x="907" y="441" on="0"/>
        <pt x="907" y="234" on="0"/>
        <pt x="784" y="59" on="0"/>
        <pt x="594" y="-37" on="0"/>
        <pt x="378" y="-37" on="0"/>
        <pt x="311" y="14" on="1"/>
        <pt x="310" y="13" on="0"/>
        <pt x="293" y="-19" on="0"/>
        <pt x="284" y="-34" on="1"/>
        <pt x="238" y="-107" on="0"/>
        <pt x="202" y="-54" on="1"/>
        <pt x="181" y="-23" on="0"/>
        <pt x="181" y="63" on="0"/>
        <pt x="190" y="124" on="1"/>
        <pt x="191" y="130" on="0"/>
        <pt x="182" y="152" on="1"/>
        <pt x="179" y="162" on="0"/>
        <pt x="189" y="172" on="1"/>
        <pt x="197" y="178" on="0"/>
        <pt x="226" y="186" on="0"/>
        <pt x="237" y="178" on="0"/>
        <pt x="221" y="143" on="0"/>
        <pt x="221" y="113" on="0"/>
        <pt x="283" y="54" on="0"/>
        <pt x="290" y="52" on="1"/>
        <pt x="314" y="111" on="0"/>
        <pt x="392" y="273" on="1"/>
        <pt x="401" y="291" on="0"/>
        <pt x="401" y="309" on="0"/>
        <pt x="399" y="314" on="1"/>
        <pt x="404" y="343" on="0"/>
        <pt x="521" y="469" on="0"/>
        <pt x="557" y="469" on="1"/>
        <pt x="571" y="469" on="0"/>
        <pt x="613" y="450" on="0"/>
        <pt x="616" y="433" on="1"/>
        <pt x="616" y="427" on="0"/>
        <pt x="614" y="426" on="0"/>
        <pt x="606" y="430" on="0"/>
        <pt x="604" y="430" on="1"/>
        <pt x="572" y="430" on="0"/>
        <pt x="485" y="337" on="0"/>
        <pt x="442" y="262" on="1"/>
        <pt x="366" y="132" on="0"/>
        <pt x="320" y="32" on="1"/>
        <pt x="382" y="-13" on="0"/>
        <pt x="455" y="-13" on="1"/>
        <pt x="550" y="-13" on="0"/>
        <pt x="724" y="85" on="0"/>
        <pt x="777" y="149" on="1"/>
        <pt x="863" y="254" on="0"/>
        <pt x="863" y="356" on="1"/>
        <pt x="863" y="431" on="0"/>
        <pt x="744" y="549" on="0"/>
        <pt x="615" y="553" on="1"/>
        <pt x="609" y="553" on="0"/>
        <pt x="603" y="553" on="1"/>
        <pt x="501" y="553" on="0"/>
        <pt x="275" y="486" on="0"/>
        <pt x="115" y="362" on="0"/>
        <pt x="115" y="295" on="1"/>
        <pt x="115" y="278" on="0"/>
        <pt x="136" y="252" on="0"/>
        <pt x="159" y="242" on="0"/>
        <pt x="194" y="230" on="0"/>
        <pt x="205" y="225" on="0"/>
        <pt x="206" y="222" on="1"/>
        <pt x="208" y="214" on="0"/>
        <pt x="192" y="214" on="1"/>
        <pt x="155" y="217" on="0"/>
        <pt x="80" y="266" on="0"/>
        <pt x="80" y="299" on="1"/>
        <pt x="80" y="304" on="0"/>
      </contour>
      <contour>
        <pt x="216" y="90" on="1"/>
        <pt x="216" y="-45" on="0"/>
        <pt x="235" y="-45" on="1"/>
        <pt x="249" y="-45" on="0"/>
        <pt x="275" y="25" on="1"/>
        <pt x="277" y="28" on="0"/>
        <pt x="277" y="29" on="1"/>
        <pt x="270" y="35" on="0"/>
        <pt x="225" y="82" on="0"/>
      </contour>
    </TTGlyph>
    <TTGlyph name="Dcaron" xMin="79" yMin="-55" xMax="907" yMax="736">
      <contour>
        <pt x="81" y="309" on="1"/>
        <pt x="79" y="325" on="1"/>
        <pt x="79" y="395" on="0"/>
        <pt x="140" y="450" on="1"/>
        <pt x="249" y="547" on="0"/>
        <pt x="492" y="570" on="1"/>
        <pt x="529" y="573" on="0"/>
        <pt x="628" y="573" on="0"/>
        <pt x="780" y="544" on="0"/>
        <pt x="829" y="505" on="1"/>
        <pt x="907" y="441" on="0"/>
        <pt x="907" y="234" on="0"/>
        <pt x="784" y="59" on="0"/>
        <pt x="594" y="-37" on="0"/>
        <pt x="378" y="-37" on="0"/>
        <pt x="311" y="14" on="1"/>
        <pt x="310" y="13" on="0"/>
        <pt x="293" y="-19" on="0"/>
        <pt x="284" y="-34" on="1"/>
        <pt x="238" y="-107" on="0"/>
        <pt x="202" y="-54" on="1"/>
        <pt x="181" y="-23" on="0"/>
        <pt x="181" y="63" on="0"/>
        <pt x="190" y="124" on="1"/>
        <pt x="191" y="130" on="0"/>
        <pt x="182" y="152" on="1"/>
        <pt x="179" y="162" on="0"/>
        <pt x="189" y="172" on="1"/>
        <pt x="197" y="178" on="0"/>
        <pt x="226" y="186" on="0"/>
        <pt x="237" y="178" on="0"/>
        <pt x="221" y="143" on="0"/>
        <pt x="221" y="113" on="0"/>
        <pt x="283" y="54" on="0"/>
        <pt x="290" y="52" on="1"/>
        <pt x="314" y="111" on="0"/>
        <pt x="392" y="273" on="1"/>
        <pt x="401" y="291" on="0"/>
        <pt x="401" y="309" on="0"/>
        <pt x="399" y="314" on="1"/>
        <pt x="404" y="343" on="0"/>
        <pt x="521" y="469" on="0"/>
        <pt x="557" y="469" on="1"/>
        <pt x="571" y="469" on="0"/>
        <pt x="613" y="450" on="0"/>
        <pt x="616" y="433" on="1"/>
        <pt x="616" y="427" on="0"/>
        <pt x="614" y="426" on="0"/>
        <pt x="606" y="430" on="0"/>
        <pt x="604" y="430" on="1"/>
        <pt x="572" y="430" on="0"/>
        <pt x="485" y="337" on="0"/>
        <pt x="442" y="262" on="1"/>
        <pt x="366" y="132" on="0"/>
        <pt x="320" y="32" on="1"/>
        <pt x="382" y="-13" on="0"/>
        <pt x="455" y="-13" on="1"/>
        <pt x="550" y="-13" on="0"/>
        <pt x="724" y="85" on="0"/>
        <pt x="777" y="149" on="1"/>
        <pt x="863" y="254" on="0"/>
        <pt x="863" y="356" on="1"/>
        <pt x="863" y="431" on="0"/>
        <pt x="744" y="549" on="0"/>
        <pt x="615" y="553" on="1"/>
        <pt x="609" y="553" on="0"/>
        <pt x="603" y="553" on="1"/>
        <pt x="501" y="553" on="0"/>
        <pt x="275" y="486" on="0"/>
        <pt x="115" y="362" on="0"/>
        <pt x="115" y="295" on="1"/>
        <pt x="115" y="278" on="0"/>
        <pt x="136" y="252" on="0"/>
        <pt x="159" y="242" on="0"/>
        <pt x="194" y="230" on="0"/>
        <pt x="205" y="225" on="0"/>
        <pt x="206" y="222" on="1"/>
        <pt x="208" y="214" on="0"/>
        <pt x="192" y="214" on="1"/>
        <pt x="155" y="217" on="0"/>
        <pt x="80" y="266" on="0"/>
        <pt x="80" y="299" on="1"/>
        <pt x="80" y="304" on="0"/>
      </contour>
      <contour>
        <pt x="216" y="90" on="1"/>
        <pt x="216" y="-45" on="0"/>
        <pt x="235" y="-45" on="1"/>
        <pt x="249" y="-45" on="0"/>
        <pt x="275" y="25" on="1"/>
        <pt x="277" y="28" on="0"/>
        <pt x="277" y="29" on="1"/>
        <pt x="270" y="35" on="0"/>
        <pt x="225" y="82" on="0"/>
      </contour>
      <contour>
        <pt x="564" y="715" on="1"/>
        <pt x="559" y="722" on="0"/>
        <pt x="559" y="735" on="0"/>
        <pt x="569" y="735" on="0"/>
        <pt x="576" y="728" on="0"/>
        <pt x="651" y="667" on="0"/>
        <pt x="657" y="659" on="1"/>
        <pt x="675" y="670" on="0"/>
        <pt x="733" y="716" on="0"/>
        <pt x="765" y="737" on="0"/>
        <pt x="766" y="729" on="1"/>
        <pt x="766" y="720" on="0"/>
        <pt x="750" y="706" on="0"/>
        <pt x="724" y="683" on="1"/>
        <pt x="658" y="623" on="0"/>
        <pt x="645" y="623" on="1"/>
        <pt x="619" y="632" on="0"/>
      </contour>
    </TTGlyph>
    <TTGlyph name="Dcroat" xMin="79" yMin="-55" xMax="907" yMax="573">
      <contour>
        <pt x="81" y="309" on="1"/>
        <pt x="79" y="325" on="1"/>
        <pt x="79" y="395" on="0"/>
        <pt x="140" y="450" on="1"/>
        <pt x="249" y="547" on="0"/>
        <pt x="492" y="570" on="1"/>
        <pt x="529" y="573" on="0"/>
        <pt x="628" y="573" on="0"/>
        <pt x="780" y="544" on="0"/>
        <pt x="829" y="505" on="1"/>
        <pt x="907" y="441" on="0"/>
        <pt x="907" y="234" on="0"/>
        <pt x="784" y="59" on="0"/>
        <pt x="594" y="-37" on="0"/>
        <pt x="378" y="-37" on="0"/>
        <pt x="311" y="14" on="1"/>
        <pt x="310" y="13" on="0"/>
        <pt x="293" y="-19" on="0"/>
        <pt x="284" y="-34" on="1"/>
        <pt x="238" y="-107" on="0"/>
        <pt x="202" y="-54" on="1"/>
        <pt x="181" y="-23" on="0"/>
        <pt x="181" y="63" on="0"/>
        <pt x="190" y="124" on="1"/>
        <pt x="191" y="130" on="0"/>
        <pt x="182" y="152" on="1"/>
        <pt x="179" y="162" on="0"/>
        <pt x="189" y="172" on="1"/>
        <pt x="197" y="178" on="0"/>
        <pt x="226" y="186" on="0"/>
        <pt x="237" y="178" on="0"/>
        <pt x="221" y="143" on="0"/>
        <pt x="221" y="113" on="0"/>
        <pt x="283" y="54" on="0"/>
        <pt x="290" y="52" on="1"/>
        <pt x="313" y="104" on="0"/>
        <pt x="345" y="173" on="1"/>
        <pt x="324" y="172" on="0"/>
        <pt x="269" y="170" on="0"/>
        <pt x="272" y="196" on="0"/>
        <pt x="291" y="205" on="1"/>
        <pt x="297" y="208" on="0"/>
        <pt x="302" y="208" on="1"/>
        <pt x="361" y="208" on="1"/>
        <pt x="367" y="222" on="0"/>
        <pt x="389" y="265" on="0"/>
        <pt x="401" y="291" on="0"/>
        <pt x="401" y="309" on="0"/>
        <pt x="399" y="314" on="1"/>
        <pt x="404" y="343" on="0"/>
        <pt x="521" y="469" on="0"/>
        <pt x="557" y="469" on="1"/>
        <pt x="571" y="469" on="0"/>
        <pt x="613" y="450" on="0"/>
        <pt x="616" y="433" on="1"/>
        <pt x="616" y="427" on="0"/>
        <pt x="614" y="426" on="0"/>
        <pt x="606" y="430" on="0"/>
        <pt x="604" y="430" on="1"/>
        <pt x="534" y="430" on="0"/>
        <pt x="410" y="209" on="1"/>
        <pt x="451" y="209" on="1"/>
        <pt x="504" y="209" on="0"/>
        <pt x="506" y="197" on="1"/>
        <pt x="506" y="187" on="0"/>
        <pt x="468" y="182" on="1"/>
        <pt x="452" y="180" on="1"/>
        <pt x="392" y="175" on="1"/>
        <pt x="358" y="113" on="0"/>
        <pt x="320" y="32" on="1"/>
        <pt x="382" y="-13" on="0"/>
        <pt x="455" y="-13" on="1"/>
        <pt x="550" y="-13" on="0"/>
        <pt x="724" y="85" on="0"/>
        <pt x="777" y="149" on="1"/>
        <pt x="863" y="254" on="0"/>
        <pt x="863" y="356" on="1"/>
        <pt x="863" y="431" on="0"/>
        <pt x="744" y="549" on="0"/>
        <pt x="615" y="553" on="1"/>
        <pt x="609" y="553" on="0"/>
        <pt x="603" y="553" on="1"/>
        <pt x="501" y="553" on="0"/>
        <pt x="275" y="486" on="0"/>
        <pt x="115" y="362" on="0"/>
        <pt x="115" y="295" on="1"/>
        <pt x="115" y="278" on="0"/>
        <pt x="136" y="252" on="0"/>
        <pt x="159" y="242" on="0"/>
        <pt x="194" y="230" on="0"/>
        <pt x="205" y="225" on="0"/>
        <pt x="206" y="222" on="1"/>
        <pt x="208" y="214" on="0"/>
        <pt x="192" y="214" on="1"/>
        <pt x="155" y="217" on="0"/>
        <pt x="80" y="266" on="0"/>
        <pt x="80" y="299" on="1"/>
        <pt x="80" y="304" on="0"/>
      </contour>
      <contour>
        <pt x="216" y="90" on="1"/>
        <pt x="216" y="-45" on="0"/>
        <pt x="235" y="-45" on="1"/>
        <pt x="249" y="-45" on="0"/>
        <pt x="275" y="25" on="1"/>
        <pt x="277" y="28" on="0"/>
        <pt x="277" y="29" on="1"/>
        <pt x="270" y="35" on="0"/>
        <pt x="225" y="82" on="0"/>
      </contour>
    </TTGlyph>
    <TTGlyph name="Delta" xMin="36" yMin="-17" xMax="530" yMax="540">
      <contour>
        <pt x="52" y="-17" on="1"/>
        <pt x="46" y="-17" on="0"/>
        <pt x="36" y="1" on="0"/>
        <pt x="36" y="6" on="1"/>
        <pt x="36" y="19" on="0"/>
        <pt x="42" y="25" on="1"/>
        <pt x="345" y="503" on="1"/>
        <pt x="353" y="517" on="0"/>
        <pt x="377" y="540" on="0"/>
        <pt x="386" y="540" on="0"/>
        <pt x="387" y="539" on="1"/>
        <pt x="389" y="539" on="1"/>
        <pt x="390" y="538" on="1"/>
        <pt x="527" y="63" on="1"/>
        <pt x="529" y="58" on="1"/>
        <pt x="529" y="57" on="0"/>
        <pt x="527" y="55" on="1"/>
        <pt x="525" y="30" on="0"/>
        <pt x="489" y="-8" on="0"/>
        <pt x="470" y="-17" on="1"/>
      </contour>
      <contour>
        <pt x="80" y="30" on="1"/>
        <pt x="467" y="30" on="1"/>
        <pt x="347" y="455" on="1"/>
      </contour>
    </TTGlyph>
    <TTGlyph name="E" xMin="24" yMin="-75" xMax="723" yMax="592">
      <contour>
        <pt x="566" y="510" on="0"/>
        <pt x="580" y="509" on="0"/>
        <pt x="591" y="499" on="0"/>
        <pt x="614" y="443" on="0"/>
        <pt x="614" y="406" on="0"/>
        <pt x="605" y="365" on="0"/>
        <pt x="595" y="365" on="1"/>
        <pt x="578" y="365" on="0"/>
        <pt x="556" y="444" on="0"/>
        <pt x="551" y="454" on="1"/>
        <pt x="523" y="513" on="0"/>
        <pt x="491" y="540" on="1"/>
        <pt x="462" y="567" on="0"/>
        <pt x="432" y="567" on="1"/>
        <pt x="419" y="567" on="0"/>
        <pt x="406" y="562" on="1"/>
        <pt x="342" y="535" on="0"/>
        <pt x="342" y="436" on="1"/>
        <pt x="342" y="404" on="0"/>
        <pt x="366" y="317" on="0"/>
        <pt x="391" y="284" on="1"/>
        <pt x="396" y="278" on="0"/>
        <pt x="444" y="274" on="1"/>
        <pt x="469" y="271" on="0"/>
        <pt x="477" y="242" on="0"/>
        <pt x="461" y="234" on="1"/>
        <pt x="452" y="223" on="0"/>
        <pt x="392" y="240" on="1"/>
        <pt x="376" y="244" on="0"/>
        <pt x="371" y="245" on="1"/>
        <pt x="317" y="244" on="0"/>
        <pt x="181" y="198" on="0"/>
        <pt x="67" y="103" on="0"/>
        <pt x="67" y="46" on="1"/>
        <pt x="67" y="3" on="0"/>
        <pt x="137" y="-50" on="0"/>
        <pt x="292" y="-50" on="0"/>
        <pt x="483" y="-2" on="0"/>
        <pt x="592" y="54" on="0"/>
        <pt x="698" y="156" on="0"/>
        <pt x="698" y="193" on="1"/>
        <pt x="698" y="199" on="0"/>
        <pt x="697" y="207" on="0"/>
        <pt x="699" y="208" on="1"/>
        <pt x="705" y="211" on="0"/>
        <pt x="709" y="207" on="1"/>
        <pt x="722" y="182" on="0"/>
        <pt x="722" y="168" on="1"/>
        <pt x="722" y="127" on="0"/>
        <pt x="695" y="94" on="1"/>
        <pt x="648" y="37" on="0"/>
        <pt x="530" y="-29" on="0"/>
        <pt x="325" y="-75" on="0"/>
        <pt x="189" y="-75" on="0"/>
        <pt x="94" y="-51" on="0"/>
        <pt x="24" y="21" on="0"/>
        <pt x="24" y="126" on="0"/>
        <pt x="75" y="199" on="0"/>
        <pt x="146" y="239" on="0"/>
        <pt x="196" y="252" on="1"/>
        <pt x="270" y="272" on="0"/>
        <pt x="361" y="277" on="1"/>
        <pt x="296" y="351" on="0"/>
        <pt x="284" y="448" on="1"/>
        <pt x="283" y="459" on="0"/>
        <pt x="283" y="469" on="1"/>
        <pt x="283" y="505" on="0"/>
        <pt x="318" y="566" on="0"/>
        <pt x="400" y="592" on="0"/>
        <pt x="440" y="592" on="0"/>
        <pt x="459" y="587" on="0"/>
        <pt x="473" y="582" on="0"/>
        <pt x="487" y="573" on="0"/>
        <pt x="497" y="567" on="0"/>
        <pt x="511" y="554" on="0"/>
        <pt x="517" y="549" on="0"/>
        <pt x="533" y="534" on="0"/>
        <pt x="535" y="533" on="1"/>
        <pt x="550" y="515" on="0"/>
        <pt x="564" y="512" on="1"/>
      </contour>
    </TTGlyph>
    <TTGlyph name="Eacute" xMin="24" yMin="-75" xMax="723" yMax="757">
      <contour>
        <pt x="458" y="587" on="0"/>
        <pt x="471" y="582" on="0"/>
        <pt x="482" y="577" on="0"/>
        <pt x="494" y="569" on="0"/>
        <pt x="502" y="563" on="0"/>
        <pt x="514" y="552" on="0"/>
        <pt x="526" y="542" on="0"/>
        <pt x="535" y="533" on="1"/>
        <pt x="550" y="515" on="0"/>
        <pt x="564" y="512" on="1"/>
        <pt x="566" y="510" on="0"/>
        <pt x="580" y="509" on="0"/>
        <pt x="591" y="499" on="0"/>
        <pt x="614" y="442" on="0"/>
        <pt x="614" y="405" on="0"/>
        <pt x="605" y="364" on="0"/>
        <pt x="595" y="364" on="1"/>
        <pt x="579" y="364" on="0"/>
        <pt x="564" y="414" on="1"/>
        <pt x="556" y="444" on="0"/>
        <pt x="551" y="454" on="1"/>
        <pt x="523" y="513" on="0"/>
        <pt x="491" y="540" on="1"/>
        <pt x="462" y="567" on="0"/>
        <pt x="432" y="567" on="1"/>
        <pt x="419" y="567" on="0"/>
        <pt x="406" y="562" on="1"/>
        <pt x="358" y="542" on="0"/>
        <pt x="347" y="484" on="1"/>
        <pt x="342" y="460" on="0"/>
        <pt x="342" y="404" on="0"/>
        <pt x="366" y="317" on="0"/>
        <pt x="391" y="284" on="1"/>
        <pt x="396" y="278" on="0"/>
        <pt x="444" y="274" on="1"/>
        <pt x="469" y="271" on="0"/>
        <pt x="477" y="242" on="0"/>
        <pt x="461" y="234" on="1"/>
        <pt x="456" y="227" on="0"/>
        <pt x="418" y="234" on="1"/>
        <pt x="408" y="235" on="0"/>
        <pt x="376" y="244" on="0"/>
        <pt x="371" y="245" on="1"/>
        <pt x="317" y="244" on="0"/>
        <pt x="181" y="198" on="0"/>
        <pt x="67" y="103" on="0"/>
        <pt x="67" y="46" on="1"/>
        <pt x="67" y="3" on="0"/>
        <pt x="137" y="-50" on="0"/>
        <pt x="292" y="-50" on="0"/>
        <pt x="483" y="-2" on="0"/>
        <pt x="592" y="54" on="0"/>
        <pt x="698" y="156" on="0"/>
        <pt x="698" y="193" on="1"/>
        <pt x="698" y="199" on="0"/>
        <pt x="697" y="207" on="0"/>
        <pt x="704" y="212" on="0"/>
        <pt x="709" y="207" on="1"/>
        <pt x="722" y="182" on="0"/>
        <pt x="722" y="127" on="0"/>
        <pt x="692" y="90" on="1"/>
        <pt x="668" y="61" on="0"/>
        <pt x="642" y="40" on="1"/>
        <pt x="566" y="-21" on="0"/>
        <pt x="428" y="-52" on="1"/>
        <pt x="325" y="-75" on="0"/>
        <pt x="189" y="-75" on="0"/>
        <pt x="94" y="-51" on="0"/>
        <pt x="24" y="21" on="0"/>
        <pt x="24" y="126" on="0"/>
        <pt x="75" y="199" on="0"/>
        <pt x="110" y="219" on="1"/>
        <pt x="199" y="269" on="0"/>
        <pt x="361" y="277" on="1"/>
        <pt x="332" y="310" on="0"/>
        <pt x="283" y="416" on="0"/>
        <pt x="283" y="469" on="1"/>
        <pt x="283" y="505" on="0"/>
        <pt x="318" y="566" on="0"/>
        <pt x="400" y="592" on="0"/>
        <pt x="440" y="592" on="0"/>
      </contour>
      <contour>
        <pt x="600" y="705" on="0"/>
        <pt x="470" y="643" on="0"/>
        <pt x="449" y="642" on="0"/>
        <pt x="449" y="649" on="0"/>
        <pt x="453" y="654" on="0"/>
        <pt x="464" y="662" on="1"/>
        <pt x="497" y="684" on="0"/>
        <pt x="515" y="699" on="0"/>
        <pt x="532" y="712" on="1"/>
        <pt x="570" y="738" on="0"/>
        <pt x="582" y="755" on="1"/>
        <pt x="590" y="757" on="0"/>
        <pt x="597" y="757" on="0"/>
        <pt x="611" y="752" on="1"/>
        <pt x="623" y="745" on="0"/>
        <pt x="623" y="734" on="1"/>
        <pt x="623" y="725" on="0"/>
        <pt x="616" y="718" on="1"/>
      </contour>
    </TTGlyph>
    <TTGlyph name="Ebreve" xMin="24" yMin="-75" xMax="723" yMax="770">
      <contour>
        <pt x="566" y="510" on="0"/>
        <pt x="580" y="509" on="0"/>
        <pt x="591" y="499" on="0"/>
        <pt x="614" y="443" on="0"/>
        <pt x="614" y="406" on="0"/>
        <pt x="605" y="365" on="0"/>
        <pt x="595" y="365" on="1"/>
        <pt x="578" y="365" on="0"/>
        <pt x="556" y="444" on="0"/>
        <pt x="551" y="454" on="1"/>
        <pt x="523" y="513" on="0"/>
        <pt x="491" y="540" on="1"/>
        <pt x="462" y="567" on="0"/>
        <pt x="432" y="567" on="1"/>
        <pt x="419" y="567" on="0"/>
        <pt x="406" y="562" on="1"/>
        <pt x="342" y="535" on="0"/>
        <pt x="342" y="436" on="1"/>
        <pt x="342" y="404" on="0"/>
        <pt x="366" y="317" on="0"/>
        <pt x="391" y="284" on="1"/>
        <pt x="396" y="278" on="0"/>
        <pt x="444" y="274" on="1"/>
        <pt x="469" y="271" on="0"/>
        <pt x="477" y="242" on="0"/>
        <pt x="461" y="234" on="1"/>
        <pt x="452" y="223" on="0"/>
        <pt x="392" y="240" on="1"/>
        <pt x="376" y="244" on="0"/>
        <pt x="371" y="245" on="1"/>
        <pt x="317" y="244" on="0"/>
        <pt x="181" y="198" on="0"/>
        <pt x="67" y="103" on="0"/>
        <pt x="67" y="46" on="1"/>
        <pt x="67" y="3" on="0"/>
        <pt x="137" y="-50" on="0"/>
        <pt x="292" y="-50" on="0"/>
        <pt x="483" y="-2" on="0"/>
        <pt x="592" y="54" on="0"/>
        <pt x="698" y="156" on="0"/>
        <pt x="698" y="193" on="1"/>
        <pt x="698" y="199" on="0"/>
        <pt x="697" y="207" on="0"/>
        <pt x="699" y="208" on="1"/>
        <pt x="705" y="211" on="0"/>
        <pt x="709" y="207" on="1"/>
        <pt x="722" y="182" on="0"/>
        <pt x="722" y="168" on="1"/>
        <pt x="722" y="127" on="0"/>
        <pt x="695" y="94" on="1"/>
        <pt x="648" y="37" on="0"/>
        <pt x="530" y="-29" on="0"/>
        <pt x="325" y="-75" on="0"/>
        <pt x="189" y="-75" on="0"/>
        <pt x="94" y="-51" on="0"/>
        <pt x="24" y="21" on="0"/>
        <pt x="24" y="126" on="0"/>
        <pt x="75" y="199" on="0"/>
        <pt x="146" y="239" on="0"/>
        <pt x="196" y="252" on="1"/>
        <pt x="270" y="272" on="0"/>
        <pt x="361" y="277" on="1"/>
        <pt x="296" y="351" on="0"/>
        <pt x="284" y="448" on="1"/>
        <pt x="283" y="459" on="0"/>
        <pt x="283" y="469" on="1"/>
        <pt x="283" y="505" on="0"/>
        <pt x="318" y="566" on="0"/>
        <pt x="400" y="592" on="0"/>
        <pt x="440" y="592" on="0"/>
        <pt x="459" y="587" on="0"/>
        <pt x="473" y="582" on="0"/>
        <pt x="487" y="573" on="0"/>
        <pt x="497" y="567" on="0"/>
        <pt x="511" y="554" on="0"/>
        <pt x="517" y="549" on="0"/>
        <pt x="533" y="534" on="0"/>
        <pt x="535" y="533" on="1"/>
        <pt x="550" y="515" on="0"/>
        <pt x="564" y="512" on="1"/>
      </contour>
      <contour>
        <pt x="547" y="650" on="1"/>
        <pt x="509" y="632" on="0"/>
        <pt x="450" y="632" on="0"/>
        <pt x="427" y="641" on="1"/>
        <pt x="377" y="663" on="0"/>
        <pt x="377" y="722" on="1"/>
        <pt x="377" y="759" on="0"/>
        <pt x="399" y="769" on="0"/>
        <pt x="414" y="759" on="0"/>
        <pt x="414" y="747" on="1"/>
        <pt x="414" y="694" on="0"/>
        <pt x="455" y="671" on="1"/>
        <pt x="476" y="659" on="0"/>
        <pt x="522" y="659" on="0"/>
        <pt x="548" y="672" on="1"/>
        <pt x="600" y="697" on="0"/>
        <pt x="622" y="765" on="1"/>
        <pt x="624" y="769" on="0"/>
        <pt x="628" y="769" on="0"/>
        <pt x="636" y="763" on="0"/>
        <pt x="636" y="755" on="1"/>
        <pt x="619" y="684" on="0"/>
      </contour>
    </TTGlyph>
    <TTGlyph name="Ecaron" xMin="24" yMin="-75" xMax="723" yMax="746">
      <contour>
        <pt x="566" y="510" on="0"/>
        <pt x="580" y="509" on="0"/>
        <pt x="591" y="499" on="0"/>
        <pt x="614" y="443" on="0"/>
        <pt x="614" y="406" on="0"/>
        <pt x="605" y="365" on="0"/>
        <pt x="595" y="365" on="1"/>
        <pt x="578" y="365" on="0"/>
        <pt x="556" y="444" on="0"/>
        <pt x="551" y="454" on="1"/>
        <pt x="523" y="513" on="0"/>
        <pt x="491" y="540" on="1"/>
        <pt x="462" y="567" on="0"/>
        <pt x="432" y="567" on="1"/>
        <pt x="419" y="567" on="0"/>
        <pt x="406" y="562" on="1"/>
        <pt x="342" y="535" on="0"/>
        <pt x="342" y="436" on="1"/>
        <pt x="342" y="404" on="0"/>
        <pt x="366" y="317" on="0"/>
        <pt x="391" y="284" on="1"/>
        <pt x="396" y="278" on="0"/>
        <pt x="444" y="274" on="1"/>
        <pt x="469" y="271" on="0"/>
        <pt x="477" y="242" on="0"/>
        <pt x="461" y="234" on="1"/>
        <pt x="452" y="223" on="0"/>
        <pt x="392" y="240" on="1"/>
        <pt x="376" y="244" on="0"/>
        <pt x="371" y="245" on="1"/>
        <pt x="317" y="244" on="0"/>
        <pt x="181" y="198" on="0"/>
        <pt x="67" y="103" on="0"/>
        <pt x="67" y="46" on="1"/>
        <pt x="67" y="3" on="0"/>
        <pt x="137" y="-50" on="0"/>
        <pt x="292" y="-50" on="0"/>
        <pt x="483" y="-2" on="0"/>
        <pt x="592" y="54" on="0"/>
        <pt x="698" y="156" on="0"/>
        <pt x="698" y="193" on="1"/>
        <pt x="698" y="199" on="0"/>
        <pt x="697" y="207" on="0"/>
        <pt x="699" y="208" on="1"/>
        <pt x="705" y="211" on="0"/>
        <pt x="709" y="207" on="1"/>
        <pt x="722" y="182" on="0"/>
        <pt x="722" y="168" on="1"/>
        <pt x="722" y="127" on="0"/>
        <pt x="695" y="94" on="1"/>
        <pt x="648" y="37" on="0"/>
        <pt x="530" y="-29" on="0"/>
        <pt x="325" y="-75" on="0"/>
        <pt x="189" y="-75" on="0"/>
        <pt x="94" y="-51" on="0"/>
        <pt x="24" y="21" on="0"/>
        <pt x="24" y="126" on="0"/>
        <pt x="75" y="199" on="0"/>
        <pt x="146" y="239" on="0"/>
        <pt x="196" y="252" on="1"/>
        <pt x="270" y="272" on="0"/>
        <pt x="361" y="277" on="1"/>
        <pt x="296" y="351" on="0"/>
        <pt x="284" y="448" on="1"/>
        <pt x="283" y="459" on="0"/>
        <pt x="283" y="469" on="1"/>
        <pt x="283" y="505" on="0"/>
        <pt x="318" y="566" on="0"/>
        <pt x="400" y="592" on="0"/>
        <pt x="440" y="592" on="0"/>
        <pt x="459" y="587" on="0"/>
        <pt x="473" y="582" on="0"/>
        <pt x="487" y="573" on="0"/>
        <pt x="497" y="567" on="0"/>
        <pt x="511" y="554" on="0"/>
        <pt x="517" y="549" on="0"/>
        <pt x="533" y="534" on="0"/>
        <pt x="535" y="533" on="1"/>
        <pt x="550" y="515" on="0"/>
        <pt x="564" y="512" on="1"/>
      </contour>
      <contour>
        <pt x="417" y="725" on="1"/>
        <pt x="413" y="732" on="0"/>
        <pt x="413" y="745" on="0"/>
        <pt x="422" y="745" on="0"/>
        <pt x="430" y="738" on="0"/>
        <pt x="471" y="704" on="0"/>
        <pt x="506" y="675" on="0"/>
        <pt x="511" y="669" on="1"/>
        <pt x="529" y="680" on="0"/>
        <pt x="587" y="726" on="0"/>
        <pt x="619" y="747" on="0"/>
        <pt x="620" y="739" on="1"/>
        <pt x="620" y="730" on="0"/>
        <pt x="609" y="720" on="1"/>
        <pt x="603" y="716" on="0"/>
        <pt x="578" y="693" on="1"/>
        <pt x="513" y="633" on="0"/>
        <pt x="499" y="633" on="1"/>
        <pt x="476" y="641" on="0"/>
      </contour>
    </TTGlyph>
    <TTGlyph name="Ecircumflex" xMin="24" yMin="-75" xMax="723" yMax="734">
      <contour>
        <pt x="458" y="587" on="0"/>
        <pt x="471" y="582" on="0"/>
        <pt x="482" y="577" on="0"/>
        <pt x="494" y="569" on="0"/>
        <pt x="502" y="563" on="0"/>
        <pt x="514" y="552" on="0"/>
        <pt x="526" y="542" on="0"/>
        <pt x="535" y="533" on="1"/>
        <pt x="550" y="515" on="0"/>
        <pt x="564" y="512" on="1"/>
        <pt x="566" y="510" on="0"/>
        <pt x="580" y="509" on="0"/>
        <pt x="591" y="499" on="0"/>
        <pt x="614" y="442" on="0"/>
        <pt x="614" y="405" on="0"/>
        <pt x="605" y="364" on="0"/>
        <pt x="595" y="364" on="1"/>
        <pt x="579" y="364" on="0"/>
        <pt x="564" y="414" on="1"/>
        <pt x="556" y="444" on="0"/>
        <pt x="551" y="454" on="1"/>
        <pt x="523" y="513" on="0"/>
        <pt x="491" y="540" on="1"/>
        <pt x="462" y="567" on="0"/>
        <pt x="432" y="567" on="1"/>
        <pt x="419" y="567" on="0"/>
        <pt x="406" y="562" on="1"/>
        <pt x="358" y="542" on="0"/>
        <pt x="347" y="484" on="1"/>
        <pt x="342" y="460" on="0"/>
        <pt x="342" y="404" on="0"/>
        <pt x="366" y="317" on="0"/>
        <pt x="391" y="284" on="1"/>
        <pt x="396" y="278" on="0"/>
        <pt x="444" y="274" on="1"/>
        <pt x="469" y="271" on="0"/>
        <pt x="477" y="242" on="0"/>
        <pt x="461" y="234" on="1"/>
        <pt x="456" y="227" on="0"/>
        <pt x="418" y="234" on="1"/>
        <pt x="408" y="235" on="0"/>
        <pt x="376" y="244" on="0"/>
        <pt x="371" y="245" on="1"/>
        <pt x="317" y="244" on="0"/>
        <pt x="181" y="198" on="0"/>
        <pt x="67" y="103" on="0"/>
        <pt x="67" y="46" on="1"/>
        <pt x="67" y="3" on="0"/>
        <pt x="137" y="-50" on="0"/>
        <pt x="292" y="-50" on="0"/>
        <pt x="483" y="-2" on="0"/>
        <pt x="592" y="54" on="0"/>
        <pt x="698" y="156" on="0"/>
        <pt x="698" y="193" on="1"/>
        <pt x="698" y="199" on="0"/>
        <pt x="697" y="207" on="0"/>
        <pt x="704" y="212" on="0"/>
        <pt x="709" y="207" on="1"/>
        <pt x="722" y="182" on="0"/>
        <pt x="722" y="127" on="0"/>
        <pt x="692" y="90" on="1"/>
        <pt x="668" y="61" on="0"/>
        <pt x="642" y="40" on="1"/>
        <pt x="566" y="-21" on="0"/>
        <pt x="428" y="-52" on="1"/>
        <pt x="325" y="-75" on="0"/>
        <pt x="189" y="-75" on="0"/>
        <pt x="94" y="-51" on="0"/>
        <pt x="24" y="21" on="0"/>
        <pt x="24" y="126" on="0"/>
        <pt x="75" y="199" on="0"/>
        <pt x="110" y="219" on="1"/>
        <pt x="199" y="269" on="0"/>
        <pt x="361" y="277" on="1"/>
        <pt x="332" y="310" on="0"/>
        <pt x="283" y="416" on="0"/>
        <pt x="283" y="469" on="1"/>
        <pt x="283" y="505" on="0"/>
        <pt x="318" y="566" on="0"/>
        <pt x="400" y="592" on="0"/>
        <pt x="440" y="592" on="0"/>
      </contour>
      <contour>
        <pt x="590" y="642" on="1"/>
        <pt x="594" y="635" on="0"/>
        <pt x="594" y="622" on="0"/>
        <pt x="586" y="622" on="0"/>
        <pt x="574" y="633" on="0"/>
        <pt x="502" y="694" on="0"/>
        <pt x="497" y="699" on="1"/>
        <pt x="480" y="689" on="0"/>
        <pt x="451" y="666" on="1"/>
        <pt x="389" y="615" on="0"/>
        <pt x="388" y="628" on="1"/>
        <pt x="388" y="637" on="0"/>
        <pt x="403" y="650" on="0"/>
        <pt x="429" y="674" on="1"/>
        <pt x="496" y="734" on="0"/>
        <pt x="510" y="734" on="1"/>
        <pt x="535" y="725" on="0"/>
      </contour>
    </TTGlyph>
    <TTGlyph name="Edieresis" xMin="24" yMin="-75" xMax="723" yMax="703">
      <contour>
        <pt x="458" y="587" on="0"/>
        <pt x="471" y="582" on="0"/>
        <pt x="482" y="577" on="0"/>
        <pt x="494" y="569" on="0"/>
        <pt x="502" y="563" on="0"/>
        <pt x="514" y="552" on="0"/>
        <pt x="526" y="542" on="0"/>
        <pt x="535" y="533" on="1"/>
        <pt x="550" y="515" on="0"/>
        <pt x="564" y="512" on="1"/>
        <pt x="566" y="510" on="0"/>
        <pt x="580" y="509" on="0"/>
        <pt x="591" y="499" on="0"/>
        <pt x="614" y="442" on="0"/>
        <pt x="614" y="405" on="0"/>
        <pt x="605" y="364" on="0"/>
        <pt x="595" y="364" on="1"/>
        <pt x="579" y="364" on="0"/>
        <pt x="564" y="414" on="1"/>
        <pt x="556" y="444" on="0"/>
        <pt x="551" y="454" on="1"/>
        <pt x="523" y="513" on="0"/>
        <pt x="491" y="540" on="1"/>
        <pt x="462" y="567" on="0"/>
        <pt x="432" y="567" on="1"/>
        <pt x="419" y="567" on="0"/>
        <pt x="406" y="562" on="1"/>
        <pt x="358" y="542" on="0"/>
        <pt x="347" y="484" on="1"/>
        <pt x="342" y="460" on="0"/>
        <pt x="342" y="404" on="0"/>
        <pt x="366" y="317" on="0"/>
        <pt x="391" y="284" on="1"/>
        <pt x="396" y="278" on="0"/>
        <pt x="444" y="274" on="1"/>
        <pt x="469" y="271" on="0"/>
        <pt x="477" y="242" on="0"/>
        <pt x="461" y="234" on="1"/>
        <pt x="456" y="227" on="0"/>
        <pt x="418" y="234" on="1"/>
        <pt x="408" y="235" on="0"/>
        <pt x="376" y="244" on="0"/>
        <pt x="371" y="245" on="1"/>
        <pt x="317" y="244" on="0"/>
        <pt x="181" y="198" on="0"/>
        <pt x="67" y="103" on="0"/>
        <pt x="67" y="46" on="1"/>
        <pt x="67" y="3" on="0"/>
        <pt x="137" y="-50" on="0"/>
        <pt x="292" y="-50" on="0"/>
        <pt x="483" y="-2" on="0"/>
        <pt x="592" y="54" on="0"/>
        <pt x="698" y="156" on="0"/>
        <pt x="698" y="193" on="1"/>
        <pt x="698" y="199" on="0"/>
        <pt x="697" y="207" on="0"/>
        <pt x="704" y="212" on="0"/>
        <pt x="709" y="207" on="1"/>
        <pt x="722" y="182" on="0"/>
        <pt x="722" y="127" on="0"/>
        <pt x="692" y="90" on="1"/>
        <pt x="668" y="61" on="0"/>
        <pt x="642" y="40" on="1"/>
        <pt x="566" y="-21" on="0"/>
        <pt x="428" y="-52" on="1"/>
        <pt x="325" y="-75" on="0"/>
        <pt x="189" y="-75" on="0"/>
        <pt x="94" y="-51" on="0"/>
        <pt x="24" y="21" on="0"/>
        <pt x="24" y="126" on="0"/>
        <pt x="75" y="199" on="0"/>
        <pt x="110" y="219" on="1"/>
        <pt x="199" y="269" on="0"/>
        <pt x="361" y="277" on="1"/>
        <pt x="332" y="310" on="0"/>
        <pt x="283" y="416" on="0"/>
        <pt x="283" y="469" on="1"/>
        <pt x="283" y="505" on="0"/>
        <pt x="318" y="566" on="0"/>
        <pt x="400" y="592" on="0"/>
        <pt x="440" y="592" on="0"/>
      </contour>
      <contour>
        <pt x="460" y="701" on="1"/>
        <pt x="454" y="674" on="1"/>
        <pt x="454" y="666" on="0"/>
        <pt x="433" y="635" on="0"/>
        <pt x="427" y="635" on="1"/>
        <pt x="394" y="635" on="0"/>
        <pt x="394" y="652" on="1"/>
        <pt x="394" y="654" on="0"/>
        <pt x="422" y="676" on="1"/>
        <pt x="455" y="703" on="0"/>
        <pt x="460" y="703" on="0"/>
      </contour>
      <contour>
        <pt x="586" y="635" on="1"/>
        <pt x="552" y="635" on="0"/>
        <pt x="552" y="652" on="1"/>
        <pt x="552" y="654" on="0"/>
        <pt x="613" y="702" on="0"/>
        <pt x="618" y="702" on="0"/>
        <pt x="618" y="698" on="0"/>
        <pt x="616" y="690" on="1"/>
        <pt x="612" y="674" on="1"/>
        <pt x="612" y="666" on="0"/>
        <pt x="592" y="635" on="0"/>
      </contour>
    </TTGlyph>
    <TTGlyph name="Edotaccent" xMin="24" yMin="-75" xMax="723" yMax="748">
      <contour>
        <pt x="566" y="510" on="0"/>
        <pt x="580" y="509" on="0"/>
        <pt x="591" y="499" on="0"/>
        <pt x="614" y="443" on="0"/>
        <pt x="614" y="406" on="0"/>
        <pt x="605" y="365" on="0"/>
        <pt x="595" y="365" on="1"/>
        <pt x="578" y="365" on="0"/>
        <pt x="556" y="444" on="0"/>
        <pt x="551" y="454" on="1"/>
        <pt x="523" y="513" on="0"/>
        <pt x="491" y="540" on="1"/>
        <pt x="462" y="567" on="0"/>
        <pt x="432" y="567" on="1"/>
        <pt x="419" y="567" on="0"/>
        <pt x="406" y="562" on="1"/>
        <pt x="342" y="535" on="0"/>
        <pt x="342" y="436" on="1"/>
        <pt x="342" y="404" on="0"/>
        <pt x="366" y="317" on="0"/>
        <pt x="391" y="284" on="1"/>
        <pt x="396" y="278" on="0"/>
        <pt x="444" y="274" on="1"/>
        <pt x="469" y="271" on="0"/>
        <pt x="477" y="242" on="0"/>
        <pt x="461" y="234" on="1"/>
        <pt x="452" y="223" on="0"/>
        <pt x="392" y="240" on="1"/>
        <pt x="376" y="244" on="0"/>
        <pt x="371" y="245" on="1"/>
        <pt x="317" y="244" on="0"/>
        <pt x="181" y="198" on="0"/>
        <pt x="67" y="103" on="0"/>
        <pt x="67" y="46" on="1"/>
        <pt x="67" y="3" on="0"/>
        <pt x="137" y="-50" on="0"/>
        <pt x="292" y="-50" on="0"/>
        <pt x="483" y="-2" on="0"/>
        <pt x="592" y="54" on="0"/>
        <pt x="698" y="156" on="0"/>
        <pt x="698" y="193" on="1"/>
        <pt x="698" y="199" on="0"/>
        <pt x="697" y="207" on="0"/>
        <pt x="699" y="208" on="1"/>
        <pt x="705" y="211" on="0"/>
        <pt x="709" y="207" on="1"/>
        <pt x="722" y="182" on="0"/>
        <pt x="722" y="168" on="1"/>
        <pt x="722" y="127" on="0"/>
        <pt x="695" y="94" on="1"/>
        <pt x="648" y="37" on="0"/>
        <pt x="530" y="-29" on="0"/>
        <pt x="325" y="-75" on="0"/>
        <pt x="189" y="-75" on="0"/>
        <pt x="94" y="-51" on="0"/>
        <pt x="24" y="21" on="0"/>
        <pt x="24" y="126" on="0"/>
        <pt x="75" y="199" on="0"/>
        <pt x="146" y="239" on="0"/>
        <pt x="196" y="252" on="1"/>
        <pt x="270" y="272" on="0"/>
        <pt x="361" y="277" on="1"/>
        <pt x="296" y="351" on="0"/>
        <pt x="284" y="448" on="1"/>
        <pt x="283" y="459" on="0"/>
        <pt x="283" y="469" on="1"/>
        <pt x="283" y="505" on="0"/>
        <pt x="318" y="566" on="0"/>
        <pt x="400" y="592" on="0"/>
        <pt x="440" y="592" on="0"/>
        <pt x="459" y="587" on="0"/>
        <pt x="473" y="582" on="0"/>
        <pt x="487" y="573" on="0"/>
        <pt x="497" y="567" on="0"/>
        <pt x="511" y="554" on="0"/>
        <pt x="517" y="549" on="0"/>
        <pt x="533" y="534" on="0"/>
        <pt x="535" y="533" on="1"/>
        <pt x="550" y="515" on="0"/>
        <pt x="564" y="512" on="1"/>
      </contour>
      <contour>
        <pt x="524" y="738" on="1"/>
        <pt x="524" y="732" on="0"/>
        <pt x="524" y="726" on="1"/>
        <pt x="524" y="712" on="1"/>
        <pt x="524" y="701" on="0"/>
        <pt x="492" y="655" on="0"/>
        <pt x="482" y="655" on="1"/>
        <pt x="432" y="655" on="0"/>
        <pt x="432" y="680" on="1"/>
        <pt x="432" y="687" on="0"/>
        <pt x="461" y="712" on="1"/>
        <pt x="503" y="747" on="0"/>
        <pt x="513" y="747" on="1"/>
        <pt x="523" y="747" on="0"/>
      </contour>
    </TTGlyph>
    <TTGlyph name="Egrave" xMin="24" yMin="-75" xMax="723" yMax="740">
      <contour>
        <pt x="458" y="587" on="0"/>
        <pt x="471" y="582" on="0"/>
        <pt x="482" y="577" on="0"/>
        <pt x="494" y="569" on="0"/>
        <pt x="502" y="563" on="0"/>
        <pt x="514" y="552" on="0"/>
        <pt x="526" y="542" on="0"/>
        <pt x="535" y="533" on="1"/>
        <pt x="550" y="515" on="0"/>
        <pt x="564" y="512" on="1"/>
        <pt x="566" y="510" on="0"/>
        <pt x="580" y="509" on="0"/>
        <pt x="591" y="499" on="0"/>
        <pt x="614" y="442" on="0"/>
        <pt x="614" y="405" on="0"/>
        <pt x="605" y="364" on="0"/>
        <pt x="595" y="364" on="1"/>
        <pt x="579" y="364" on="0"/>
        <pt x="564" y="414" on="1"/>
        <pt x="556" y="444" on="0"/>
        <pt x="551" y="454" on="1"/>
        <pt x="523" y="513" on="0"/>
        <pt x="491" y="540" on="1"/>
        <pt x="462" y="567" on="0"/>
        <pt x="432" y="567" on="1"/>
        <pt x="419" y="567" on="0"/>
        <pt x="406" y="562" on="1"/>
        <pt x="358" y="542" on="0"/>
        <pt x="347" y="484" on="1"/>
        <pt x="342" y="460" on="0"/>
        <pt x="342" y="404" on="0"/>
        <pt x="366" y="317" on="0"/>
        <pt x="391" y="284" on="1"/>
        <pt x="396" y="278" on="0"/>
        <pt x="444" y="274" on="1"/>
        <pt x="469" y="271" on="0"/>
        <pt x="477" y="242" on="0"/>
        <pt x="461" y="234" on="1"/>
        <pt x="456" y="227" on="0"/>
        <pt x="418" y="234" on="1"/>
        <pt x="408" y="235" on="0"/>
        <pt x="376" y="244" on="0"/>
        <pt x="371" y="245" on="1"/>
        <pt x="317" y="244" on="0"/>
        <pt x="181" y="198" on="0"/>
        <pt x="67" y="103" on="0"/>
        <pt x="67" y="46" on="1"/>
        <pt x="67" y="3" on="0"/>
        <pt x="137" y="-50" on="0"/>
        <pt x="292" y="-50" on="0"/>
        <pt x="483" y="-2" on="0"/>
        <pt x="592" y="54" on="0"/>
        <pt x="698" y="156" on="0"/>
        <pt x="698" y="193" on="1"/>
        <pt x="698" y="199" on="0"/>
        <pt x="697" y="207" on="0"/>
        <pt x="704" y="212" on="0"/>
        <pt x="709" y="207" on="1"/>
        <pt x="722" y="182" on="0"/>
        <pt x="722" y="127" on="0"/>
        <pt x="692" y="90" on="1"/>
        <pt x="668" y="61" on="0"/>
        <pt x="642" y="40" on="1"/>
        <pt x="566" y="-21" on="0"/>
        <pt x="428" y="-52" on="1"/>
        <pt x="325" y="-75" on="0"/>
        <pt x="189" y="-75" on="0"/>
        <pt x="94" y="-51" on="0"/>
        <pt x="24" y="21" on="0"/>
        <pt x="24" y="126" on="0"/>
        <pt x="75" y="199" on="0"/>
        <pt x="110" y="219" on="1"/>
        <pt x="199" y="269" on="0"/>
        <pt x="361" y="277" on="1"/>
        <pt x="332" y="310" on="0"/>
        <pt x="283" y="416" on="0"/>
        <pt x="283" y="469" on="1"/>
        <pt x="283" y="505" on="0"/>
        <pt x="318" y="566" on="0"/>
        <pt x="400" y="592" on="0"/>
        <pt x="440" y="592" on="0"/>
      </contour>
      <contour>
        <pt x="566" y="633" on="1"/>
        <pt x="566" y="628" on="0"/>
        <pt x="548" y="628" on="0"/>
        <pt x="457" y="669" on="0"/>
        <pt x="437" y="680" on="1"/>
        <pt x="388" y="707" on="0"/>
        <pt x="388" y="724" on="1"/>
        <pt x="388" y="733" on="0"/>
        <pt x="402" y="738" on="1"/>
        <pt x="405" y="739" on="0"/>
        <pt x="409" y="739" on="1"/>
        <pt x="427" y="739" on="0"/>
        <pt x="460" y="715" on="1"/>
        <pt x="519" y="670" on="0"/>
        <pt x="542" y="654" on="1"/>
        <pt x="566" y="636" on="0"/>
      </contour>
    </TTGlyph>
    <TTGlyph name="Emacron" xMin="24" yMin="-75" xMax="723" yMax="677">
      <contour>
        <pt x="566" y="510" on="0"/>
        <pt x="580" y="509" on="0"/>
        <pt x="591" y="499" on="0"/>
        <pt x="614" y="443" on="0"/>
        <pt x="614" y="406" on="0"/>
        <pt x="605" y="365" on="0"/>
        <pt x="595" y="365" on="1"/>
        <pt x="578" y="365" on="0"/>
        <pt x="556" y="444" on="0"/>
        <pt x="551" y="454" on="1"/>
        <pt x="523" y="513" on="0"/>
        <pt x="491" y="540" on="1"/>
        <pt x="462" y="567" on="0"/>
        <pt x="432" y="567" on="1"/>
        <pt x="419" y="567" on="0"/>
        <pt x="406" y="562" on="1"/>
        <pt x="342" y="535" on="0"/>
        <pt x="342" y="436" on="1"/>
        <pt x="342" y="404" on="0"/>
        <pt x="366" y="317" on="0"/>
        <pt x="391" y="284" on="1"/>
        <pt x="396" y="278" on="0"/>
        <pt x="444" y="274" on="1"/>
        <pt x="469" y="271" on="0"/>
        <pt x="477" y="242" on="0"/>
        <pt x="461" y="234" on="1"/>
        <pt x="452" y="223" on="0"/>
        <pt x="392" y="240" on="1"/>
        <pt x="376" y="244" on="0"/>
        <pt x="371" y="245" on="1"/>
        <pt x="317" y="244" on="0"/>
        <pt x="181" y="198" on="0"/>
        <pt x="67" y="103" on="0"/>
        <pt x="67" y="46" on="1"/>
        <pt x="67" y="3" on="0"/>
        <pt x="137" y="-50" on="0"/>
        <pt x="292" y="-50" on="0"/>
        <pt x="483" y="-2" on="0"/>
        <pt x="592" y="54" on="0"/>
        <pt x="698" y="156" on="0"/>
        <pt x="698" y="193" on="1"/>
        <pt x="698" y="199" on="0"/>
        <pt x="697" y="207" on="0"/>
        <pt x="699" y="208" on="1"/>
        <pt x="705" y="211" on="0"/>
        <pt x="709" y="207" on="1"/>
        <pt x="722" y="182" on="0"/>
        <pt x="722" y="168" on="1"/>
        <pt x="722" y="127" on="0"/>
        <pt x="695" y="94" on="1"/>
        <pt x="648" y="37" on="0"/>
        <pt x="530" y="-29" on="0"/>
        <pt x="325" y="-75" on="0"/>
        <pt x="189" y="-75" on="0"/>
        <pt x="94" y="-51" on="0"/>
        <pt x="24" y="21" on="0"/>
        <pt x="24" y="126" on="0"/>
        <pt x="75" y="199" on="0"/>
        <pt x="146" y="239" on="0"/>
        <pt x="196" y="252" on="1"/>
        <pt x="270" y="272" on="0"/>
        <pt x="361" y="277" on="1"/>
        <pt x="296" y="351" on="0"/>
        <pt x="284" y="448" on="1"/>
        <pt x="283" y="459" on="0"/>
        <pt x="283" y="469" on="1"/>
        <pt x="283" y="505" on="0"/>
        <pt x="318" y="566" on="0"/>
        <pt x="400" y="592" on="0"/>
        <pt x="440" y="592" on="0"/>
        <pt x="459" y="587" on="0"/>
        <pt x="473" y="582" on="0"/>
        <pt x="487" y="573" on="0"/>
        <pt x="497" y="567" on="0"/>
        <pt x="511" y="554" on="0"/>
        <pt x="517" y="549" on="0"/>
        <pt x="533" y="534" on="0"/>
        <pt x="535" y="533" on="1"/>
        <pt x="550" y="515" on="0"/>
        <pt x="564" y="512" on="1"/>
      </contour>
      <contour>
        <pt x="400" y="675" on="1"/>
        <pt x="549" y="677" on="1"/>
        <pt x="600" y="677" on="0"/>
        <pt x="604" y="664" on="1"/>
        <pt x="604" y="657" on="0"/>
        <pt x="592" y="654" on="1"/>
        <pt x="528" y="642" on="0"/>
        <pt x="391" y="639" on="1"/>
        <pt x="389" y="639" on="0"/>
        <pt x="387" y="639" on="1"/>
        <pt x="368" y="639" on="0"/>
        <pt x="368" y="649" on="1"/>
        <pt x="368" y="663" on="0"/>
        <pt x="390" y="673" on="1"/>
      </contour>
    </TTGlyph>
    <TTGlyph name="Eng" xMin="7" yMin="-336" xMax="617" yMax="560">
      <contour>
        <pt x="512" y="535" on="1"/>
        <pt x="505" y="535" on="0"/>
        <pt x="478" y="526" on="0"/>
        <pt x="476" y="527" on="0"/>
        <pt x="471" y="530" on="1"/>
        <pt x="468" y="542" on="0"/>
        <pt x="508" y="560" on="0"/>
        <pt x="525" y="560" on="1"/>
        <pt x="563" y="560" on="0"/>
        <pt x="586" y="529" on="1"/>
        <pt x="616" y="488" on="0"/>
        <pt x="616" y="402" on="1"/>
        <pt x="616" y="314" on="0"/>
        <pt x="589" y="213" on="1"/>
        <pt x="533" y="10" on="0"/>
        <pt x="434" y="-146" on="1"/>
        <pt x="307" y="-336" on="0"/>
        <pt x="202" y="-336" on="1"/>
        <pt x="144" y="-336" on="0"/>
        <pt x="118" y="-298" on="1"/>
        <pt x="98" y="-270" on="0"/>
        <pt x="98" y="-234" on="1"/>
        <pt x="98" y="-187" on="0"/>
        <pt x="155" y="-111" on="0"/>
        <pt x="186" y="-93" on="1"/>
        <pt x="194" y="-89" on="0"/>
        <pt x="202" y="-103" on="0"/>
        <pt x="195" y="-108" on="1"/>
        <pt x="174" y="-127" on="0"/>
        <pt x="158" y="-162" on="1"/>
        <pt x="135" y="-209" on="0"/>
        <pt x="135" y="-271" on="0"/>
        <pt x="164" y="-316" on="0"/>
        <pt x="204" y="-316" on="1"/>
        <pt x="266" y="-316" on="0"/>
        <pt x="342" y="-214" on="1"/>
        <pt x="367" y="-180" on="0"/>
        <pt x="384" y="-153" on="0"/>
        <pt x="404" y="-122" on="1"/>
        <pt x="452" y="-42" on="0"/>
        <pt x="484" y="35" on="1"/>
        <pt x="429" y="-28" on="0"/>
        <pt x="376" y="-28" on="1"/>
        <pt x="375" y="-28" on="0"/>
        <pt x="373" y="-28" on="1"/>
        <pt x="330" y="-28" on="0"/>
        <pt x="267" y="37" on="0"/>
        <pt x="250" y="93" on="1"/>
        <pt x="219" y="201" on="0"/>
        <pt x="219" y="337" on="1"/>
        <pt x="219" y="371" on="0"/>
        <pt x="224" y="438" on="1"/>
        <pt x="216" y="422" on="0"/>
        <pt x="154" y="305" on="0"/>
        <pt x="132" y="262" on="0"/>
        <pt x="86" y="164" on="0"/>
        <pt x="75" y="136" on="1"/>
        <pt x="44" y="54" on="0"/>
        <pt x="35" y="-3" on="1"/>
        <pt x="30" y="-10" on="0"/>
        <pt x="11" y="-13" on="0"/>
        <pt x="7" y="-3" on="1"/>
        <pt x="5" y="41" on="0"/>
        <pt x="185" y="509" on="0"/>
        <pt x="212" y="543" on="1"/>
        <pt x="216" y="547" on="0"/>
        <pt x="230" y="547" on="0"/>
        <pt x="266" y="524" on="0"/>
        <pt x="266" y="510" on="1"/>
        <pt x="264" y="477" on="0"/>
        <pt x="264" y="356" on="0"/>
        <pt x="271" y="155" on="0"/>
        <pt x="338" y="7" on="0"/>
        <pt x="443" y="8" on="0"/>
        <pt x="482" y="72" on="1"/>
        <pt x="550" y="187" on="0"/>
        <pt x="559" y="368" on="1"/>
        <pt x="560" y="384" on="0"/>
        <pt x="560" y="399" on="1"/>
        <pt x="560" y="463" on="0"/>
        <pt x="546" y="509" on="1"/>
        <pt x="535" y="535" on="0"/>
      </contour>
    </TTGlyph>
    <TTGlyph name="Eogonek" xMin="22" yMin="-366" xMax="723" yMax="592">
      <contour>
        <pt x="152" y="-177" on="1"/>
        <pt x="117" y="-210" on="0"/>
        <pt x="64" y="-293" on="0"/>
        <pt x="64" y="-349" on="0"/>
        <pt x="88" y="-348" on="1"/>
        <pt x="115" y="-346" on="0"/>
        <pt x="181" y="-291" on="1"/>
        <pt x="215" y="-262" on="0"/>
        <pt x="251" y="-231" on="0"/>
        <pt x="261" y="-222" on="0"/>
        <pt x="270" y="-218" on="0"/>
        <pt x="274" y="-221" on="0"/>
        <pt x="274" y="-224" on="1"/>
        <pt x="276" y="-232" on="0"/>
        <pt x="267" y="-241" on="1"/>
        <pt x="252" y="-260" on="1"/>
        <pt x="169" y="-366" on="0"/>
        <pt x="100" y="-366" on="1"/>
        <pt x="62" y="-366" on="0"/>
        <pt x="36" y="-332" on="1"/>
        <pt x="22" y="-312" on="0"/>
        <pt x="22" y="-272" on="0"/>
        <pt x="32" y="-253" on="1"/>
        <pt x="52" y="-211" on="0"/>
        <pt x="102" y="-176" on="1"/>
        <pt x="132" y="-155" on="0"/>
        <pt x="257" y="-75" on="1"/>
        <pt x="251" y="-75" on="1"/>
        <pt x="189" y="-75" on="0"/>
        <pt x="94" y="-51" on="0"/>
        <pt x="24" y="21" on="0"/>
        <pt x="24" y="126" on="0"/>
        <pt x="75" y="199" on="0"/>
        <pt x="146" y="239" on="0"/>
        <pt x="196" y="252" on="1"/>
        <pt x="270" y="272" on="0"/>
        <pt x="361" y="277" on="1"/>
        <pt x="296" y="351" on="0"/>
        <pt x="284" y="448" on="1"/>
        <pt x="283" y="459" on="0"/>
        <pt x="283" y="469" on="1"/>
        <pt x="283" y="505" on="0"/>
        <pt x="318" y="566" on="0"/>
        <pt x="400" y="592" on="0"/>
        <pt x="440" y="592" on="0"/>
        <pt x="459" y="587" on="0"/>
        <pt x="473" y="582" on="0"/>
        <pt x="487" y="573" on="0"/>
        <pt x="497" y="567" on="0"/>
        <pt x="511" y="554" on="0"/>
        <pt x="517" y="549" on="0"/>
        <pt x="533" y="534" on="0"/>
        <pt x="535" y="533" on="1"/>
        <pt x="550" y="515" on="0"/>
        <pt x="564" y="512" on="1"/>
        <pt x="566" y="510" on="0"/>
        <pt x="580" y="509" on="0"/>
        <pt x="591" y="499" on="0"/>
        <pt x="614" y="443" on="0"/>
        <pt x="614" y="406" on="0"/>
        <pt x="605" y="365" on="0"/>
        <pt x="595" y="365" on="1"/>
        <pt x="578" y="365" on="0"/>
        <pt x="556" y="444" on="0"/>
        <pt x="551" y="454" on="1"/>
        <pt x="523" y="513" on="0"/>
        <pt x="491" y="540" on="1"/>
        <pt x="462" y="567" on="0"/>
        <pt x="432" y="567" on="1"/>
        <pt x="419" y="567" on="0"/>
        <pt x="406" y="562" on="1"/>
        <pt x="342" y="535" on="0"/>
        <pt x="342" y="436" on="1"/>
        <pt x="342" y="404" on="0"/>
        <pt x="366" y="317" on="0"/>
        <pt x="391" y="284" on="1"/>
        <pt x="396" y="278" on="0"/>
        <pt x="444" y="274" on="1"/>
        <pt x="469" y="271" on="0"/>
        <pt x="477" y="242" on="0"/>
        <pt x="461" y="234" on="1"/>
        <pt x="452" y="223" on="0"/>
        <pt x="392" y="240" on="1"/>
        <pt x="376" y="244" on="0"/>
        <pt x="371" y="245" on="1"/>
        <pt x="317" y="244" on="0"/>
        <pt x="181" y="198" on="0"/>
        <pt x="67" y="103" on="0"/>
        <pt x="67" y="46" on="1"/>
        <pt x="67" y="3" on="0"/>
        <pt x="137" y="-50" on="0"/>
        <pt x="292" y="-50" on="0"/>
        <pt x="483" y="-2" on="0"/>
        <pt x="592" y="54" on="0"/>
        <pt x="698" y="156" on="0"/>
        <pt x="698" y="193" on="1"/>
        <pt x="698" y="199" on="0"/>
        <pt x="697" y="207" on="0"/>
        <pt x="699" y="208" on="1"/>
        <pt x="705" y="211" on="0"/>
        <pt x="709" y="207" on="1"/>
        <pt x="722" y="182" on="0"/>
        <pt x="722" y="168" on="1"/>
        <pt x="722" y="127" on="0"/>
        <pt x="695" y="94" on="1"/>
        <pt x="648" y="37" on="0"/>
        <pt x="539" y="-24" on="0"/>
        <pt x="369" y="-66" on="0"/>
        <pt x="295" y="-72" on="1"/>
        <pt x="275" y="-91" on="0"/>
        <pt x="177" y="-155" on="0"/>
      </contour>
    </TTGlyph>
    <TTGlyph name="Eth" xMin="13" yMin="-24" xMax="596" yMax="547">
      <contour>
        <pt x="32" y="20" on="1"/>
        <pt x="14" y="41" on="0"/>
        <pt x="14" y="67" on="0"/>
        <pt x="24" y="76" on="0"/>
        <pt x="30" y="68" on="1"/>
        <pt x="41" y="54" on="1"/>
        <pt x="64" y="123" on="0"/>
        <pt x="92" y="200" on="1"/>
        <pt x="56" y="198" on="0"/>
        <pt x="46" y="198" on="1"/>
        <pt x="22" y="196" on="0"/>
        <pt x="23" y="209" on="1"/>
        <pt x="24" y="222" on="0"/>
        <pt x="43" y="232" on="1"/>
        <pt x="50" y="235" on="0"/>
        <pt x="55" y="235" on="1"/>
        <pt x="106" y="235" on="1"/>
        <pt x="186" y="440" on="0"/>
        <pt x="212" y="473" on="1"/>
        <pt x="220" y="477" on="0"/>
        <pt x="247" y="474" on="0"/>
        <pt x="270" y="459" on="0"/>
        <pt x="266" y="452" on="1"/>
        <pt x="246" y="412" on="0"/>
        <pt x="169" y="269" on="0"/>
        <pt x="152" y="235" on="1"/>
        <pt x="204" y="235" on="1"/>
        <pt x="257" y="235" on="0"/>
        <pt x="257" y="223" on="1"/>
        <pt x="259" y="208" on="0"/>
        <pt x="205" y="208" on="1"/>
        <pt x="136" y="203" on="1"/>
        <pt x="95" y="112" on="0"/>
        <pt x="75" y="27" on="1"/>
        <pt x="121" y="-1" on="0"/>
        <pt x="227" y="-1" on="0"/>
        <pt x="321" y="24" on="0"/>
        <pt x="423" y="86" on="0"/>
        <pt x="501" y="168" on="0"/>
        <pt x="549" y="277" on="0"/>
        <pt x="549" y="334" on="1"/>
        <pt x="549" y="458" on="0"/>
        <pt x="434" y="499" on="1"/>
        <pt x="386" y="516" on="0"/>
        <pt x="239" y="516" on="0"/>
        <pt x="129" y="484" on="1"/>
        <pt x="119" y="481" on="0"/>
        <pt x="95" y="496" on="0"/>
        <pt x="94" y="516" on="0"/>
        <pt x="110" y="524" on="1"/>
        <pt x="149" y="540" on="0"/>
        <pt x="239" y="545" on="1"/>
        <pt x="261" y="547" on="0"/>
        <pt x="283" y="547" on="1"/>
        <pt x="372" y="547" on="0"/>
        <pt x="521" y="491" on="0"/>
        <pt x="596" y="384" on="0"/>
        <pt x="596" y="242" on="0"/>
        <pt x="558" y="176" on="1"/>
        <pt x="487" y="52" on="0"/>
        <pt x="326" y="0" on="1"/>
        <pt x="256" y="-23" on="0"/>
        <pt x="122" y="-23" on="0"/>
        <pt x="69" y="-2" on="1"/>
        <pt x="69" y="-6" on="1"/>
        <pt x="62" y="-12" on="0"/>
        <pt x="33" y="-15" on="0"/>
        <pt x="30" y="-6" on="1"/>
        <pt x="29" y="1" on="0"/>
      </contour>
    </TTGlyph>
    <TTGlyph name="Euro" xMin="-5" yMin="-37" xMax="559" yMax="552">
      <contour>
        <pt x="493" y="66" on="0"/>
        <pt x="306" y="-37" on="0"/>
        <pt x="119" y="-37" on="0"/>
        <pt x="65" y="24" on="1"/>
        <pt x="26" y="68" on="0"/>
        <pt x="26" y="133" on="1"/>
        <pt x="26" y="145" on="0"/>
        <pt x="27" y="158" on="1"/>
        <pt x="-4" y="154" on="0"/>
        <pt x="-4" y="181" on="0"/>
        <pt x="17" y="191" on="1"/>
        <pt x="24" y="194" on="0"/>
        <pt x="29" y="194" on="1"/>
        <pt x="34" y="194" on="1"/>
        <pt x="43" y="237" on="0"/>
        <pt x="67" y="283" on="1"/>
        <pt x="75" y="295" on="0"/>
        <pt x="77" y="302" on="1"/>
        <pt x="22" y="294" on="0"/>
        <pt x="23" y="311" on="1"/>
        <pt x="24" y="324" on="0"/>
        <pt x="43" y="334" on="1"/>
        <pt x="55" y="337" on="1"/>
        <pt x="100" y="337" on="1"/>
        <pt x="163" y="430" on="0"/>
        <pt x="340" y="552" on="0"/>
        <pt x="427" y="552" on="1"/>
        <pt x="470" y="552" on="0"/>
        <pt x="535" y="518" on="0"/>
        <pt x="535" y="474" on="1"/>
        <pt x="535" y="464" on="0"/>
        <pt x="516" y="454" on="0"/>
        <pt x="497" y="462" on="0"/>
        <pt x="497" y="472" on="1"/>
        <pt x="497" y="500" on="0"/>
        <pt x="474" y="515" on="1"/>
        <pt x="448" y="532" on="0"/>
        <pt x="419" y="532" on="1"/>
        <pt x="357" y="532" on="0"/>
        <pt x="214" y="421" on="0"/>
        <pt x="159" y="337" on="1"/>
        <pt x="232" y="338" on="0"/>
        <pt x="361" y="338" on="0"/>
        <pt x="376" y="334" on="0"/>
        <pt x="377" y="330" on="0"/>
        <pt x="377" y="325" on="1"/>
        <pt x="377" y="313" on="0"/>
        <pt x="347" y="309" on="1"/>
        <pt x="286" y="305" on="0"/>
        <pt x="137" y="303" on="1"/>
        <pt x="121" y="273" on="1"/>
        <pt x="100" y="231" on="0"/>
        <pt x="91" y="194" on="1"/>
        <pt x="319" y="194" on="1"/>
        <pt x="345" y="194" on="0"/>
        <pt x="350" y="187" on="0"/>
        <pt x="350" y="181" on="1"/>
        <pt x="350" y="170" on="0"/>
        <pt x="305" y="166" on="0"/>
        <pt x="224" y="163" on="0"/>
        <pt x="112" y="160" on="0"/>
        <pt x="82" y="159" on="1"/>
        <pt x="79" y="139" on="0"/>
        <pt x="79" y="122" on="1"/>
        <pt x="79" y="66" on="0"/>
        <pt x="108" y="30" on="1"/>
        <pt x="145" y="-19" on="0"/>
        <pt x="289" y="-19" on="0"/>
        <pt x="385" y="30" on="1"/>
        <pt x="483" y="82" on="0"/>
        <pt x="541" y="159" on="1"/>
        <pt x="558" y="181" on="0"/>
        <pt x="558" y="158" on="1"/>
        <pt x="558" y="151" on="0"/>
        <pt x="554" y="145" on="1"/>
      </contour>
    </TTGlyph>
    <TTGlyph name="F" xMin="8" yMin="-38" xMax="743" yMax="571">
      <contour>
        <pt x="271" y="58" on="1"/>
        <pt x="274" y="58" on="0"/>
        <pt x="274" y="46" on="0"/>
        <pt x="260" y="32" on="1"/>
        <pt x="250" y="17" on="1"/>
        <pt x="223" y="-24" on="0"/>
        <pt x="198" y="-38" on="0"/>
        <pt x="183" y="-38" on="0"/>
        <pt x="152" y="-31" on="0"/>
        <pt x="151" y="-23" on="0"/>
        <pt x="151" y="-19" on="1"/>
        <pt x="151" y="30" on="0"/>
        <pt x="240" y="202" on="1"/>
        <pt x="216" y="199" on="0"/>
        <pt x="191" y="199" on="0"/>
        <pt x="174" y="214" on="0"/>
        <pt x="174" y="238" on="0"/>
        <pt x="216" y="258" on="0"/>
        <pt x="239" y="258" on="0"/>
        <pt x="255" y="239" on="0"/>
        <pt x="257" y="239" on="1"/>
        <pt x="260" y="239" on="1"/>
        <pt x="281" y="277" on="0"/>
        <pt x="315" y="341" on="0"/>
        <pt x="315" y="360" on="0"/>
        <pt x="312" y="365" on="1"/>
        <pt x="318" y="394" on="0"/>
        <pt x="405" y="484" on="0"/>
        <pt x="441" y="484" on="1"/>
        <pt x="457" y="484" on="0"/>
        <pt x="503" y="459" on="0"/>
        <pt x="500" y="439" on="1"/>
        <pt x="493" y="444" on="0"/>
        <pt x="487" y="444" on="1"/>
        <pt x="419" y="444" on="0"/>
        <pt x="300" y="240" on="1"/>
        <pt x="333" y="243" on="0"/>
        <pt x="369" y="249" on="1"/>
        <pt x="489" y="264" on="0"/>
        <pt x="521" y="264" on="0"/>
        <pt x="530" y="263" on="0"/>
        <pt x="537" y="259" on="0"/>
        <pt x="538" y="257" on="1"/>
        <pt x="539" y="251" on="0"/>
        <pt x="515" y="243" on="1"/>
        <pt x="457" y="224" on="0"/>
        <pt x="280" y="205" on="1"/>
        <pt x="196" y="53" on="0"/>
        <pt x="196" y="18" on="1"/>
        <pt x="196" y="1" on="0"/>
        <pt x="225" y="10" on="0"/>
        <pt x="236" y="24" on="1"/>
        <pt x="262" y="58" on="0"/>
      </contour>
      <contour>
        <pt x="662" y="534" on="1"/>
        <pt x="691" y="566" on="0"/>
        <pt x="717" y="566" on="1"/>
        <pt x="729" y="566" on="0"/>
        <pt x="743" y="554" on="0"/>
        <pt x="743" y="542" on="0"/>
        <pt x="731" y="530" on="0"/>
        <pt x="697" y="505" on="0"/>
        <pt x="687" y="495" on="1"/>
        <pt x="639" y="448" on="0"/>
        <pt x="639" y="414" on="1"/>
        <pt x="639" y="399" on="0"/>
        <pt x="652" y="379" on="0"/>
        <pt x="636" y="374" on="0"/>
        <pt x="629" y="383" on="1"/>
        <pt x="620" y="389" on="0"/>
        <pt x="620" y="423" on="1"/>
        <pt x="620" y="468" on="0"/>
        <pt x="636" y="498" on="1"/>
        <pt x="638" y="501" on="0"/>
        <pt x="647" y="516" on="0"/>
        <pt x="650" y="519" on="1"/>
        <pt x="643" y="519" on="0"/>
        <pt x="582" y="519" on="0"/>
        <pt x="401" y="535" on="0"/>
        <pt x="309" y="535" on="0"/>
        <pt x="284" y="529" on="1"/>
        <pt x="189" y="516" on="0"/>
        <pt x="52" y="437" on="0"/>
        <pt x="39" y="377" on="1"/>
        <pt x="37" y="371" on="0"/>
        <pt x="37" y="354" on="0"/>
        <pt x="48" y="330" on="0"/>
        <pt x="64" y="316" on="0"/>
        <pt x="97" y="296" on="0"/>
        <pt x="108" y="287" on="0"/>
        <pt x="101" y="281" on="0"/>
        <pt x="94" y="281" on="0"/>
        <pt x="90" y="282" on="1"/>
        <pt x="56" y="292" on="0"/>
        <pt x="9" y="347" on="0"/>
        <pt x="9" y="384" on="0"/>
        <pt x="14" y="397" on="1"/>
        <pt x="14" y="408" on="0"/>
        <pt x="15" y="413" on="1"/>
        <pt x="30" y="484" on="0"/>
        <pt x="106" y="523" on="1"/>
        <pt x="197" y="570" on="0"/>
        <pt x="328" y="570" on="1"/>
        <pt x="400" y="570" on="0"/>
        <pt x="610" y="536" on="0"/>
      </contour>
    </TTGlyph>
    <TTGlyph name="G" xMin="74" yMin="-384" xMax="810" yMax="590">
      <contour>
        <pt x="337" y="-3" on="1"/>
        <pt x="306" y="-9" on="0"/>
        <pt x="275" y="-9" on="1"/>
        <pt x="174" y="-9" on="0"/>
        <pt x="115" y="56" on="1"/>
        <pt x="74" y="102" on="0"/>
        <pt x="74" y="173" on="1"/>
        <pt x="74" y="326" on="0"/>
        <pt x="212" y="453" on="1"/>
        <pt x="366" y="590" on="0"/>
        <pt x="587" y="590" on="1"/>
        <pt x="650" y="590" on="0"/>
        <pt x="696" y="566" on="1"/>
        <pt x="733" y="546" on="0"/>
        <pt x="733" y="506" on="1"/>
        <pt x="733" y="489" on="0"/>
        <pt x="723" y="487" on="1"/>
        <pt x="710" y="484" on="0"/>
        <pt x="709" y="502" on="1"/>
        <pt x="705" y="568" on="0"/>
        <pt x="607" y="568" on="1"/>
        <pt x="563" y="568" on="0"/>
        <pt x="434" y="525" on="0"/>
        <pt x="296" y="445" on="0"/>
        <pt x="176" y="348" on="0"/>
        <pt x="99" y="226" on="0"/>
        <pt x="99" y="104" on="0"/>
        <pt x="184" y="39" on="0"/>
        <pt x="246" y="39" on="1"/>
        <pt x="314" y="39" on="0"/>
        <pt x="404" y="63" on="1"/>
        <pt x="454" y="78" on="0"/>
        <pt x="544" y="133" on="0"/>
        <pt x="568" y="154" on="1"/>
        <pt x="613" y="192" on="0"/>
        <pt x="659" y="238" on="1"/>
        <pt x="683" y="299" on="0"/>
        <pt x="738" y="309" on="1"/>
        <pt x="761" y="313" on="0"/>
        <pt x="788" y="309" on="1"/>
        <pt x="800" y="307" on="1"/>
        <pt x="809" y="305" on="0"/>
        <pt x="809" y="302" on="1"/>
        <pt x="809" y="292" on="0"/>
        <pt x="796" y="293" on="1"/>
        <pt x="795" y="293" on="0"/>
        <pt x="794" y="293" on="1"/>
        <pt x="740" y="293" on="0"/>
        <pt x="705" y="192" on="1"/>
        <pt x="678" y="111" on="0"/>
        <pt x="654" y="47" on="1"/>
        <pt x="707" y="59" on="0"/>
        <pt x="741" y="59" on="0"/>
        <pt x="755" y="51" on="0"/>
        <pt x="746" y="41" on="0"/>
        <pt x="737" y="45" on="0"/>
        <pt x="714" y="45" on="0"/>
        <pt x="647" y="28" on="0"/>
        <pt x="641" y="12" on="1"/>
        <pt x="541" y="-241" on="0"/>
        <pt x="399" y="-340" on="1"/>
        <pt x="335" y="-384" on="0"/>
        <pt x="285" y="-384" on="1"/>
        <pt x="266" y="-384" on="0"/>
        <pt x="249" y="-378" on="1"/>
        <pt x="203" y="-361" on="0"/>
        <pt x="203" y="-310" on="1"/>
        <pt x="203" y="-249" on="0"/>
        <pt x="266" y="-177" on="1"/>
        <pt x="388" y="-36" on="0"/>
        <pt x="599" y="32" on="1"/>
        <pt x="625" y="111" on="0"/>
        <pt x="647" y="189" on="1"/>
        <pt x="468" y="20" on="0"/>
      </contour>
      <contour>
        <pt x="257" y="-296" on="1"/>
        <pt x="257" y="-307" on="0"/>
        <pt x="260" y="-318" on="1"/>
        <pt x="270" y="-357" on="0"/>
        <pt x="310" y="-357" on="1"/>
        <pt x="369" y="-357" on="0"/>
        <pt x="434" y="-278" on="1"/>
        <pt x="531" y="-157" on="0"/>
        <pt x="592" y="13" on="1"/>
        <pt x="417" y="-44" on="0"/>
        <pt x="315" y="-172" on="1"/>
        <pt x="257" y="-243" on="0"/>
      </contour>
    </TTGlyph>
    <TTGlyph name="Gbreve" xMin="74" yMin="-384" xMax="810" yMax="775">
      <contour>
        <pt x="337" y="-3" on="1"/>
        <pt x="306" y="-9" on="0"/>
        <pt x="275" y="-9" on="1"/>
        <pt x="174" y="-9" on="0"/>
        <pt x="115" y="56" on="1"/>
        <pt x="74" y="102" on="0"/>
        <pt x="74" y="173" on="1"/>
        <pt x="74" y="326" on="0"/>
        <pt x="212" y="453" on="1"/>
        <pt x="366" y="590" on="0"/>
        <pt x="587" y="590" on="1"/>
        <pt x="650" y="590" on="0"/>
        <pt x="696" y="566" on="1"/>
        <pt x="733" y="546" on="0"/>
        <pt x="733" y="506" on="1"/>
        <pt x="733" y="489" on="0"/>
        <pt x="723" y="487" on="1"/>
        <pt x="710" y="484" on="0"/>
        <pt x="709" y="502" on="1"/>
        <pt x="705" y="568" on="0"/>
        <pt x="607" y="568" on="1"/>
        <pt x="563" y="568" on="0"/>
        <pt x="434" y="525" on="0"/>
        <pt x="296" y="445" on="0"/>
        <pt x="176" y="348" on="0"/>
        <pt x="99" y="226" on="0"/>
        <pt x="99" y="104" on="0"/>
        <pt x="184" y="39" on="0"/>
        <pt x="246" y="39" on="1"/>
        <pt x="314" y="39" on="0"/>
        <pt x="404" y="63" on="1"/>
        <pt x="454" y="78" on="0"/>
        <pt x="544" y="133" on="0"/>
        <pt x="568" y="154" on="1"/>
        <pt x="613" y="192" on="0"/>
        <pt x="659" y="238" on="1"/>
        <pt x="683" y="299" on="0"/>
        <pt x="738" y="309" on="1"/>
        <pt x="761" y="313" on="0"/>
        <pt x="788" y="309" on="1"/>
        <pt x="800" y="307" on="1"/>
        <pt x="809" y="305" on="0"/>
        <pt x="809" y="302" on="1"/>
        <pt x="809" y="292" on="0"/>
        <pt x="796" y="293" on="1"/>
        <pt x="795" y="293" on="0"/>
        <pt x="794" y="293" on="1"/>
        <pt x="740" y="293" on="0"/>
        <pt x="705" y="192" on="1"/>
        <pt x="678" y="111" on="0"/>
        <pt x="654" y="47" on="1"/>
        <pt x="707" y="59" on="0"/>
        <pt x="741" y="59" on="0"/>
        <pt x="755" y="51" on="0"/>
        <pt x="746" y="41" on="0"/>
        <pt x="737" y="45" on="0"/>
        <pt x="714" y="45" on="0"/>
        <pt x="647" y="28" on="0"/>
        <pt x="641" y="12" on="1"/>
        <pt x="541" y="-241" on="0"/>
        <pt x="399" y="-340" on="1"/>
        <pt x="335" y="-384" on="0"/>
        <pt x="285" y="-384" on="1"/>
        <pt x="266" y="-384" on="0"/>
        <pt x="249" y="-378" on="1"/>
        <pt x="203" y="-361" on="0"/>
        <pt x="203" y="-310" on="1"/>
        <pt x="203" y="-249" on="0"/>
        <pt x="266" y="-177" on="1"/>
        <pt x="388" y="-36" on="0"/>
        <pt x="599" y="32" on="1"/>
        <pt x="625" y="111" on="0"/>
        <pt x="647" y="189" on="1"/>
        <pt x="468" y="20" on="0"/>
      </contour>
      <contour>
        <pt x="257" y="-296" on="1"/>
        <pt x="257" y="-307" on="0"/>
        <pt x="260" y="-318" on="1"/>
        <pt x="270" y="-357" on="0"/>
        <pt x="310" y="-357" on="1"/>
        <pt x="369" y="-357" on="0"/>
        <pt x="434" y="-278" on="1"/>
        <pt x="531" y="-157" on="0"/>
        <pt x="592" y="13" on="1"/>
        <pt x="417" y="-44" on="0"/>
        <pt x="315" y="-172" on="1"/>
        <pt x="257" y="-243" on="0"/>
      </contour>
      <contour>
        <pt x="668" y="655" on="1"/>
        <pt x="630" y="637" on="0"/>
        <pt x="571" y="637" on="0"/>
        <pt x="548" y="646" on="1"/>
        <pt x="498" y="668" on="0"/>
        <pt x="498" y="727" on="1"/>
        <pt x="498" y="764" on="0"/>
        <pt x="520" y="774" on="0"/>
        <pt x="535" y="764" on="0"/>
        <pt x="535" y="752" on="1"/>
        <pt x="535" y="699" on="0"/>
        <pt x="576" y="676" on="1"/>
        <pt x="597" y="664" on="0"/>
        <pt x="643" y="664" on="0"/>
        <pt x="670" y="677" on="1"/>
        <pt x="722" y="702" on="0"/>
        <pt x="744" y="770" on="1"/>
        <pt x="745" y="775" on="0"/>
        <pt x="749" y="775" on="0"/>
        <pt x="757" y="768" on="0"/>
        <pt x="757" y="760" on="1"/>
        <pt x="740" y="689" on="0"/>
      </contour>
    </TTGlyph>
    <TTGlyph name="Gcircumflex" xMin="74" yMin="-384" xMax="810" yMax="742">
      <contour>
        <pt x="337" y="-3" on="1"/>
        <pt x="306" y="-9" on="0"/>
        <pt x="275" y="-9" on="1"/>
        <pt x="174" y="-9" on="0"/>
        <pt x="115" y="56" on="1"/>
        <pt x="74" y="102" on="0"/>
        <pt x="74" y="173" on="1"/>
        <pt x="74" y="326" on="0"/>
        <pt x="212" y="453" on="1"/>
        <pt x="366" y="590" on="0"/>
        <pt x="587" y="590" on="1"/>
        <pt x="650" y="590" on="0"/>
        <pt x="696" y="566" on="1"/>
        <pt x="733" y="546" on="0"/>
        <pt x="733" y="506" on="1"/>
        <pt x="733" y="489" on="0"/>
        <pt x="723" y="487" on="1"/>
        <pt x="710" y="484" on="0"/>
        <pt x="709" y="502" on="1"/>
        <pt x="705" y="568" on="0"/>
        <pt x="607" y="568" on="1"/>
        <pt x="563" y="568" on="0"/>
        <pt x="434" y="525" on="0"/>
        <pt x="296" y="445" on="0"/>
        <pt x="176" y="348" on="0"/>
        <pt x="99" y="226" on="0"/>
        <pt x="99" y="104" on="0"/>
        <pt x="184" y="39" on="0"/>
        <pt x="246" y="39" on="1"/>
        <pt x="314" y="39" on="0"/>
        <pt x="404" y="63" on="1"/>
        <pt x="454" y="78" on="0"/>
        <pt x="544" y="133" on="0"/>
        <pt x="568" y="154" on="1"/>
        <pt x="613" y="192" on="0"/>
        <pt x="659" y="238" on="1"/>
        <pt x="683" y="299" on="0"/>
        <pt x="738" y="309" on="1"/>
        <pt x="761" y="313" on="0"/>
        <pt x="788" y="309" on="1"/>
        <pt x="800" y="307" on="1"/>
        <pt x="809" y="305" on="0"/>
        <pt x="809" y="302" on="1"/>
        <pt x="809" y="292" on="0"/>
        <pt x="796" y="293" on="1"/>
        <pt x="795" y="293" on="0"/>
        <pt x="794" y="293" on="1"/>
        <pt x="740" y="293" on="0"/>
        <pt x="705" y="192" on="1"/>
        <pt x="678" y="111" on="0"/>
        <pt x="654" y="47" on="1"/>
        <pt x="707" y="59" on="0"/>
        <pt x="741" y="59" on="0"/>
        <pt x="755" y="51" on="0"/>
        <pt x="746" y="41" on="0"/>
        <pt x="737" y="45" on="0"/>
        <pt x="714" y="45" on="0"/>
        <pt x="647" y="28" on="0"/>
        <pt x="641" y="12" on="1"/>
        <pt x="541" y="-241" on="0"/>
        <pt x="399" y="-340" on="1"/>
        <pt x="335" y="-384" on="0"/>
        <pt x="285" y="-384" on="1"/>
        <pt x="266" y="-384" on="0"/>
        <pt x="249" y="-378" on="1"/>
        <pt x="203" y="-361" on="0"/>
        <pt x="203" y="-310" on="1"/>
        <pt x="203" y="-249" on="0"/>
        <pt x="266" y="-177" on="1"/>
        <pt x="388" y="-36" on="0"/>
        <pt x="599" y="32" on="1"/>
        <pt x="625" y="111" on="0"/>
        <pt x="647" y="189" on="1"/>
        <pt x="468" y="20" on="0"/>
      </contour>
      <contour>
        <pt x="257" y="-296" on="1"/>
        <pt x="257" y="-307" on="0"/>
        <pt x="260" y="-318" on="1"/>
        <pt x="270" y="-357" on="0"/>
        <pt x="310" y="-357" on="1"/>
        <pt x="369" y="-357" on="0"/>
        <pt x="434" y="-278" on="1"/>
        <pt x="531" y="-157" on="0"/>
        <pt x="592" y="13" on="1"/>
        <pt x="417" y="-44" on="0"/>
        <pt x="315" y="-172" on="1"/>
        <pt x="257" y="-243" on="0"/>
      </contour>
      <contour>
        <pt x="644" y="737" on="0"/>
        <pt x="696" y="674" on="0"/>
        <pt x="715" y="642" on="0"/>
        <pt x="715" y="629" on="0"/>
        <pt x="707" y="629" on="0"/>
        <pt x="701" y="634" on="1"/>
        <pt x="696" y="640" on="0"/>
        <pt x="624" y="701" on="0"/>
        <pt x="619" y="707" on="1"/>
        <pt x="601" y="696" on="0"/>
        <pt x="542" y="648" on="0"/>
        <pt x="509" y="627" on="0"/>
        <pt x="509" y="645" on="0"/>
        <pt x="522" y="655" on="0"/>
        <pt x="550" y="680" on="1"/>
        <pt x="614" y="740" on="0"/>
        <pt x="631" y="742" on="1"/>
      </contour>
    </TTGlyph>
    <TTGlyph name="Gcommaaccent" xMin="74" yMin="-384" xMax="810" yMax="590">
      <contour>
        <pt x="337" y="-3" on="1"/>
        <pt x="306" y="-9" on="0"/>
        <pt x="275" y="-9" on="1"/>
        <pt x="174" y="-9" on="0"/>
        <pt x="115" y="56" on="1"/>
        <pt x="74" y="102" on="0"/>
        <pt x="74" y="173" on="1"/>
        <pt x="74" y="326" on="0"/>
        <pt x="212" y="453" on="1"/>
        <pt x="366" y="590" on="0"/>
        <pt x="587" y="590" on="1"/>
        <pt x="650" y="590" on="0"/>
        <pt x="696" y="566" on="1"/>
        <pt x="733" y="546" on="0"/>
        <pt x="733" y="506" on="1"/>
        <pt x="733" y="489" on="0"/>
        <pt x="723" y="487" on="1"/>
        <pt x="710" y="484" on="0"/>
        <pt x="709" y="502" on="1"/>
        <pt x="705" y="568" on="0"/>
        <pt x="607" y="568" on="1"/>
        <pt x="563" y="568" on="0"/>
        <pt x="434" y="525" on="0"/>
        <pt x="296" y="445" on="0"/>
        <pt x="176" y="348" on="0"/>
        <pt x="99" y="226" on="0"/>
        <pt x="99" y="104" on="0"/>
        <pt x="184" y="39" on="0"/>
        <pt x="246" y="39" on="1"/>
        <pt x="314" y="39" on="0"/>
        <pt x="404" y="63" on="1"/>
        <pt x="454" y="78" on="0"/>
        <pt x="544" y="133" on="0"/>
        <pt x="568" y="154" on="1"/>
        <pt x="613" y="192" on="0"/>
        <pt x="659" y="238" on="1"/>
        <pt x="683" y="299" on="0"/>
        <pt x="738" y="309" on="1"/>
        <pt x="761" y="313" on="0"/>
        <pt x="788" y="309" on="1"/>
        <pt x="800" y="307" on="1"/>
        <pt x="809" y="305" on="0"/>
        <pt x="809" y="302" on="1"/>
        <pt x="809" y="292" on="0"/>
        <pt x="796" y="293" on="1"/>
        <pt x="795" y="293" on="0"/>
        <pt x="794" y="293" on="1"/>
        <pt x="740" y="293" on="0"/>
        <pt x="705" y="192" on="1"/>
        <pt x="678" y="111" on="0"/>
        <pt x="654" y="47" on="1"/>
        <pt x="707" y="59" on="0"/>
        <pt x="741" y="59" on="0"/>
        <pt x="755" y="51" on="0"/>
        <pt x="746" y="41" on="0"/>
        <pt x="737" y="45" on="0"/>
        <pt x="714" y="45" on="0"/>
        <pt x="647" y="28" on="0"/>
        <pt x="641" y="12" on="1"/>
        <pt x="541" y="-241" on="0"/>
        <pt x="399" y="-340" on="1"/>
        <pt x="335" y="-384" on="0"/>
        <pt x="285" y="-384" on="1"/>
        <pt x="266" y="-384" on="0"/>
        <pt x="249" y="-378" on="1"/>
        <pt x="203" y="-361" on="0"/>
        <pt x="203" y="-310" on="1"/>
        <pt x="203" y="-249" on="0"/>
        <pt x="266" y="-177" on="1"/>
        <pt x="388" y="-36" on="0"/>
        <pt x="599" y="32" on="1"/>
        <pt x="625" y="111" on="0"/>
        <pt x="647" y="189" on="1"/>
        <pt x="468" y="20" on="0"/>
      </contour>
      <contour>
        <pt x="257" y="-296" on="1"/>
        <pt x="257" y="-307" on="0"/>
        <pt x="260" y="-318" on="1"/>
        <pt x="270" y="-357" on="0"/>
        <pt x="310" y="-357" on="1"/>
        <pt x="369" y="-357" on="0"/>
        <pt x="434" y="-278" on="1"/>
        <pt x="531" y="-157" on="0"/>
        <pt x="592" y="13" on="1"/>
        <pt x="417" y="-44" on="0"/>
        <pt x="315" y="-172" on="1"/>
        <pt x="257" y="-243" on="0"/>
      </contour>
      <contour>
        <pt x="219" y="-56" on="0"/>
        <pt x="234" y="-78" on="0"/>
        <pt x="234" y="-105" on="0"/>
        <pt x="150" y="-214" on="0"/>
        <pt x="127" y="-228" on="1"/>
        <pt x="123" y="-231" on="0"/>
        <pt x="116" y="-231" on="0"/>
        <pt x="116" y="-218" on="0"/>
        <pt x="139" y="-195" on="1"/>
        <pt x="201" y="-118" on="0"/>
        <pt x="183" y="-88" on="1"/>
        <pt x="176" y="-77" on="0"/>
        <pt x="183" y="-56" on="0"/>
      </contour>
    </TTGlyph>
    <TTGlyph name="Gdotaccent" xMin="74" yMin="-384" xMax="810" yMax="721">
      <contour>
        <pt x="337" y="-3" on="1"/>
        <pt x="306" y="-9" on="0"/>
        <pt x="275" y="-9" on="1"/>
        <pt x="174" y="-9" on="0"/>
        <pt x="115" y="56" on="1"/>
        <pt x="74" y="102" on="0"/>
        <pt x="74" y="173" on="1"/>
        <pt x="74" y="326" on="0"/>
        <pt x="212" y="453" on="1"/>
        <pt x="366" y="590" on="0"/>
        <pt x="587" y="590" on="1"/>
        <pt x="650" y="590" on="0"/>
        <pt x="696" y="566" on="1"/>
        <pt x="733" y="546" on="0"/>
        <pt x="733" y="506" on="1"/>
        <pt x="733" y="489" on="0"/>
        <pt x="723" y="487" on="1"/>
        <pt x="710" y="484" on="0"/>
        <pt x="709" y="502" on="1"/>
        <pt x="705" y="568" on="0"/>
        <pt x="607" y="568" on="1"/>
        <pt x="563" y="568" on="0"/>
        <pt x="434" y="525" on="0"/>
        <pt x="296" y="445" on="0"/>
        <pt x="176" y="348" on="0"/>
        <pt x="99" y="226" on="0"/>
        <pt x="99" y="104" on="0"/>
        <pt x="184" y="39" on="0"/>
        <pt x="246" y="39" on="1"/>
        <pt x="314" y="39" on="0"/>
        <pt x="404" y="63" on="1"/>
        <pt x="454" y="78" on="0"/>
        <pt x="544" y="133" on="0"/>
        <pt x="568" y="154" on="1"/>
        <pt x="613" y="192" on="0"/>
        <pt x="659" y="238" on="1"/>
        <pt x="683" y="299" on="0"/>
        <pt x="738" y="309" on="1"/>
        <pt x="761" y="313" on="0"/>
        <pt x="788" y="309" on="1"/>
        <pt x="800" y="307" on="1"/>
        <pt x="809" y="305" on="0"/>
        <pt x="809" y="302" on="1"/>
        <pt x="809" y="292" on="0"/>
        <pt x="796" y="293" on="1"/>
        <pt x="795" y="293" on="0"/>
        <pt x="794" y="293" on="1"/>
        <pt x="740" y="293" on="0"/>
        <pt x="705" y="192" on="1"/>
        <pt x="678" y="111" on="0"/>
        <pt x="654" y="47" on="1"/>
        <pt x="707" y="59" on="0"/>
        <pt x="741" y="59" on="0"/>
        <pt x="755" y="51" on="0"/>
        <pt x="746" y="41" on="0"/>
        <pt x="737" y="45" on="0"/>
        <pt x="714" y="45" on="0"/>
        <pt x="647" y="28" on="0"/>
        <pt x="641" y="12" on="1"/>
        <pt x="541" y="-241" on="0"/>
        <pt x="399" y="-340" on="1"/>
        <pt x="335" y="-384" on="0"/>
        <pt x="285" y="-384" on="1"/>
        <pt x="266" y="-384" on="0"/>
        <pt x="249" y="-378" on="1"/>
        <pt x="203" y="-361" on="0"/>
        <pt x="203" y="-310" on="1"/>
        <pt x="203" y="-249" on="0"/>
        <pt x="266" y="-177" on="1"/>
        <pt x="388" y="-36" on="0"/>
        <pt x="599" y="32" on="1"/>
        <pt x="625" y="111" on="0"/>
        <pt x="647" y="189" on="1"/>
        <pt x="468" y="20" on="0"/>
      </contour>
      <contour>
        <pt x="257" y="-296" on="1"/>
        <pt x="257" y="-307" on="0"/>
        <pt x="260" y="-318" on="1"/>
        <pt x="270" y="-357" on="0"/>
        <pt x="310" y="-357" on="1"/>
        <pt x="369" y="-357" on="0"/>
        <pt x="434" y="-278" on="1"/>
        <pt x="531" y="-157" on="0"/>
        <pt x="592" y="13" on="1"/>
        <pt x="417" y="-44" on="0"/>
        <pt x="315" y="-172" on="1"/>
        <pt x="257" y="-243" on="0"/>
      </contour>
      <contour>
        <pt x="663" y="706" on="1"/>
        <pt x="662" y="692" on="1"/>
        <pt x="662" y="682" on="0"/>
        <pt x="635" y="642" on="0"/>
        <pt x="627" y="642" on="1"/>
        <pt x="584" y="642" on="0"/>
        <pt x="584" y="664" on="1"/>
        <pt x="584" y="671" on="0"/>
        <pt x="634" y="712" on="0"/>
        <pt x="648" y="721" on="0"/>
        <pt x="652" y="721" on="1"/>
        <pt x="658" y="721" on="1"/>
        <pt x="663" y="721" on="0"/>
      </contour>
    </TTGlyph>
    <TTGlyph name="H" xMin="-92" yMin="-147" xMax="863" yMax="578">
      <contour>
        <pt x="590" y="219" on="1"/>
        <pt x="342" y="252" on="1"/>
        <pt x="190" y="-93" on="0"/>
        <pt x="47" y="-137" on="1"/>
        <pt x="21" y="-146" on="0"/>
        <pt x="1" y="-146" on="1"/>
        <pt x="-74" y="-146" on="0"/>
        <pt x="-91" y="-83" on="1"/>
        <pt x="-92" y="-79" on="0"/>
        <pt x="-92" y="-70" on="0"/>
        <pt x="-89" y="-57" on="0"/>
        <pt x="-79" y="-61" on="0"/>
        <pt x="-74" y="-78" on="1"/>
        <pt x="-65" y="-107" on="0"/>
        <pt x="-36" y="-115" on="1"/>
        <pt x="-14" y="-119" on="0"/>
        <pt x="19" y="-119" on="0"/>
        <pt x="31" y="-115" on="1"/>
        <pt x="177" y="-69" on="0"/>
        <pt x="304" y="257" on="1"/>
        <pt x="251" y="260" on="1"/>
        <pt x="237" y="261" on="0"/>
        <pt x="225" y="261" on="1"/>
        <pt x="98" y="261" on="0"/>
        <pt x="69" y="179" on="1"/>
        <pt x="64" y="168" on="0"/>
        <pt x="64" y="148" on="0"/>
        <pt x="76" y="128" on="0"/>
        <pt x="57" y="123" on="0"/>
        <pt x="51" y="132" on="1"/>
        <pt x="40" y="152" on="0"/>
        <pt x="40" y="169" on="1"/>
        <pt x="40" y="230" on="0"/>
        <pt x="85" y="289" on="0"/>
        <pt x="115" y="298" on="1"/>
        <pt x="151" y="308" on="0"/>
        <pt x="195" y="308" on="1"/>
        <pt x="256" y="302" on="1"/>
        <pt x="288" y="299" on="0"/>
        <pt x="317" y="293" on="1"/>
        <pt x="341" y="357" on="0"/>
        <pt x="375" y="465" on="1"/>
        <pt x="322" y="418" on="0"/>
        <pt x="245" y="410" on="1"/>
        <pt x="235" y="409" on="0"/>
        <pt x="234" y="425" on="0"/>
        <pt x="246" y="427" on="1"/>
        <pt x="289" y="431" on="0"/>
        <pt x="380" y="511" on="0"/>
        <pt x="404" y="565" on="1"/>
        <pt x="406" y="577" on="0"/>
        <pt x="468" y="577" on="0"/>
        <pt x="467" y="565" on="1"/>
        <pt x="461" y="550" on="0"/>
        <pt x="384" y="349" on="0"/>
        <pt x="356" y="285" on="1"/>
        <pt x="382" y="280" on="0"/>
        <pt x="432" y="268" on="1"/>
        <pt x="534" y="245" on="0"/>
        <pt x="597" y="238" on="1"/>
        <pt x="655" y="361" on="0"/>
        <pt x="684" y="430" on="0"/>
        <pt x="684" y="448" on="0"/>
        <pt x="681" y="453" on="1"/>
        <pt x="684" y="481" on="0"/>
        <pt x="765" y="572" on="0"/>
        <pt x="801" y="572" on="1"/>
        <pt x="817" y="572" on="0"/>
        <pt x="862" y="549" on="0"/>
        <pt x="862" y="531" on="1"/>
        <pt x="862" y="527" on="0"/>
        <pt x="852" y="533" on="0"/>
        <pt x="850" y="533" on="1"/>
        <pt x="825" y="533" on="0"/>
        <pt x="759" y="462" on="0"/>
        <pt x="727" y="406" on="1"/>
        <pt x="678" y="319" on="0"/>
        <pt x="640" y="234" on="1"/>
        <pt x="726" y="234" on="0"/>
        <pt x="755" y="270" on="1"/>
        <pt x="760" y="279" on="0"/>
        <pt x="770" y="266" on="0"/>
        <pt x="753" y="241" on="0"/>
        <pt x="695" y="217" on="0"/>
        <pt x="632" y="217" on="1"/>
        <pt x="585" y="106" on="0"/>
        <pt x="585" y="43" on="1"/>
        <pt x="585" y="-6" on="0"/>
        <pt x="642" y="-6" on="0"/>
        <pt x="755" y="82" on="0"/>
        <pt x="805" y="149" on="1"/>
        <pt x="808" y="153" on="0"/>
        <pt x="820" y="148" on="0"/>
        <pt x="815" y="135" on="0"/>
        <pt x="802" y="116" on="1"/>
        <pt x="760" y="59" on="0"/>
        <pt x="699" y="10" on="1"/>
        <pt x="654" y="-25" on="0"/>
        <pt x="601" y="-25" on="1"/>
        <pt x="574" y="-25" on="0"/>
        <pt x="545" y="7" on="0"/>
        <pt x="542" y="35" on="0"/>
        <pt x="542" y="59" on="0"/>
        <pt x="546" y="84" on="1"/>
        <pt x="556" y="148" on="0"/>
      </contour>
    </TTGlyph>
    <TTGlyph name="Hbar" xMin="-92" yMin="-147" xMax="863" yMax="578">
      <contour>
        <pt x="431" y="473" on="1"/>
        <pt x="682" y="474" on="1"/>
        <pt x="687" y="474" on="1"/>
        <pt x="703" y="508" on="0"/>
        <pt x="771" y="572" on="0"/>
        <pt x="801" y="572" on="1"/>
        <pt x="817" y="572" on="0"/>
        <pt x="862" y="549" on="0"/>
        <pt x="862" y="531" on="1"/>
        <pt x="862" y="527" on="0"/>
        <pt x="852" y="533" on="0"/>
        <pt x="850" y="533" on="1"/>
        <pt x="816" y="533" on="0"/>
        <pt x="769" y="469" on="1"/>
        <pt x="800" y="466" on="0"/>
        <pt x="802" y="460" on="1"/>
        <pt x="802" y="451" on="0"/>
        <pt x="752" y="447" on="1"/>
        <pt x="698" y="367" on="0"/>
        <pt x="640" y="234" on="1"/>
        <pt x="726" y="234" on="0"/>
        <pt x="755" y="270" on="1"/>
        <pt x="760" y="279" on="0"/>
        <pt x="770" y="266" on="0"/>
        <pt x="753" y="241" on="0"/>
        <pt x="695" y="217" on="0"/>
        <pt x="632" y="217" on="1"/>
        <pt x="585" y="106" on="0"/>
        <pt x="585" y="43" on="1"/>
        <pt x="585" y="-6" on="0"/>
        <pt x="642" y="-6" on="0"/>
        <pt x="755" y="82" on="0"/>
        <pt x="805" y="149" on="1"/>
        <pt x="808" y="153" on="0"/>
        <pt x="820" y="148" on="0"/>
        <pt x="815" y="135" on="0"/>
        <pt x="802" y="116" on="1"/>
        <pt x="760" y="59" on="0"/>
        <pt x="699" y="10" on="1"/>
        <pt x="654" y="-25" on="0"/>
        <pt x="601" y="-25" on="1"/>
        <pt x="574" y="-25" on="0"/>
        <pt x="545" y="7" on="0"/>
        <pt x="542" y="35" on="0"/>
        <pt x="542" y="59" on="0"/>
        <pt x="546" y="84" on="1"/>
        <pt x="556" y="148" on="0"/>
        <pt x="590" y="219" on="1"/>
        <pt x="342" y="252" on="1"/>
        <pt x="190" y="-93" on="0"/>
        <pt x="47" y="-137" on="1"/>
        <pt x="21" y="-146" on="0"/>
        <pt x="1" y="-146" on="1"/>
        <pt x="-74" y="-146" on="0"/>
        <pt x="-91" y="-83" on="1"/>
        <pt x="-92" y="-79" on="0"/>
        <pt x="-92" y="-70" on="0"/>
        <pt x="-89" y="-57" on="0"/>
        <pt x="-79" y="-61" on="0"/>
        <pt x="-74" y="-78" on="1"/>
        <pt x="-65" y="-107" on="0"/>
        <pt x="-36" y="-115" on="1"/>
        <pt x="-14" y="-119" on="0"/>
        <pt x="19" y="-119" on="0"/>
        <pt x="31" y="-115" on="1"/>
        <pt x="177" y="-69" on="0"/>
        <pt x="304" y="257" on="1"/>
        <pt x="251" y="260" on="1"/>
        <pt x="237" y="261" on="0"/>
        <pt x="225" y="261" on="1"/>
        <pt x="98" y="261" on="0"/>
        <pt x="69" y="179" on="1"/>
        <pt x="64" y="168" on="0"/>
        <pt x="64" y="148" on="0"/>
        <pt x="76" y="128" on="0"/>
        <pt x="57" y="123" on="0"/>
        <pt x="51" y="132" on="1"/>
        <pt x="40" y="152" on="0"/>
        <pt x="40" y="169" on="1"/>
        <pt x="40" y="230" on="0"/>
        <pt x="85" y="289" on="0"/>
        <pt x="115" y="298" on="1"/>
        <pt x="151" y="308" on="0"/>
        <pt x="195" y="308" on="1"/>
        <pt x="256" y="302" on="1"/>
        <pt x="288" y="299" on="0"/>
        <pt x="317" y="293" on="1"/>
        <pt x="333" y="336" on="0"/>
        <pt x="364" y="432" on="1"/>
        <pt x="324" y="432" on="1"/>
        <pt x="290" y="416" on="0"/>
        <pt x="245" y="410" on="1"/>
        <pt x="235" y="409" on="0"/>
        <pt x="234" y="425" on="0"/>
        <pt x="268" y="428" on="0"/>
        <pt x="291" y="442" on="1"/>
        <pt x="290" y="448" on="0"/>
        <pt x="314" y="463" on="0"/>
        <pt x="331" y="468" on="1"/>
        <pt x="378" y="509" on="0"/>
        <pt x="404" y="565" on="1"/>
        <pt x="406" y="577" on="0"/>
        <pt x="468" y="577" on="0"/>
        <pt x="467" y="565" on="1"/>
      </contour>
      <contour>
        <pt x="597" y="238" on="1"/>
        <pt x="684" y="422" on="0"/>
        <pt x="684" y="442" on="1"/>
        <pt x="416" y="433" on="1"/>
        <pt x="384" y="348" on="0"/>
        <pt x="356" y="285" on="1"/>
        <pt x="382" y="280" on="0"/>
        <pt x="432" y="268" on="1"/>
        <pt x="534" y="245" on="0"/>
      </contour>
    </TTGlyph>
    <TTGlyph name="Hcircumflex" xMin="-92" yMin="-147" xMax="863" yMax="719">
      <contour>
        <pt x="590" y="219" on="1"/>
        <pt x="342" y="252" on="1"/>
        <pt x="190" y="-93" on="0"/>
        <pt x="47" y="-137" on="1"/>
        <pt x="21" y="-146" on="0"/>
        <pt x="1" y="-146" on="1"/>
        <pt x="-74" y="-146" on="0"/>
        <pt x="-91" y="-83" on="1"/>
        <pt x="-92" y="-79" on="0"/>
        <pt x="-92" y="-70" on="0"/>
        <pt x="-89" y="-57" on="0"/>
        <pt x="-79" y="-61" on="0"/>
        <pt x="-74" y="-78" on="1"/>
        <pt x="-65" y="-107" on="0"/>
        <pt x="-36" y="-115" on="1"/>
        <pt x="-14" y="-119" on="0"/>
        <pt x="19" y="-119" on="0"/>
        <pt x="31" y="-115" on="1"/>
        <pt x="177" y="-69" on="0"/>
        <pt x="304" y="257" on="1"/>
        <pt x="251" y="260" on="1"/>
        <pt x="237" y="261" on="0"/>
        <pt x="225" y="261" on="1"/>
        <pt x="98" y="261" on="0"/>
        <pt x="69" y="179" on="1"/>
        <pt x="64" y="168" on="0"/>
        <pt x="64" y="148" on="0"/>
        <pt x="76" y="128" on="0"/>
        <pt x="57" y="123" on="0"/>
        <pt x="51" y="132" on="1"/>
        <pt x="40" y="152" on="0"/>
        <pt x="40" y="169" on="1"/>
        <pt x="40" y="230" on="0"/>
        <pt x="85" y="289" on="0"/>
        <pt x="115" y="298" on="1"/>
        <pt x="151" y="308" on="0"/>
        <pt x="195" y="308" on="1"/>
        <pt x="256" y="302" on="1"/>
        <pt x="288" y="299" on="0"/>
        <pt x="317" y="293" on="1"/>
        <pt x="341" y="357" on="0"/>
        <pt x="375" y="465" on="1"/>
        <pt x="322" y="418" on="0"/>
        <pt x="245" y="410" on="1"/>
        <pt x="235" y="409" on="0"/>
        <pt x="234" y="425" on="0"/>
        <pt x="246" y="427" on="1"/>
        <pt x="289" y="431" on="0"/>
        <pt x="380" y="511" on="0"/>
        <pt x="404" y="565" on="1"/>
        <pt x="406" y="577" on="0"/>
        <pt x="468" y="577" on="0"/>
        <pt x="467" y="565" on="1"/>
        <pt x="461" y="550" on="0"/>
        <pt x="384" y="349" on="0"/>
        <pt x="356" y="285" on="1"/>
        <pt x="382" y="280" on="0"/>
        <pt x="432" y="268" on="1"/>
        <pt x="534" y="245" on="0"/>
        <pt x="597" y="238" on="1"/>
        <pt x="655" y="361" on="0"/>
        <pt x="684" y="430" on="0"/>
        <pt x="684" y="448" on="0"/>
        <pt x="681" y="453" on="1"/>
        <pt x="684" y="481" on="0"/>
        <pt x="765" y="572" on="0"/>
        <pt x="801" y="572" on="1"/>
        <pt x="817" y="572" on="0"/>
        <pt x="862" y="549" on="0"/>
        <pt x="862" y="531" on="1"/>
        <pt x="862" y="527" on="0"/>
        <pt x="852" y="533" on="0"/>
        <pt x="850" y="533" on="1"/>
        <pt x="825" y="533" on="0"/>
        <pt x="759" y="462" on="0"/>
        <pt x="727" y="406" on="1"/>
        <pt x="678" y="319" on="0"/>
        <pt x="640" y="234" on="1"/>
        <pt x="726" y="234" on="0"/>
        <pt x="755" y="270" on="1"/>
        <pt x="760" y="279" on="0"/>
        <pt x="770" y="266" on="0"/>
        <pt x="753" y="241" on="0"/>
        <pt x="695" y="217" on="0"/>
        <pt x="632" y="217" on="1"/>
        <pt x="585" y="106" on="0"/>
        <pt x="585" y="43" on="1"/>
        <pt x="585" y="-6" on="0"/>
        <pt x="642" y="-6" on="0"/>
        <pt x="755" y="82" on="0"/>
        <pt x="805" y="149" on="1"/>
        <pt x="808" y="153" on="0"/>
        <pt x="820" y="148" on="0"/>
        <pt x="815" y="135" on="0"/>
        <pt x="802" y="116" on="1"/>
        <pt x="760" y="59" on="0"/>
        <pt x="699" y="10" on="1"/>
        <pt x="654" y="-25" on="0"/>
        <pt x="601" y="-25" on="1"/>
        <pt x="574" y="-25" on="0"/>
        <pt x="545" y="7" on="0"/>
        <pt x="542" y="35" on="0"/>
        <pt x="542" y="59" on="0"/>
        <pt x="546" y="84" on="1"/>
        <pt x="556" y="148" on="0"/>
      </contour>
      <contour>
        <pt x="734" y="627" on="1"/>
        <pt x="738" y="620" on="0"/>
        <pt x="738" y="607" on="0"/>
        <pt x="730" y="607" on="0"/>
        <pt x="719" y="617" on="0"/>
        <pt x="647" y="678" on="0"/>
        <pt x="641" y="684" on="1"/>
        <pt x="624" y="673" on="0"/>
        <pt x="594" y="650" on="1"/>
        <pt x="531" y="599" on="0"/>
        <pt x="531" y="614" on="1"/>
        <pt x="531" y="623" on="0"/>
        <pt x="542" y="632" on="1"/>
        <pt x="547" y="636" on="0"/>
        <pt x="572" y="659" on="1"/>
        <pt x="639" y="719" on="0"/>
        <pt x="654" y="719" on="1"/>
        <pt x="679" y="709" on="0"/>
      </contour>
    </TTGlyph>
    <TTGlyph name="I" xMin="8" yMin="-22" xMax="608" yMax="590">
      <contour>
        <pt x="196" y="408" on="1"/>
        <pt x="196" y="392" on="0"/>
        <pt x="213" y="368" on="0"/>
        <pt x="220" y="363" on="1"/>
        <pt x="234" y="354" on="0"/>
        <pt x="256" y="343" on="1"/>
        <pt x="268" y="334" on="0"/>
        <pt x="261" y="332" on="1"/>
        <pt x="258" y="332" on="0"/>
        <pt x="254" y="333" on="1"/>
        <pt x="230" y="338" on="0"/>
        <pt x="176" y="386" on="0"/>
        <pt x="175" y="417" on="1"/>
        <pt x="172" y="428" on="0"/>
        <pt x="172" y="436" on="1"/>
        <pt x="172" y="479" on="0"/>
        <pt x="208" y="511" on="1"/>
        <pt x="275" y="568" on="0"/>
        <pt x="421" y="568" on="1"/>
        <pt x="421" y="572" on="0"/>
        <pt x="424" y="578" on="1"/>
        <pt x="426" y="590" on="0"/>
        <pt x="455" y="590" on="1"/>
        <pt x="480" y="590" on="0"/>
        <pt x="479" y="578" on="1"/>
        <pt x="475" y="570" on="0"/>
        <pt x="474" y="565" on="1"/>
        <pt x="538" y="561" on="0"/>
        <pt x="581" y="539" on="1"/>
        <pt x="595" y="532" on="0"/>
        <pt x="608" y="512" on="0"/>
        <pt x="608" y="508" on="1"/>
        <pt x="608" y="499" on="0"/>
        <pt x="535" y="524" on="0"/>
        <pt x="460" y="524" on="1"/>
        <pt x="455" y="503" on="0"/>
        <pt x="396" y="333" on="0"/>
        <pt x="380" y="292" on="0"/>
        <pt x="352" y="219" on="0"/>
        <pt x="330" y="173" on="0"/>
        <pt x="316" y="144" on="1"/>
        <pt x="292" y="95" on="0"/>
        <pt x="259" y="52" on="1"/>
        <pt x="234" y="23" on="0"/>
        <pt x="221" y="13" on="1"/>
        <pt x="238" y="13" on="0"/>
        <pt x="336" y="13" on="0"/>
        <pt x="410" y="18" on="0"/>
        <pt x="417" y="12" on="0"/>
        <pt x="414" y="8" on="1"/>
        <pt x="408" y="-2" on="0"/>
        <pt x="388" y="-13" on="0"/>
        <pt x="114" y="-21" on="0"/>
        <pt x="46" y="-21" on="0"/>
        <pt x="31" y="-21" on="1"/>
        <pt x="8" y="-20" on="0"/>
        <pt x="8" y="-3" on="1"/>
        <pt x="8" y="6" on="0"/>
        <pt x="14" y="22" on="1"/>
        <pt x="21" y="38" on="0"/>
        <pt x="62" y="47" on="0"/>
        <pt x="78" y="34" on="1"/>
        <pt x="105" y="12" on="0"/>
        <pt x="157" y="12" on="0"/>
        <pt x="212" y="32" on="0"/>
        <pt x="240" y="68" on="1"/>
        <pt x="321" y="176" on="0"/>
        <pt x="410" y="523" on="1"/>
        <pt x="318" y="515" on="0"/>
        <pt x="196" y="456" on="0"/>
      </contour>
    </TTGlyph>
    <TTGlyph name="IJ" xMin="8" yMin="-118" xMax="945" yMax="590">
      <contour>
        <pt x="585" y="537" on="1"/>
        <pt x="651" y="568" on="0"/>
        <pt x="761" y="568" on="1"/>
        <pt x="810" y="568" on="0"/>
        <pt x="849" y="560" on="1"/>
        <pt x="875" y="589" on="0"/>
        <pt x="901" y="589" on="1"/>
        <pt x="909" y="589" on="0"/>
        <pt x="913" y="582" on="0"/>
        <pt x="907" y="574" on="0"/>
        <pt x="884" y="566" on="0"/>
        <pt x="872" y="555" on="1"/>
        <pt x="903" y="546" on="0"/>
        <pt x="933" y="532" on="0"/>
        <pt x="945" y="513" on="0"/>
        <pt x="945" y="508" on="1"/>
        <pt x="945" y="499" on="0"/>
        <pt x="890" y="517" on="0"/>
        <pt x="854" y="522" on="1"/>
        <pt x="835" y="478" on="0"/>
        <pt x="797" y="334" on="0"/>
        <pt x="791" y="314" on="1"/>
        <pt x="845" y="327" on="0"/>
        <pt x="882" y="327" on="0"/>
        <pt x="895" y="319" on="0"/>
        <pt x="888" y="308" on="0"/>
        <pt x="879" y="313" on="0"/>
        <pt x="854" y="313" on="0"/>
        <pt x="788" y="296" on="0"/>
        <pt x="782" y="279" on="1"/>
        <pt x="690" y="26" on="0"/>
        <pt x="549" y="-73" on="1"/>
        <pt x="485" y="-118" on="0"/>
        <pt x="433" y="-118" on="1"/>
        <pt x="414" y="-118" on="0"/>
        <pt x="397" y="-112" on="1"/>
        <pt x="346" y="-94" on="0"/>
        <pt x="346" y="-38" on="1"/>
        <pt x="346" y="-25" on="0"/>
        <pt x="349" y="-12" on="1"/>
        <pt x="196" y="-22" on="0"/>
        <pt x="61" y="-22" on="0"/>
        <pt x="16" y="-20" on="0"/>
        <pt x="8" y="-9" on="0"/>
        <pt x="8" y="6" on="0"/>
        <pt x="14" y="22" on="1"/>
        <pt x="21" y="38" on="0"/>
        <pt x="62" y="47" on="0"/>
        <pt x="78" y="34" on="1"/>
        <pt x="105" y="12" on="0"/>
        <pt x="157" y="12" on="0"/>
        <pt x="212" y="32" on="0"/>
        <pt x="240" y="68" on="1"/>
        <pt x="321" y="176" on="0"/>
        <pt x="410" y="523" on="1"/>
        <pt x="318" y="515" on="0"/>
        <pt x="196" y="456" on="0"/>
        <pt x="196" y="408" on="1"/>
        <pt x="196" y="392" on="0"/>
        <pt x="213" y="368" on="0"/>
        <pt x="220" y="363" on="1"/>
        <pt x="234" y="354" on="0"/>
        <pt x="256" y="343" on="1"/>
        <pt x="268" y="334" on="0"/>
        <pt x="261" y="332" on="1"/>
        <pt x="258" y="332" on="0"/>
        <pt x="254" y="333" on="1"/>
        <pt x="230" y="338" on="0"/>
        <pt x="176" y="386" on="0"/>
        <pt x="175" y="417" on="1"/>
        <pt x="172" y="428" on="0"/>
        <pt x="172" y="436" on="1"/>
        <pt x="172" y="479" on="0"/>
        <pt x="208" y="511" on="1"/>
        <pt x="275" y="568" on="0"/>
        <pt x="421" y="568" on="1"/>
        <pt x="421" y="572" on="0"/>
        <pt x="424" y="578" on="1"/>
        <pt x="426" y="590" on="0"/>
        <pt x="455" y="590" on="1"/>
        <pt x="480" y="590" on="0"/>
        <pt x="479" y="578" on="1"/>
        <pt x="475" y="570" on="0"/>
        <pt x="474" y="565" on="1"/>
        <pt x="537" y="561" on="0"/>
      </contour>
      <contour>
        <pt x="221" y="13" on="1"/>
        <pt x="240" y="13" on="0"/>
        <pt x="304" y="13" on="0"/>
        <pt x="357" y="14" on="1"/>
        <pt x="371" y="49" on="0"/>
        <pt x="407" y="92" on="1"/>
        <pt x="530" y="233" on="0"/>
        <pt x="740" y="299" on="1"/>
        <pt x="743" y="308" on="0"/>
        <pt x="765" y="379" on="0"/>
        <pt x="774" y="404" on="1"/>
        <pt x="799" y="481" on="0"/>
        <pt x="824" y="524" on="1"/>
        <pt x="812" y="524" on="0"/>
        <pt x="763" y="524" on="0"/>
        <pt x="719" y="519" on="1"/>
        <pt x="607" y="506" on="0"/>
        <pt x="560" y="462" on="1"/>
        <pt x="534" y="438" on="0"/>
        <pt x="534" y="407" on="1"/>
        <pt x="534" y="382" on="0"/>
        <pt x="552" y="368" on="1"/>
        <pt x="565" y="357" on="0"/>
        <pt x="591" y="345" on="0"/>
        <pt x="606" y="334" on="0"/>
        <pt x="598" y="332" on="1"/>
        <pt x="595" y="332" on="0"/>
        <pt x="591" y="333" on="1"/>
        <pt x="568" y="338" on="0"/>
        <pt x="513" y="386" on="0"/>
        <pt x="512" y="417" on="1"/>
        <pt x="510" y="429" on="0"/>
        <pt x="510" y="437" on="1"/>
        <pt x="510" y="482" on="0"/>
        <pt x="552" y="515" on="1"/>
        <pt x="507" y="524" on="0"/>
        <pt x="460" y="524" on="1"/>
        <pt x="455" y="503" on="0"/>
        <pt x="396" y="333" on="0"/>
        <pt x="380" y="292" on="0"/>
        <pt x="352" y="219" on="0"/>
        <pt x="330" y="173" on="0"/>
        <pt x="316" y="144" on="1"/>
        <pt x="292" y="95" on="0"/>
        <pt x="259" y="52" on="1"/>
        <pt x="234" y="23" on="0"/>
      </contour>
      <contour>
        <pt x="398" y="-33" on="1"/>
        <pt x="398" y="-69" on="0"/>
        <pt x="426" y="-83" on="1"/>
        <pt x="438" y="-89" on="0"/>
        <pt x="453" y="-89" on="1"/>
        <pt x="487" y="-89" on="0"/>
        <pt x="531" y="-54" on="1"/>
        <pt x="553" y="-36" on="0"/>
        <pt x="575" y="-10" on="1"/>
        <pt x="668" y="104" on="0"/>
        <pt x="734" y="280" on="1"/>
        <pt x="560" y="223" on="0"/>
        <pt x="456" y="95" on="1"/>
        <pt x="423" y="56" on="0"/>
        <pt x="409" y="17" on="1"/>
        <pt x="418" y="13" on="0"/>
        <pt x="410" y="-1" on="0"/>
        <pt x="401" y="-6" on="1"/>
        <pt x="398" y="-21" on="0"/>
      </contour>
    </TTGlyph>
    <TTGlyph name="Iacute" xMin="8" yMin="-22" xMax="608" yMax="752">
      <contour>
        <pt x="575" y="510" on="1"/>
        <pt x="535" y="524" on="0"/>
        <pt x="460" y="524" on="1"/>
        <pt x="458" y="516" on="0"/>
        <pt x="428" y="428" on="1"/>
        <pt x="424" y="414" on="0"/>
        <pt x="396" y="333" on="0"/>
        <pt x="380" y="292" on="0"/>
        <pt x="352" y="219" on="0"/>
        <pt x="330" y="173" on="0"/>
        <pt x="302" y="115" on="0"/>
        <pt x="273" y="70" on="0"/>
        <pt x="234" y="23" on="0"/>
        <pt x="221" y="13" on="1"/>
        <pt x="238" y="13" on="0"/>
        <pt x="336" y="13" on="0"/>
        <pt x="410" y="18" on="0"/>
        <pt x="417" y="12" on="0"/>
        <pt x="411" y="3" on="0"/>
        <pt x="403" y="-5" on="0"/>
        <pt x="388" y="-13" on="0"/>
        <pt x="114" y="-21" on="0"/>
        <pt x="17" y="-21" on="0"/>
        <pt x="12" y="-14" on="1"/>
        <pt x="8" y="-9" on="0"/>
        <pt x="8" y="6" on="0"/>
        <pt x="14" y="22" on="1"/>
        <pt x="21" y="38" on="0"/>
        <pt x="62" y="47" on="0"/>
        <pt x="70" y="39" on="1"/>
        <pt x="106" y="12" on="0"/>
        <pt x="139" y="12" on="1"/>
        <pt x="197" y="12" on="0"/>
        <pt x="240" y="68" on="1"/>
        <pt x="321" y="176" on="0"/>
        <pt x="410" y="523" on="1"/>
        <pt x="318" y="515" on="0"/>
        <pt x="196" y="456" on="0"/>
        <pt x="196" y="408" on="1"/>
        <pt x="196" y="392" on="0"/>
        <pt x="213" y="368" on="0"/>
        <pt x="228" y="358" on="0"/>
        <pt x="254" y="344" on="0"/>
        <pt x="264" y="337" on="0"/>
        <pt x="262" y="331" on="0"/>
        <pt x="254" y="333" on="1"/>
        <pt x="230" y="338" on="0"/>
        <pt x="176" y="386" on="0"/>
        <pt x="175" y="417" on="1"/>
        <pt x="172" y="428" on="0"/>
        <pt x="172" y="436" on="1"/>
        <pt x="172" y="479" on="0"/>
        <pt x="207" y="510" on="1"/>
        <pt x="275" y="568" on="0"/>
        <pt x="421" y="568" on="1"/>
        <pt x="421" y="572" on="0"/>
        <pt x="424" y="578" on="1"/>
        <pt x="425" y="585" on="0"/>
        <pt x="454" y="591" on="0"/>
        <pt x="480" y="586" on="0"/>
        <pt x="479" y="578" on="1"/>
        <pt x="475" y="570" on="0"/>
        <pt x="474" y="565" on="1"/>
        <pt x="547" y="560" on="0"/>
        <pt x="584" y="537" on="1"/>
        <pt x="607" y="523" on="0"/>
        <pt x="607" y="510" on="1"/>
        <pt x="607" y="504" on="0"/>
        <pt x="592" y="504" on="0"/>
      </contour>
      <contour>
        <pt x="585" y="700" on="0"/>
        <pt x="455" y="638" on="0"/>
        <pt x="434" y="637" on="0"/>
        <pt x="434" y="644" on="0"/>
        <pt x="438" y="649" on="0"/>
        <pt x="449" y="656" on="1"/>
        <pt x="482" y="679" on="0"/>
        <pt x="500" y="694" on="0"/>
        <pt x="518" y="706" on="1"/>
        <pt x="555" y="733" on="0"/>
        <pt x="567" y="750" on="1"/>
        <pt x="575" y="752" on="0"/>
        <pt x="582" y="752" on="0"/>
        <pt x="596" y="747" on="1"/>
        <pt x="608" y="740" on="0"/>
        <pt x="608" y="729" on="1"/>
        <pt x="608" y="720" on="0"/>
        <pt x="601" y="713" on="1"/>
      </contour>
    </TTGlyph>
    <TTGlyph name="Ibreve" xMin="8" yMin="-22" xMax="608" yMax="746">
      <contour>
        <pt x="196" y="408" on="1"/>
        <pt x="196" y="392" on="0"/>
        <pt x="213" y="368" on="0"/>
        <pt x="220" y="363" on="1"/>
        <pt x="234" y="354" on="0"/>
        <pt x="256" y="343" on="1"/>
        <pt x="268" y="334" on="0"/>
        <pt x="261" y="332" on="1"/>
        <pt x="258" y="332" on="0"/>
        <pt x="254" y="333" on="1"/>
        <pt x="230" y="338" on="0"/>
        <pt x="176" y="386" on="0"/>
        <pt x="175" y="417" on="1"/>
        <pt x="172" y="428" on="0"/>
        <pt x="172" y="436" on="1"/>
        <pt x="172" y="479" on="0"/>
        <pt x="208" y="511" on="1"/>
        <pt x="275" y="568" on="0"/>
        <pt x="421" y="568" on="1"/>
        <pt x="421" y="572" on="0"/>
        <pt x="424" y="578" on="1"/>
        <pt x="425" y="585" on="0"/>
        <pt x="454" y="591" on="0"/>
        <pt x="480" y="586" on="0"/>
        <pt x="479" y="578" on="1"/>
        <pt x="475" y="570" on="0"/>
        <pt x="474" y="565" on="1"/>
        <pt x="538" y="561" on="0"/>
        <pt x="581" y="539" on="1"/>
        <pt x="595" y="532" on="0"/>
        <pt x="608" y="512" on="0"/>
        <pt x="608" y="508" on="1"/>
        <pt x="608" y="499" on="0"/>
        <pt x="535" y="524" on="0"/>
        <pt x="460" y="524" on="1"/>
        <pt x="455" y="503" on="0"/>
        <pt x="396" y="333" on="0"/>
        <pt x="380" y="292" on="0"/>
        <pt x="352" y="219" on="0"/>
        <pt x="330" y="173" on="0"/>
        <pt x="316" y="144" on="1"/>
        <pt x="292" y="95" on="0"/>
        <pt x="259" y="52" on="1"/>
        <pt x="234" y="23" on="0"/>
        <pt x="221" y="13" on="1"/>
        <pt x="238" y="13" on="0"/>
        <pt x="336" y="13" on="0"/>
        <pt x="410" y="18" on="0"/>
        <pt x="417" y="12" on="0"/>
        <pt x="414" y="8" on="1"/>
        <pt x="408" y="-2" on="0"/>
        <pt x="388" y="-13" on="0"/>
        <pt x="114" y="-21" on="0"/>
        <pt x="46" y="-21" on="0"/>
        <pt x="31" y="-21" on="1"/>
        <pt x="8" y="-20" on="0"/>
        <pt x="8" y="-3" on="1"/>
        <pt x="8" y="6" on="0"/>
        <pt x="14" y="22" on="1"/>
        <pt x="21" y="38" on="0"/>
        <pt x="62" y="47" on="0"/>
        <pt x="78" y="34" on="1"/>
        <pt x="105" y="12" on="0"/>
        <pt x="157" y="12" on="0"/>
        <pt x="212" y="32" on="0"/>
        <pt x="240" y="68" on="1"/>
        <pt x="321" y="176" on="0"/>
        <pt x="410" y="523" on="1"/>
        <pt x="318" y="515" on="0"/>
        <pt x="196" y="456" on="0"/>
      </contour>
      <contour>
        <pt x="434" y="626" on="1"/>
        <pt x="395" y="608" on="0"/>
        <pt x="336" y="608" on="0"/>
        <pt x="313" y="618" on="1"/>
        <pt x="264" y="640" on="0"/>
        <pt x="264" y="698" on="1"/>
        <pt x="264" y="735" on="0"/>
        <pt x="286" y="745" on="0"/>
        <pt x="301" y="735" on="0"/>
        <pt x="301" y="724" on="1"/>
        <pt x="301" y="671" on="0"/>
        <pt x="342" y="648" on="1"/>
        <pt x="363" y="636" on="0"/>
        <pt x="410" y="636" on="0"/>
        <pt x="436" y="649" on="1"/>
        <pt x="488" y="674" on="0"/>
        <pt x="510" y="742" on="1"/>
        <pt x="511" y="746" on="0"/>
        <pt x="514" y="746" on="0"/>
        <pt x="524" y="739" on="0"/>
        <pt x="524" y="732" on="1"/>
        <pt x="506" y="660" on="0"/>
      </contour>
    </TTGlyph>
    <TTGlyph name="Icircumflex" xMin="8" yMin="-22" xMax="608" yMax="738">
      <contour>
        <pt x="575" y="510" on="1"/>
        <pt x="535" y="524" on="0"/>
        <pt x="460" y="524" on="1"/>
        <pt x="458" y="516" on="0"/>
        <pt x="428" y="428" on="1"/>
        <pt x="424" y="414" on="0"/>
        <pt x="396" y="333" on="0"/>
        <pt x="380" y="292" on="0"/>
        <pt x="352" y="219" on="0"/>
        <pt x="330" y="173" on="0"/>
        <pt x="302" y="115" on="0"/>
        <pt x="273" y="70" on="0"/>
        <pt x="234" y="23" on="0"/>
        <pt x="221" y="13" on="1"/>
        <pt x="238" y="13" on="0"/>
        <pt x="336" y="13" on="0"/>
        <pt x="410" y="18" on="0"/>
        <pt x="417" y="12" on="0"/>
        <pt x="411" y="3" on="0"/>
        <pt x="403" y="-5" on="0"/>
        <pt x="388" y="-13" on="0"/>
        <pt x="114" y="-21" on="0"/>
        <pt x="17" y="-21" on="0"/>
        <pt x="12" y="-14" on="1"/>
        <pt x="8" y="-9" on="0"/>
        <pt x="8" y="6" on="0"/>
        <pt x="14" y="22" on="1"/>
        <pt x="21" y="38" on="0"/>
        <pt x="62" y="47" on="0"/>
        <pt x="70" y="39" on="1"/>
        <pt x="106" y="12" on="0"/>
        <pt x="139" y="12" on="1"/>
        <pt x="197" y="12" on="0"/>
        <pt x="240" y="68" on="1"/>
        <pt x="321" y="176" on="0"/>
        <pt x="410" y="523" on="1"/>
        <pt x="318" y="515" on="0"/>
        <pt x="196" y="456" on="0"/>
        <pt x="196" y="408" on="1"/>
        <pt x="196" y="392" on="0"/>
        <pt x="213" y="368" on="0"/>
        <pt x="228" y="358" on="0"/>
        <pt x="254" y="344" on="0"/>
        <pt x="264" y="337" on="0"/>
        <pt x="262" y="331" on="0"/>
        <pt x="254" y="333" on="1"/>
        <pt x="230" y="338" on="0"/>
        <pt x="176" y="386" on="0"/>
        <pt x="175" y="417" on="1"/>
        <pt x="172" y="428" on="0"/>
        <pt x="172" y="436" on="1"/>
        <pt x="172" y="479" on="0"/>
        <pt x="207" y="510" on="1"/>
        <pt x="275" y="568" on="0"/>
        <pt x="421" y="568" on="1"/>
        <pt x="421" y="572" on="0"/>
        <pt x="424" y="578" on="1"/>
        <pt x="425" y="585" on="0"/>
        <pt x="454" y="591" on="0"/>
        <pt x="480" y="586" on="0"/>
        <pt x="479" y="578" on="1"/>
        <pt x="475" y="570" on="0"/>
        <pt x="474" y="565" on="1"/>
        <pt x="547" y="560" on="0"/>
        <pt x="584" y="537" on="1"/>
        <pt x="607" y="523" on="0"/>
        <pt x="607" y="510" on="1"/>
        <pt x="607" y="504" on="0"/>
        <pt x="592" y="504" on="0"/>
      </contour>
      <contour>
        <pt x="489" y="733" on="0"/>
        <pt x="541" y="670" on="0"/>
        <pt x="561" y="639" on="0"/>
        <pt x="561" y="626" on="0"/>
        <pt x="552" y="626" on="0"/>
        <pt x="546" y="630" on="1"/>
        <pt x="540" y="637" on="0"/>
        <pt x="470" y="697" on="0"/>
        <pt x="464" y="703" on="1"/>
        <pt x="445" y="692" on="0"/>
        <pt x="385" y="643" on="0"/>
        <pt x="374" y="635" on="1"/>
        <pt x="354" y="624" on="0"/>
        <pt x="354" y="642" on="0"/>
        <pt x="367" y="652" on="0"/>
        <pt x="394" y="677" on="1"/>
        <pt x="462" y="738" on="0"/>
        <pt x="476" y="738" on="1"/>
      </contour>
    </TTGlyph>
    <TTGlyph name="Idieresis" xMin="8" yMin="-22" xMax="608" yMax="711">
      <contour>
        <pt x="575" y="510" on="1"/>
        <pt x="535" y="524" on="0"/>
        <pt x="460" y="524" on="1"/>
        <pt x="458" y="516" on="0"/>
        <pt x="428" y="428" on="1"/>
        <pt x="424" y="414" on="0"/>
        <pt x="396" y="333" on="0"/>
        <pt x="380" y="292" on="0"/>
        <pt x="352" y="219" on="0"/>
        <pt x="330" y="173" on="0"/>
        <pt x="302" y="115" on="0"/>
        <pt x="273" y="70" on="0"/>
        <pt x="234" y="23" on="0"/>
        <pt x="221" y="13" on="1"/>
        <pt x="238" y="13" on="0"/>
        <pt x="336" y="13" on="0"/>
        <pt x="410" y="18" on="0"/>
        <pt x="417" y="12" on="0"/>
        <pt x="411" y="3" on="0"/>
        <pt x="403" y="-5" on="0"/>
        <pt x="388" y="-13" on="0"/>
        <pt x="114" y="-21" on="0"/>
        <pt x="17" y="-21" on="0"/>
        <pt x="12" y="-14" on="1"/>
        <pt x="8" y="-9" on="0"/>
        <pt x="8" y="6" on="0"/>
        <pt x="14" y="22" on="1"/>
        <pt x="21" y="38" on="0"/>
        <pt x="62" y="47" on="0"/>
        <pt x="70" y="39" on="1"/>
        <pt x="106" y="12" on="0"/>
        <pt x="139" y="12" on="1"/>
        <pt x="197" y="12" on="0"/>
        <pt x="240" y="68" on="1"/>
        <pt x="321" y="176" on="0"/>
        <pt x="410" y="523" on="1"/>
        <pt x="318" y="515" on="0"/>
        <pt x="196" y="456" on="0"/>
        <pt x="196" y="408" on="1"/>
        <pt x="196" y="392" on="0"/>
        <pt x="213" y="368" on="0"/>
        <pt x="228" y="358" on="0"/>
        <pt x="254" y="344" on="0"/>
        <pt x="264" y="337" on="0"/>
        <pt x="262" y="331" on="0"/>
        <pt x="254" y="333" on="1"/>
        <pt x="230" y="338" on="0"/>
        <pt x="176" y="386" on="0"/>
        <pt x="175" y="417" on="1"/>
        <pt x="172" y="428" on="0"/>
        <pt x="172" y="436" on="1"/>
        <pt x="172" y="479" on="0"/>
        <pt x="207" y="510" on="1"/>
        <pt x="275" y="568" on="0"/>
        <pt x="421" y="568" on="1"/>
        <pt x="421" y="572" on="0"/>
        <pt x="424" y="578" on="1"/>
        <pt x="425" y="585" on="0"/>
        <pt x="454" y="591" on="0"/>
        <pt x="480" y="586" on="0"/>
        <pt x="479" y="578" on="1"/>
        <pt x="475" y="570" on="0"/>
        <pt x="474" y="565" on="1"/>
        <pt x="547" y="560" on="0"/>
        <pt x="584" y="537" on="1"/>
        <pt x="607" y="523" on="0"/>
        <pt x="607" y="510" on="1"/>
        <pt x="607" y="504" on="0"/>
        <pt x="592" y="504" on="0"/>
      </contour>
      <contour>
        <pt x="361" y="663" on="0"/>
        <pt x="403" y="696" on="0"/>
        <pt x="422" y="711" on="0"/>
        <pt x="428" y="711" on="0"/>
        <pt x="421" y="688" on="0"/>
        <pt x="421" y="675" on="0"/>
        <pt x="401" y="644" on="0"/>
        <pt x="395" y="644" on="1"/>
        <pt x="361" y="644" on="0"/>
        <pt x="361" y="660" on="1"/>
      </contour>
      <contour>
        <pt x="586" y="709" on="1"/>
        <pt x="580" y="683" on="1"/>
        <pt x="580" y="675" on="0"/>
        <pt x="559" y="644" on="0"/>
        <pt x="554" y="644" on="1"/>
        <pt x="520" y="644" on="0"/>
        <pt x="520" y="660" on="1"/>
        <pt x="520" y="663" on="0"/>
        <pt x="540" y="680" on="1"/>
        <pt x="579" y="711" on="0"/>
        <pt x="586" y="711" on="0"/>
      </contour>
    </TTGlyph>
    <TTGlyph name="Idotaccent" xMin="8" yMin="-22" xMax="608" yMax="749">
      <contour>
        <pt x="196" y="408" on="1"/>
        <pt x="196" y="392" on="0"/>
        <pt x="213" y="368" on="0"/>
        <pt x="220" y="363" on="1"/>
        <pt x="234" y="354" on="0"/>
        <pt x="256" y="343" on="1"/>
        <pt x="268" y="334" on="0"/>
        <pt x="261" y="332" on="1"/>
        <pt x="258" y="332" on="0"/>
        <pt x="254" y="333" on="1"/>
        <pt x="230" y="338" on="0"/>
        <pt x="176" y="386" on="0"/>
        <pt x="175" y="417" on="1"/>
        <pt x="172" y="428" on="0"/>
        <pt x="172" y="436" on="1"/>
        <pt x="172" y="479" on="0"/>
        <pt x="208" y="511" on="1"/>
        <pt x="275" y="568" on="0"/>
        <pt x="421" y="568" on="1"/>
        <pt x="421" y="572" on="0"/>
        <pt x="424" y="578" on="1"/>
        <pt x="425" y="585" on="0"/>
        <pt x="454" y="591" on="0"/>
        <pt x="480" y="586" on="0"/>
        <pt x="479" y="578" on="1"/>
        <pt x="475" y="570" on="0"/>
        <pt x="474" y="565" on="1"/>
        <pt x="538" y="561" on="0"/>
        <pt x="581" y="539" on="1"/>
        <pt x="595" y="532" on="0"/>
        <pt x="608" y="512" on="0"/>
        <pt x="608" y="508" on="1"/>
        <pt x="608" y="499" on="0"/>
        <pt x="535" y="524" on="0"/>
        <pt x="460" y="524" on="1"/>
        <pt x="455" y="503" on="0"/>
        <pt x="396" y="333" on="0"/>
        <pt x="380" y="292" on="0"/>
        <pt x="352" y="219" on="0"/>
        <pt x="330" y="173" on="0"/>
        <pt x="316" y="144" on="1"/>
        <pt x="292" y="95" on="0"/>
        <pt x="259" y="52" on="1"/>
        <pt x="234" y="23" on="0"/>
        <pt x="221" y="13" on="1"/>
        <pt x="238" y="13" on="0"/>
        <pt x="336" y="13" on="0"/>
        <pt x="410" y="18" on="0"/>
        <pt x="417" y="12" on="0"/>
        <pt x="414" y="8" on="1"/>
        <pt x="408" y="-2" on="0"/>
        <pt x="388" y="-13" on="0"/>
        <pt x="114" y="-21" on="0"/>
        <pt x="46" y="-21" on="0"/>
        <pt x="31" y="-21" on="1"/>
        <pt x="8" y="-20" on="0"/>
        <pt x="8" y="-3" on="1"/>
        <pt x="8" y="6" on="0"/>
        <pt x="14" y="22" on="1"/>
        <pt x="21" y="38" on="0"/>
        <pt x="62" y="47" on="0"/>
        <pt x="78" y="34" on="1"/>
        <pt x="105" y="12" on="0"/>
        <pt x="157" y="12" on="0"/>
        <pt x="212" y="32" on="0"/>
        <pt x="240" y="68" on="1"/>
        <pt x="321" y="176" on="0"/>
        <pt x="410" y="523" on="1"/>
        <pt x="318" y="515" on="0"/>
        <pt x="196" y="456" on="0"/>
      </contour>
      <contour>
        <pt x="540" y="736" on="1"/>
        <pt x="540" y="715" on="1"/>
        <pt x="540" y="705" on="0"/>
        <pt x="510" y="660" on="0"/>
        <pt x="501" y="660" on="1"/>
        <pt x="452" y="660" on="0"/>
        <pt x="452" y="685" on="1"/>
        <pt x="452" y="688" on="0"/>
        <pt x="492" y="725" on="0"/>
        <pt x="500" y="731" on="1"/>
        <pt x="523" y="748" on="0"/>
        <pt x="540" y="748" on="0"/>
      </contour>
    </TTGlyph>
    <TTGlyph name="Igrave" xMin="8" yMin="-22" xMax="608" yMax="748">
      <contour>
        <pt x="575" y="510" on="1"/>
        <pt x="535" y="524" on="0"/>
        <pt x="460" y="524" on="1"/>
        <pt x="458" y="516" on="0"/>
        <pt x="428" y="428" on="1"/>
        <pt x="424" y="414" on="0"/>
        <pt x="396" y="333" on="0"/>
        <pt x="380" y="292" on="0"/>
        <pt x="352" y="219" on="0"/>
        <pt x="330" y="173" on="0"/>
        <pt x="302" y="115" on="0"/>
        <pt x="273" y="70" on="0"/>
        <pt x="234" y="23" on="0"/>
        <pt x="221" y="13" on="1"/>
        <pt x="238" y="13" on="0"/>
        <pt x="336" y="13" on="0"/>
        <pt x="410" y="18" on="0"/>
        <pt x="417" y="12" on="0"/>
        <pt x="411" y="3" on="0"/>
        <pt x="403" y="-5" on="0"/>
        <pt x="388" y="-13" on="0"/>
        <pt x="114" y="-21" on="0"/>
        <pt x="17" y="-21" on="0"/>
        <pt x="12" y="-14" on="1"/>
        <pt x="8" y="-9" on="0"/>
        <pt x="8" y="6" on="0"/>
        <pt x="14" y="22" on="1"/>
        <pt x="21" y="38" on="0"/>
        <pt x="62" y="47" on="0"/>
        <pt x="70" y="39" on="1"/>
        <pt x="106" y="12" on="0"/>
        <pt x="139" y="12" on="1"/>
        <pt x="197" y="12" on="0"/>
        <pt x="240" y="68" on="1"/>
        <pt x="321" y="176" on="0"/>
        <pt x="410" y="523" on="1"/>
        <pt x="318" y="515" on="0"/>
        <pt x="196" y="456" on="0"/>
        <pt x="196" y="408" on="1"/>
        <pt x="196" y="392" on="0"/>
        <pt x="213" y="368" on="0"/>
        <pt x="228" y="358" on="0"/>
        <pt x="254" y="344" on="0"/>
        <pt x="264" y="337" on="0"/>
        <pt x="262" y="331" on="0"/>
        <pt x="254" y="333" on="1"/>
        <pt x="230" y="338" on="0"/>
        <pt x="176" y="386" on="0"/>
        <pt x="175" y="417" on="1"/>
        <pt x="172" y="428" on="0"/>
        <pt x="172" y="436" on="1"/>
        <pt x="172" y="479" on="0"/>
        <pt x="207" y="510" on="1"/>
        <pt x="275" y="568" on="0"/>
        <pt x="421" y="568" on="1"/>
        <pt x="421" y="572" on="0"/>
        <pt x="424" y="578" on="1"/>
        <pt x="425" y="585" on="0"/>
        <pt x="454" y="591" on="0"/>
        <pt x="480" y="586" on="0"/>
        <pt x="479" y="578" on="1"/>
        <pt x="475" y="570" on="0"/>
        <pt x="474" y="565" on="1"/>
        <pt x="547" y="560" on="0"/>
        <pt x="584" y="537" on="1"/>
        <pt x="607" y="523" on="0"/>
        <pt x="607" y="510" on="1"/>
        <pt x="607" y="504" on="0"/>
        <pt x="592" y="504" on="0"/>
      </contour>
      <contour>
        <pt x="545" y="637" on="0"/>
        <pt x="526" y="637" on="0"/>
        <pt x="437" y="678" on="0"/>
        <pt x="416" y="690" on="1"/>
        <pt x="367" y="716" on="0"/>
        <pt x="367" y="733" on="1"/>
        <pt x="367" y="742" on="0"/>
        <pt x="381" y="747" on="1"/>
        <pt x="384" y="748" on="0"/>
        <pt x="389" y="748" on="0"/>
        <pt x="394" y="748" on="0"/>
        <pt x="401" y="746" on="0"/>
        <pt x="405" y="745" on="0"/>
        <pt x="412" y="741" on="0"/>
        <pt x="416" y="739" on="0"/>
        <pt x="425" y="734" on="0"/>
        <pt x="426" y="733" on="1"/>
        <pt x="437" y="726" on="0"/>
        <pt x="472" y="698" on="0"/>
        <pt x="543" y="646" on="0"/>
        <pt x="545" y="642" on="0"/>
      </contour>
    </TTGlyph>
    <TTGlyph name="Imacron" xMin="8" yMin="-22" xMax="608" yMax="687">
      <contour>
        <pt x="196" y="408" on="1"/>
        <pt x="196" y="392" on="0"/>
        <pt x="213" y="368" on="0"/>
        <pt x="220" y="363" on="1"/>
        <pt x="234" y="354" on="0"/>
        <pt x="256" y="343" on="1"/>
        <pt x="268" y="334" on="0"/>
        <pt x="261" y="332" on="1"/>
        <pt x="258" y="332" on="0"/>
        <pt x="254" y="333" on="1"/>
        <pt x="230" y="338" on="0"/>
        <pt x="176" y="386" on="0"/>
        <pt x="175" y="417" on="1"/>
        <pt x="172" y="428" on="0"/>
        <pt x="172" y="436" on="1"/>
        <pt x="172" y="479" on="0"/>
        <pt x="208" y="511" on="1"/>
        <pt x="275" y="568" on="0"/>
        <pt x="421" y="568" on="1"/>
        <pt x="421" y="572" on="0"/>
        <pt x="424" y="578" on="1"/>
        <pt x="425" y="585" on="0"/>
        <pt x="454" y="591" on="0"/>
        <pt x="480" y="586" on="0"/>
        <pt x="479" y="578" on="1"/>
        <pt x="475" y="570" on="0"/>
        <pt x="474" y="565" on="1"/>
        <pt x="538" y="561" on="0"/>
        <pt x="581" y="539" on="1"/>
        <pt x="595" y="532" on="0"/>
        <pt x="608" y="512" on="0"/>
        <pt x="608" y="508" on="1"/>
        <pt x="608" y="499" on="0"/>
        <pt x="535" y="524" on="0"/>
        <pt x="460" y="524" on="1"/>
        <pt x="455" y="503" on="0"/>
        <pt x="396" y="333" on="0"/>
        <pt x="380" y="292" on="0"/>
        <pt x="352" y="219" on="0"/>
        <pt x="330" y="173" on="0"/>
        <pt x="316" y="144" on="1"/>
        <pt x="292" y="95" on="0"/>
        <pt x="259" y="52" on="1"/>
        <pt x="234" y="23" on="0"/>
        <pt x="221" y="13" on="1"/>
        <pt x="238" y="13" on="0"/>
        <pt x="336" y="13" on="0"/>
        <pt x="410" y="18" on="0"/>
        <pt x="417" y="12" on="0"/>
        <pt x="414" y="8" on="1"/>
        <pt x="408" y="-2" on="0"/>
        <pt x="388" y="-13" on="0"/>
        <pt x="114" y="-21" on="0"/>
        <pt x="46" y="-21" on="0"/>
        <pt x="31" y="-21" on="1"/>
        <pt x="8" y="-20" on="0"/>
        <pt x="8" y="-3" on="1"/>
        <pt x="8" y="6" on="0"/>
        <pt x="14" y="22" on="1"/>
        <pt x="21" y="38" on="0"/>
        <pt x="62" y="47" on="0"/>
        <pt x="78" y="34" on="1"/>
        <pt x="105" y="12" on="0"/>
        <pt x="157" y="12" on="0"/>
        <pt x="212" y="32" on="0"/>
        <pt x="240" y="68" on="1"/>
        <pt x="321" y="176" on="0"/>
        <pt x="410" y="523" on="1"/>
        <pt x="318" y="515" on="0"/>
        <pt x="196" y="456" on="0"/>
      </contour>
      <contour>
        <pt x="389" y="685" on="1"/>
        <pt x="537" y="687" on="1"/>
        <pt x="590" y="687" on="0"/>
        <pt x="592" y="674" on="1"/>
        <pt x="592" y="667" on="0"/>
        <pt x="580" y="664" on="1"/>
        <pt x="516" y="652" on="0"/>
        <pt x="380" y="649" on="1"/>
        <pt x="378" y="649" on="0"/>
        <pt x="376" y="649" on="1"/>
        <pt x="357" y="649" on="0"/>
        <pt x="357" y="659" on="1"/>
        <pt x="357" y="673" on="0"/>
        <pt x="379" y="683" on="1"/>
      </contour>
    </TTGlyph>
</ttFont>
